<svg width="23" height="23" viewBox="0 0 23 23" fill="none" xmlns="http://www.w3.org/2000/svg">
<mask id="mask0_896_19934" style="mask-type:alpha" maskUnits="userSpaceOnUse" x="0" y="0" width="23" height="23">
<rect x="0.869141" y="0.639648" width="21.9609" height="21.9609" fill="#D9D9D9"/>
</mask>
<g mask="url(#mask0_896_19934)">
<path d="M10.8154 12.5352V15.2803C10.8154 15.5395 10.9031 15.7569 11.0785 15.9322C11.2539 16.1076 11.4712 16.1953 11.7305 16.1953C11.9897 16.1953 12.2071 16.1076 12.3824 15.9322C12.5578 15.7569 12.6455 15.5395 12.6455 15.2803V12.5352H15.3906C15.6499 12.5352 15.8672 12.4475 16.0426 12.2721C16.218 12.0967 16.3057 11.8794 16.3057 11.6201C16.3057 11.3609 16.218 11.1435 16.0426 10.9682C15.8672 10.7928 15.6499 10.7051 15.3906 10.7051H12.6455V7.95996C12.6455 7.7007 12.5578 7.48338 12.3824 7.308C12.2071 7.13261 11.9897 7.04492 11.7305 7.04492C11.4712 7.04492 11.2539 7.13261 11.0785 7.308C10.9031 7.48338 10.8154 7.7007 10.8154 7.95996V10.7051H8.07031C7.81105 10.7051 7.59373 10.7928 7.41835 10.9682C7.24296 11.1435 7.15527 11.3609 7.15527 11.6201C7.15527 11.8794 7.24296 12.0967 7.41835 12.2721C7.59373 12.4475 7.81105 12.5352 8.07031 12.5352H10.8154ZM11.7305 20.7705C10.4647 20.7705 9.27511 20.5303 8.16182 20.0499C7.04852 19.5695 6.0801 18.9176 5.25657 18.094C4.43303 17.2705 3.78107 16.3021 3.30067 15.1888C2.82028 14.0755 2.58008 12.8859 2.58008 11.6201C2.58008 10.3543 2.82028 9.16476 3.30067 8.05146C3.78107 6.93817 4.43303 5.96975 5.25657 5.14622C6.0801 4.32268 7.04852 3.67072 8.16182 3.19032C9.27511 2.70992 10.4647 2.46973 11.7305 2.46973C12.9963 2.46973 14.1858 2.70992 15.2991 3.19032C16.4124 3.67072 17.3808 4.32268 18.2044 5.14622C19.0279 5.96975 19.6799 6.93817 20.1603 8.05146C20.6407 9.16476 20.8809 10.3543 20.8809 11.6201C20.8809 12.8859 20.6407 14.0755 20.1603 15.1888C19.6799 16.3021 19.0279 17.2705 18.2044 18.094C17.3808 18.9176 16.4124 19.5695 15.2991 20.0499C14.1858 20.5303 12.9963 20.7705 11.7305 20.7705Z" fill="#1850BC"/>
</g>
</svg>
