<svg width="51" height="51" viewBox="0 0 51 51" fill="none" xmlns="http://www.w3.org/2000/svg">
<mask id="mask0_146_117709" style="mask-type:alpha" maskUnits="userSpaceOnUse" x="0" y="0" width="51" height="51">
<rect x="0.257812" y="0.120117" width="50" height="50" fill="#D9D9D9"/>
</mask>
<g mask="url(#mask0_146_117709)">
<path d="M22.9043 27.2038V33.4538C22.9043 34.0441 23.104 34.5388 23.5033 34.9382C23.9026 35.3375 24.3974 35.5371 24.9876 35.5371C25.5779 35.5371 26.0727 35.3375 26.472 34.9382C26.8713 34.5388 27.071 34.0441 27.071 33.4538V27.2038H33.321C33.9112 27.2038 34.406 27.0041 34.8053 26.6048C35.2046 26.2055 35.4043 25.7107 35.4043 25.1204C35.4043 24.5302 35.2046 24.0354 34.8053 23.6361C34.406 23.2368 33.9112 23.0371 33.321 23.0371H27.071V16.7871C27.071 16.1968 26.8713 15.702 26.472 15.3027C26.0727 14.9034 25.5779 14.7038 24.9876 14.7038C24.3974 14.7038 23.9026 14.9034 23.5033 15.3027C23.104 15.702 22.9043 16.1968 22.9043 16.7871V23.0371H16.6543C16.064 23.0371 15.5692 23.2368 15.1699 23.6361C14.7706 24.0354 14.571 24.5302 14.571 25.1204C14.571 25.7107 14.7706 26.2055 15.1699 26.6048C15.5692 27.0041 16.064 27.2038 16.6543 27.2038H22.9043ZM24.9876 45.9538C22.1057 45.9538 19.3974 45.4069 16.8626 44.3131C14.3279 43.2194 12.123 41.735 10.248 39.86C8.37305 37.985 6.88867 35.7802 5.79492 33.2454C4.70117 30.7107 4.1543 28.0024 4.1543 25.1204C4.1543 22.2385 4.70117 19.5302 5.79492 16.9954C6.88867 14.4607 8.37305 12.2559 10.248 10.3809C12.123 8.50586 14.3279 7.02148 16.8626 5.92773C19.3974 4.83398 22.1057 4.28711 24.9876 4.28711C27.8696 4.28711 30.5779 4.83398 33.1126 5.92773C35.6474 7.02148 37.8522 8.50586 39.7272 10.3809C41.6022 12.2559 43.0866 14.4607 44.1803 16.9954C45.2741 19.5302 45.821 22.2385 45.821 25.1204C45.821 28.0024 45.2741 30.7107 44.1803 33.2454C43.0866 35.7802 41.6022 37.985 39.7272 39.86C37.8522 41.735 35.6474 43.2194 33.1126 44.3131C30.5779 45.4069 27.8696 45.9538 24.9876 45.9538Z" fill="#299B3C"/>
</g>
</svg>
