<svg width="20" height="21" viewBox="0 0 20 21" fill="none" xmlns="http://www.w3.org/2000/svg">
<rect width="19.5478" height="19.5478" transform="translate(0.116943 0.673828)" fill="black"/>
<path d="M17.4502 15.68C17.1669 16.3345 16.8316 16.9369 16.443 17.4908C15.9134 18.2459 15.4798 18.7686 15.1456 19.0588C14.6276 19.5352 14.0725 19.7792 13.4782 19.7931C13.0515 19.7931 12.5369 19.6717 11.9379 19.4254C11.337 19.1802 10.7847 19.0588 10.2797 19.0588C9.75012 19.0588 9.18213 19.1802 8.57458 19.4254C7.96611 19.6717 7.47594 19.8 7.10117 19.8128C6.53121 19.837 5.9631 19.5861 5.39603 19.0588C5.03409 18.7431 4.58138 18.202 4.03906 17.4353C3.45719 16.6166 2.97881 15.6673 2.60404 14.5849C2.20267 13.4159 2.00146 12.2838 2.00146 11.1878C2.00146 9.9324 2.27274 8.8496 2.81611 7.94222C3.24315 7.21337 3.81126 6.63844 4.52229 6.21637C5.23333 5.79431 6.0016 5.57923 6.82897 5.56547C7.28167 5.56547 7.87534 5.7055 8.61309 5.98071C9.34875 6.25685 9.82112 6.39688 10.0282 6.39688C10.1831 6.39688 10.7078 6.23314 11.5974 5.90671C12.4386 5.60398 13.1486 5.47863 13.7303 5.528C15.3063 5.6552 16.4904 6.2765 17.2779 7.39584C15.8683 8.24992 15.1711 9.44615 15.1849 10.9807C15.1977 12.176 15.6313 13.1707 16.4835 13.9605C16.8697 14.3271 17.301 14.6104 17.7809 14.8116C17.6769 15.1134 17.567 15.4025 17.4502 15.68ZM13.8355 1.45583C13.8355 2.39271 13.4932 3.26747 12.811 4.07714C11.9876 5.03968 10.9918 5.59588 9.91189 5.50811C9.89813 5.39572 9.89015 5.27742 9.89015 5.15312C9.89015 4.25371 10.2817 3.29117 10.977 2.50417C11.3241 2.10569 11.7656 1.77437 12.301 1.51006C12.8352 1.2497 13.3406 1.10571 13.8158 1.08105C13.8297 1.2063 13.8355 1.33155 13.8355 1.45582V1.45583Z" fill="white"/>
</svg>
