<svg width="75" height="80" viewBox="0 0 75 80" fill="none" xmlns="http://www.w3.org/2000/svg">
<g clip-path="url(#clip0_314_125250)">
<path d="M74.7612 38.3688C74.4312 35.952 73.1752 33.7538 71.2536 32.2301C69.3319 30.7063 66.8921 29.9739 64.4402 30.1847C63.5448 30.2344 62.6466 30.1842 61.7625 30.0353C61.5237 30.0353 61.3099 29.9107 61.0711 29.8609C63.8216 27.0954 66.4193 24.1846 68.8527 21.1412C75 12.4216 76.76 4.22511 73.0389 1.5843C71.3166 0.338634 68.199 -0.0599783 62.9819 4.73583C62.7402 4.96709 62.6011 5.28402 62.5952 5.61691C62.5893 5.9498 62.7171 6.27138 62.9505 6.5109C63.1839 6.75042 63.5037 6.88826 63.8397 6.8941C64.1756 6.89994 64.5002 6.7733 64.7419 6.54204C67.7213 3.77667 70.2732 2.68048 71.5681 3.60227C73.6926 5.10953 72.2846 11.9358 66.791 19.7087C64.5282 22.8976 55.0997 32.5266 53.1261 34.2207C51.6794 33.2889 50.2861 32.2784 48.9524 31.1937C51.9763 25.0757 55.3336 19.1252 59.0094 13.3683C59.8768 12.1226 60.7694 10.9641 61.6494 9.91779C61.7545 9.79114 61.8334 9.64517 61.8814 9.48826C61.9295 9.33134 61.9458 9.16656 61.9295 9.00338C61.9131 8.8402 61.8644 8.68182 61.7861 8.53733C61.7079 8.39284 61.6016 8.26509 61.4734 8.1614C61.216 7.95489 60.8867 7.85737 60.5572 7.89002C60.2276 7.92268 59.9244 8.08287 59.7134 8.3358C58.7203 9.49426 57.8277 10.6527 56.8849 11.9856C55.942 13.3185 54.3706 16.0714 52.5226 19.198C52.5103 18.4504 52.5735 17.7034 52.7112 16.9682C53.1237 14.5782 52.5835 12.1228 51.2046 10.1196C49.8256 8.11653 47.7156 6.72221 45.3193 6.23062C39.0004 4.89515 32.4407 5.19784 26.2744 7.10942C20.1081 9.021 14.5439 12.4768 10.1199 17.1426C6.59725 20.8405 3.8852 25.2208 2.15439 30.0079C0.423576 34.795 -0.288534 39.8852 0.0628728 44.9583C0.497501 51.5951 2.71824 57.9954 6.49423 63.4938C10.2702 68.9922 15.4636 73.3881 21.5345 76.2245C21.8363 76.3648 22.1819 76.3807 22.4955 76.2686C22.809 76.1564 23.0648 75.9255 23.2065 75.6266C23.3499 75.3306 23.3696 74.9906 23.2613 74.6803C23.153 74.3701 22.9255 74.1148 22.6282 73.9698C16.9667 71.329 12.1222 67.2339 8.59828 62.1101C5.07437 56.9863 2.99963 51.0209 2.58969 44.8337C2.28566 40.1049 2.96286 35.3645 4.5795 30.905C6.19614 26.4456 8.71791 22.3617 11.9892 18.9055C15.2605 15.4493 19.2119 12.694 23.5995 10.8096C27.9872 8.92533 32.718 7.95197 37.5 7.94964C39.9505 7.95129 42.3941 8.20595 44.7913 8.7095C46.5567 9.04889 48.1187 10.0577 49.1448 11.5211C50.1708 12.9845 50.5799 14.7869 50.285 16.5447C50.0063 18.02 49.9723 19.5305 50.1844 21.0167C50.2774 21.5962 50.4033 22.1701 50.5615 22.7357C48.8141 25.9121 47.2679 28.8768 46.6644 30.3218C40.2783 30.1723 39.5994 37.5466 39.1971 38.9293C39.0145 39.626 38.6722 40.2717 38.197 40.8161C37.7217 41.3605 37.1261 41.789 36.4566 42.0684C36.0627 42.2284 35.7214 42.4937 35.4706 42.8346C35.2198 43.1754 35.0694 43.5786 35.0361 43.9992C34.9955 44.4159 35.0743 44.8356 35.2633 45.2101C35.4522 45.5846 35.7438 45.8988 36.1046 46.1168C38.5081 47.6877 41.2985 48.5792 44.1753 48.6953C45.7815 48.6884 47.3657 48.3258 48.8122 47.634C50.2586 46.9421 51.5307 45.9385 52.5352 44.6967C54.2449 42.741 54.5089 39.166 54.006 36.6373L54.1569 36.5376C55.8897 35.0944 57.5352 33.5513 59.0848 31.9162C59.8118 32.1795 60.5605 32.3795 61.3225 32.5141C62.3967 32.7025 63.49 32.7611 64.5785 32.6885C66.3856 32.526 68.1869 33.0549 69.6129 34.1667C71.0389 35.2786 71.9814 36.8891 72.2469 38.6677C72.3978 39.987 72.4734 41.3137 72.4732 42.6414C72.469 47.3776 71.4858 52.0629 69.5842 56.4082C67.6825 60.7534 64.9027 64.6667 61.4163 67.9067C57.9298 71.1466 53.8105 73.6446 49.3124 75.2465C44.8142 76.8484 40.0326 77.5204 35.2623 77.221C33.8757 77.1487 32.4946 76.9948 31.1264 76.7601C30.793 76.699 30.4487 76.7716 30.1694 76.962C30.031 77.0563 29.9128 77.1766 29.8214 77.3162C29.73 77.4557 29.6672 77.6117 29.6367 77.7753C29.6062 77.9389 29.6084 78.1068 29.6434 78.2696C29.6784 78.4323 29.7453 78.5866 29.8405 78.7236C30.0326 79.0005 30.3279 79.1903 30.6613 79.2514C32.1325 79.518 33.6186 79.6969 35.1115 79.7871C35.9496 79.8369 36.7541 79.8618 37.5252 79.8618C47.0631 79.8943 56.2473 76.2854 63.1705 69.7844C66.8982 66.3057 69.8701 62.1096 71.9042 57.4531C73.9383 52.7966 74.9917 47.7777 75 42.7037C74.9995 41.2555 74.9198 39.8084 74.7612 38.3688ZM38.2291 43.9618C39.4794 43.2317 40.475 42.1409 41.0828 40.8352C41.3622 41.1656 41.5832 41.5404 41.7365 41.9438C42.0753 42.8396 42.6747 43.6156 43.4588 44.1735C43.9508 44.4568 44.5036 44.6204 45.0719 44.6507C45.6401 44.681 46.2074 44.5772 46.7273 44.3479C47.0214 44.2109 47.2504 43.9663 47.3665 43.6655C47.4825 43.3647 47.4765 43.0311 47.3496 42.7346C47.2228 42.4381 46.985 42.2018 46.6862 42.0753C46.3873 41.9488 46.0506 41.9418 45.7467 42.0559C43.8233 42.8531 44.4896 39.5646 41.8371 38.3812C42.6416 33.847 44.829 32.6387 46.8656 32.8255C48.4607 33.9484 49.9847 35.1673 51.4289 36.4753C51.6561 37.2866 51.7703 38.1248 51.7684 38.9667C51.5457 38.8096 51.2997 38.6877 51.0392 38.6054C49.9078 38.2691 48.525 38.6802 47.3936 40.3494C47.2101 40.622 47.1424 40.9553 47.2052 41.2771C47.268 41.5989 47.4562 41.8831 47.7291 42.0683C48.002 42.2535 48.3375 42.3247 48.663 42.2664C48.9884 42.2081 49.2776 42.0251 49.4678 41.757C49.6061 41.5452 50.0713 40.9099 50.3227 40.9971C50.5741 41.0843 50.6747 41.4206 50.813 41.6324C50.9329 41.8258 51.063 42.0129 51.2027 42.1929C51.0786 42.5126 50.9047 42.8111 50.6872 43.0774C49.913 44.0401 48.9331 44.8209 47.8181 45.3637C46.703 45.9064 45.4804 46.1977 44.2382 46.2164C41.9225 46.1321 39.671 45.44 37.7137 44.2109L38.2291 43.9618Z" fill="#9747FF"/>
<path d="M39.8257 19.8704C39.8346 17.9465 39.0754 16.0972 37.7137 14.7258C37.5968 14.6091 37.4578 14.5164 37.3046 14.4532C37.1514 14.3899 36.9871 14.3574 36.8211 14.3574C36.6552 14.3574 36.4909 14.3899 36.3377 14.4532C36.1845 14.5164 36.0454 14.6091 35.9286 14.7258C35.6944 14.9592 35.563 15.2749 35.563 15.604C35.563 15.9331 35.6944 16.2488 35.9286 16.4822C36.7478 17.2945 37.2457 18.3712 37.3317 19.5164C37.4177 20.6617 37.0861 21.7994 36.3971 22.7229C35.7082 23.6464 34.7077 24.2943 33.5776 24.5488C32.4474 24.8033 31.2626 24.6475 30.2386 24.1097C29.2145 23.5719 28.4193 22.6878 27.9973 21.6182C27.5754 20.5486 27.5548 19.3645 27.9393 18.2811C28.3238 17.1978 29.0879 16.2871 30.0926 15.7147C31.0973 15.1422 32.276 14.9461 33.4143 15.1618C33.5794 15.1921 33.7489 15.1898 33.9131 15.1552C34.0773 15.1205 34.233 15.0542 34.3714 14.9599C34.5097 14.8656 34.6279 14.7453 34.7193 14.6057C34.8107 14.4662 34.8735 14.3102 34.904 14.1466C34.9346 13.983 34.9323 13.8151 34.8973 13.6523C34.8624 13.4896 34.7954 13.3353 34.7003 13.1983C34.6051 13.0612 34.4837 12.944 34.3428 12.8535C34.202 12.7629 34.0446 12.7007 33.8795 12.6705C32.393 12.3858 30.854 12.5627 29.4727 13.177C28.0914 13.7913 26.9352 14.8131 26.1618 16.1028C25.3884 17.3925 25.0356 18.8873 25.1515 20.3831C25.2674 21.8789 25.8464 23.3029 26.8094 24.4605C27.7725 25.618 29.0726 26.4529 30.5323 26.8511C31.9921 27.2492 33.5402 27.1912 34.9655 26.685C36.3907 26.1788 37.6235 25.2491 38.4956 24.0227C39.3677 22.7964 39.8366 21.3333 39.8382 19.833L39.8257 19.8704Z" fill="#9747FF"/>
<path d="M23.081 37.8078C23.2362 37.8655 23.4013 37.8923 23.5669 37.8866C23.7326 37.8809 23.8954 37.8428 24.0461 37.7745C24.1968 37.7062 24.3324 37.6091 24.4451 37.4886C24.5578 37.3682 24.6453 37.2269 24.7027 37.0728C25.284 35.4934 25.2944 33.7631 24.7319 32.1771C24.1695 30.591 23.0692 29.2474 21.6186 28.3754C20.168 27.5035 18.4571 27.1572 16.7777 27.3957C15.0982 27.6342 13.5543 28.4426 12.4092 29.6832C11.2642 30.9237 10.5889 32.5194 10.4987 34.1982C10.4084 35.8769 10.9087 37.5347 11.9143 38.8888C12.9199 40.2428 14.3684 41.2092 16.0127 41.6231C17.6571 42.0371 19.3955 41.8729 20.9313 41.1586C21.2347 41.0198 21.4701 40.7673 21.5856 40.4566C21.7011 40.1459 21.6874 39.8025 21.5473 39.5019C21.4073 39.2012 21.1525 38.968 20.8389 38.8536C20.5254 38.7391 20.1788 38.7527 19.8753 38.8915C19.2447 39.1796 18.5584 39.3283 17.8639 39.3275C16.8359 39.3271 15.8347 39.0015 15.0064 38.3981C14.1781 37.7947 13.5658 36.945 13.2587 35.9728C12.9516 35.0006 12.9658 33.9567 13.2992 32.993C13.6326 32.0293 14.2678 31.1963 15.1122 30.6152C15.9566 30.0342 16.9662 29.7354 17.994 29.7625C19.0217 29.7895 20.0138 30.141 20.8259 30.7657C21.638 31.3904 22.2276 32.2557 22.5089 33.2355C22.7901 34.2154 22.7484 35.2586 22.3896 36.2133C22.2729 36.516 22.2799 36.8518 22.409 37.1495C22.5381 37.4472 22.7791 37.6833 23.081 37.8078Z" fill="#9747FF"/>
<path d="M25.1427 52.2449C24.8093 52.2449 24.4895 52.3761 24.2538 52.6097C24.018 52.8433 23.8856 53.1602 23.8856 53.4905C23.8881 54.4401 23.606 55.3691 23.0751 56.1596C22.5443 56.9502 21.7885 57.5668 20.9036 57.9314C20.0187 58.2959 19.0445 58.3919 18.1045 58.2072C17.1645 58.0226 16.301 57.5656 15.6233 56.8941C14.9457 56.2227 14.4845 55.367 14.2981 54.4356C14.1118 53.5041 14.2087 52.5388 14.5766 51.662C14.9444 50.7851 15.5667 50.0363 16.3646 49.5102C17.1624 48.9842 18.0999 48.7047 19.0582 48.7072C20.2935 48.7016 21.483 49.1704 22.377 50.0151C22.4939 50.1319 22.6329 50.2246 22.7861 50.2878C22.9393 50.3511 23.1036 50.3836 23.2696 50.3836C23.4355 50.3836 23.5999 50.3511 23.753 50.2878C23.9062 50.2246 24.0453 50.1319 24.1621 50.0151C24.3963 49.7818 24.5277 49.466 24.5277 49.137C24.5277 48.8079 24.3963 48.4921 24.1621 48.2588C23.1189 47.2809 21.8095 46.6272 20.3956 46.3781C18.9817 46.1291 17.5252 46.2956 16.2058 46.8573C14.8863 47.4189 13.7617 48.3511 12.9706 49.5387C12.1796 50.7263 11.7568 52.1174 11.7543 53.5404C11.7134 54.5219 11.8731 55.5014 12.2239 56.4202C12.5747 57.3389 13.1093 58.1779 13.7956 58.8868C14.482 59.5956 15.3059 60.1596 16.2178 60.5448C17.1297 60.9301 18.1109 61.1287 19.1022 61.1287C20.0936 61.1287 21.0747 60.9301 21.9866 60.5448C22.8985 60.1596 23.7224 59.5956 24.4088 58.8868C25.0951 58.1779 25.6298 57.3389 25.9806 56.4202C26.3314 55.5014 26.4911 54.5219 26.4501 53.5404C26.4572 53.3684 26.4282 53.1968 26.365 53.0364C26.3019 52.8761 26.2058 52.7304 26.083 52.6087C25.9601 52.487 25.8131 52.3918 25.6513 52.3292C25.4895 52.2666 25.3163 52.2379 25.1427 52.2449Z" fill="#9747FF"/>
<path d="M36.9848 70.8554C37.3182 70.8554 37.638 70.7242 37.8737 70.4906C38.1095 70.257 38.2419 69.9401 38.2419 69.6098C38.2419 69.2794 38.1095 68.9625 37.8737 68.7289C37.638 68.4953 37.3182 68.3641 36.9848 68.3641C36.027 68.3666 35.09 68.0874 34.2925 67.5619C33.4949 67.0364 32.8726 66.2883 32.5043 65.4122C32.1361 64.5361 32.0384 63.5714 32.2238 62.6403C32.4091 61.7092 32.8691 60.8535 33.5454 60.1816C34.2218 59.5096 35.0842 59.0516 36.0234 58.8656C36.9626 58.6795 37.9364 58.7737 38.8215 59.1364C39.7066 59.499 40.4632 60.1137 40.9956 60.9026C41.528 61.6915 41.8121 62.6192 41.8122 63.5683C41.817 64.2183 41.6867 64.8624 41.4293 65.4603C41.1719 66.0582 40.793 66.5972 40.3162 67.0437C40.0745 67.2716 39.934 67.5854 39.9258 67.916C39.9175 68.2465 40.0421 68.5668 40.2722 68.8063C40.5022 69.0458 40.8189 69.185 41.1525 69.1932C41.4861 69.2013 41.8093 69.0779 42.051 68.8499C43.2911 67.6817 44.0814 66.1217 44.2857 64.4383C44.4899 62.755 44.0954 61.0537 43.1701 59.6276C42.2448 58.2014 40.8465 57.1396 39.2162 56.625C37.5858 56.1104 35.8254 56.1752 34.2381 56.8083C32.6508 57.4414 31.3359 58.6031 30.52 60.0933C29.704 61.5836 29.438 63.3092 29.7678 64.9728C30.0975 66.6365 31.0025 68.1342 32.3267 69.2079C33.6509 70.2817 35.3115 70.8643 37.0225 70.8554H36.9848Z" fill="#9747FF"/>
<path d="M57.4 50.7252C58.5457 50.725 59.6546 51.1266 60.5302 51.8588C60.6564 51.9644 60.8025 52.0443 60.9599 52.0939C61.1173 52.1436 61.2831 52.162 61.4477 52.1481C61.6124 52.1342 61.7726 52.0883 61.9193 52.013C62.066 51.9377 62.1963 51.8345 62.3027 51.7093C62.4093 51.5842 62.49 51.4395 62.5401 51.2835C62.5902 51.1275 62.6087 50.9632 62.5947 50.8001C62.5807 50.637 62.5344 50.4782 62.4584 50.3328C62.3824 50.1875 62.2783 50.0584 62.1519 49.9529C60.8753 48.8771 59.2663 48.2656 57.5911 48.2196C55.916 48.1736 54.2752 48.6959 52.9405 49.6999C51.6058 50.704 50.6572 52.1296 50.2517 53.7408C49.8463 55.352 50.0083 57.0521 50.711 58.5595C51.4137 60.067 52.6148 61.2915 54.1157 62.0302C55.6165 62.7689 57.3269 62.9776 58.9638 62.6217C60.6006 62.2658 62.0657 61.3666 63.1164 60.073C64.1671 58.7794 64.7405 57.1691 64.7416 55.5086C64.7391 55.0279 64.6929 54.5485 64.6033 54.0761C64.5711 53.9125 64.5067 53.7568 64.4138 53.6179C64.3209 53.4789 64.2012 53.3595 64.0617 53.2664C63.9222 53.1733 63.7656 53.1083 63.6007 53.0752C63.4359 53.042 63.2661 53.0414 63.101 53.0733C62.9359 53.1052 62.7788 53.169 62.6386 53.2611C62.4984 53.3531 62.3779 53.4717 62.2839 53.6099C62.1899 53.7481 62.1243 53.9033 62.0909 54.0667C62.0575 54.23 62.0568 54.3983 62.089 54.5619C62.1494 54.8738 62.1789 55.1909 62.177 55.5086C62.1795 56.4581 61.8974 57.3871 61.3666 58.1777C60.8357 58.9682 60.08 59.5848 59.1951 59.9494C58.3102 60.3139 57.336 60.4099 56.396 60.2253C55.4559 60.0406 54.5924 59.5836 53.9148 58.9122C53.2371 58.2407 52.7759 57.385 52.5896 56.4536C52.4032 55.5221 52.5001 54.5568 52.868 53.68C53.2359 52.8032 53.8582 52.0543 54.656 51.5283C55.4539 51.0022 56.3914 50.7228 57.3497 50.7252H57.4Z" fill="#9747FF"/>
</g>
<defs>
<clipPath id="clip0_314_125250">
<rect width="75" height="79" fill="white" transform="translate(0 0.774414)"/>
</clipPath>
</defs>
</svg>
