<svg width="16" height="15" viewBox="0 0 16 15" fill="none" xmlns="http://www.w3.org/2000/svg">
<path d="M8 4.975C8.33137 4.975 8.6 4.70637 8.6 4.375C8.6 4.04363 8.33137 3.775 8 3.775V4.975ZM3.3125 6.71875L2.71776 6.63945L3.3125 6.71875ZM2.56151 7.81133C2.51772 8.13979 2.74849 8.44157 3.07695 8.48536C3.40542 8.52916 3.70719 8.29839 3.75099 7.96992L2.56151 7.81133ZM3.43849 10.3137C3.48228 9.98521 3.25151 9.68343 2.92305 9.63964C2.59458 9.59584 2.29281 9.82661 2.24901 10.1551L3.43849 10.3137ZM12.0694 6.62261L12.6529 10.9989L13.8423 10.8403L13.2588 6.46401L12.0694 6.62261ZM10.7695 13.15H5.23046V14.35H10.7695V13.15ZM5.81379 4.975H8V3.775H5.81379V4.975ZM3.90724 6.79805L3.93046 6.62389L2.74098 6.46529L2.71776 6.63945L3.90724 6.79805ZM3.75099 7.96992L3.90724 6.79805L2.71776 6.63945L2.56151 7.81133L3.75099 7.96992ZM3.34712 10.9989L3.43849 10.3137L2.24901 10.1551L2.15765 10.8403L3.34712 10.9989ZM5.23046 13.15C4.08136 13.15 3.19526 12.1379 3.34712 10.9989L2.15765 10.8403C1.90986 12.6987 3.35561 14.35 5.23046 14.35V13.15ZM12.6529 10.9989C12.8047 12.1379 11.9186 13.15 10.7695 13.15V14.35C12.6444 14.35 14.0901 12.6987 13.8423 10.8403L12.6529 10.9989ZM13.2588 6.46401C13.0536 4.92465 11.7405 3.775 10.1875 3.775V4.975C11.139 4.975 11.9436 5.67941 12.0694 6.62261L13.2588 6.46401ZM5.81379 3.775C4.26006 3.775 2.94633 4.92519 2.74098 6.46529L3.93046 6.62389C4.05632 5.67996 4.86151 4.975 5.81379 4.975V3.775Z" fill="#1C8827"/>
<path d="M10.5 5.625V3.75C10.5 2.36929 9.38071 1.25 8 1.25V1.25C6.61929 1.25 5.5 2.36929 5.5 3.75L5.5 5.625" stroke="#1C8827" stroke-width="1.2" stroke-linecap="round"/>
</svg>
