<svg width="17" height="20" viewBox="0 0 17 20" fill="none" xmlns="http://www.w3.org/2000/svg">
<path d="M5.51851 2.59164C6.34777 2.04541 7.34079 1.72754 8.40805 1.72754C11.3129 1.72754 13.6678 4.08241 13.6678 6.98729V8.79546C13.6678 9.74626 14.2805 10.5778 14.7675 11.3944C15.0235 11.8237 15.1706 12.3255 15.1706 12.8616C15.1706 14.2467 14.181 15.435 12.8091 15.6253C11.4466 15.8142 9.74424 16.0042 8.40804 16.0042C7.07184 16.0042 5.36944 15.8142 4.00702 15.6253C2.63508 15.435 1.64551 14.2467 1.64551 12.8616C1.64551 12.3255 1.79258 11.8237 2.04858 11.3944C2.53558 10.5778 3.1483 9.74625 3.1483 8.79544V6.98729C3.1483 6.26907 3.29225 5.58447 3.55288 4.96077" stroke="#616161" stroke-width="1.7282" stroke-linecap="round"/>
<path d="M10.2861 18.002C9.88229 18.6093 9.19172 19.0096 8.40765 19.0096C7.62359 19.0096 6.93302 18.6093 6.52918 18.002" stroke="#616161" stroke-width="1.7282" stroke-linecap="round"/>
</svg>
