<svg width="75" height="92" viewBox="0 0 75 92" fill="none" xmlns="http://www.w3.org/2000/svg">
<g clip-path="url(#clip0_314_125263)">
<path d="M42.981 27.88C42.9946 28.7012 43.2481 29.5001 43.7096 30.1763C44.1712 30.8526 44.8202 31.3759 45.5753 31.6808C46.3303 31.9856 47.1577 32.0583 47.9535 31.8897C48.7493 31.7211 49.4781 31.3188 50.0483 30.7332C50.6185 30.1477 51.0047 29.405 51.1584 28.5984C51.3121 27.7919 51.2265 26.9574 50.9123 26.1999C50.5981 25.4423 50.0693 24.7954 49.3923 24.3405C48.7153 23.8855 47.9203 23.6427 47.1072 23.6426C46.5595 23.6425 46.0173 23.7526 45.5121 23.9664C45.007 24.1801 44.549 24.4934 44.165 24.8878C43.7809 25.2822 43.4784 25.7499 43.2752 26.2636C43.0719 26.7774 42.9719 27.3268 42.981 27.88ZM49.2941 27.88C49.305 28.3081 49.1894 28.7298 48.9618 29.0911C48.7343 29.4525 48.4053 29.7371 48.0169 29.9087C47.6284 30.0802 47.1982 30.1309 46.7811 30.0542C46.364 29.9775 45.979 29.7769 45.6753 29.478C45.3716 29.1792 45.1631 28.7957 45.0763 28.3765C44.9894 27.9574 45.0283 27.5216 45.1879 27.1248C45.3475 26.7281 45.6206 26.3884 45.9723 26.1493C46.324 25.9101 46.7383 25.7823 47.1622 25.7821C47.7182 25.7819 48.2523 26.0012 48.6506 26.3931C49.0488 26.785 49.2797 27.3185 49.2941 27.88Z" fill="#03A285"/>
<path d="M73.9685 89.6903H56.2397V87.3145C56.236 86.1378 55.7707 85.0106 54.9457 84.1799C54.1207 83.3491 53.0033 82.8826 51.8384 82.8826H45.4704L44.989 82.2852C50.5712 80.3138 55.497 76.8058 59.2105 72.1571H71.6578C71.9314 72.1571 72.1938 72.0473 72.3872 71.8519C72.5807 71.6565 72.6893 71.3915 72.6893 71.1151V66.197C72.6893 65.2242 72.3068 64.2913 71.6258 63.6035C70.9449 62.9156 70.0213 62.5292 69.0583 62.5292H64.492C64.2184 62.5292 63.9561 62.639 63.7626 62.8344C63.5692 63.0298 63.4605 63.2948 63.4605 63.5712C63.4605 63.8475 63.5692 64.1126 63.7626 64.308C63.9561 64.5034 64.2184 64.6132 64.492 64.6132H69.0583C69.4742 64.6132 69.873 64.78 70.167 65.077C70.4611 65.3741 70.6263 65.7769 70.6263 66.197V70.0732H40.9178V66.197C40.9356 65.7891 41.1086 65.4039 41.4007 65.1217C41.6929 64.8395 42.0816 64.6822 42.4858 64.6826H61.0123C61.2859 64.6826 61.5482 64.5728 61.7417 64.3774C61.9352 64.182 62.0438 63.917 62.0438 63.6406C62.0438 63.3643 61.9352 63.0993 61.7417 62.9038C61.5482 62.7084 61.2859 62.5987 61.0123 62.5987H42.4858C41.5228 62.5987 40.5992 62.9851 39.9183 63.6729C39.2373 64.3608 38.8548 65.2937 38.8548 66.2664V71.1846C38.8583 71.4598 38.9681 71.7228 39.1608 71.9174C39.3535 72.1121 39.6138 72.223 39.8863 72.2266H43.7099C41.8664 73.0919 39.9131 73.6951 37.9057 74.0188C36.0294 72.403 33.6588 71.4903 31.1938 71.4347C29.3855 71.4136 27.5998 71.843 25.9949 72.6851C20.9262 70.6081 16.7952 66.7139 14.3941 61.7495C11.993 56.7852 11.4909 51.1001 12.9841 45.7848C14.4773 40.4694 17.8607 35.8981 22.4853 32.9476C27.1099 29.9971 32.6501 28.8752 38.0433 29.797C38.4441 31.8026 39.4814 33.6215 40.9979 34.9779C42.5144 36.3343 44.4275 37.1541 46.4469 37.3132L47.6848 43.3011C47.8883 44.2133 48.3896 45.0298 49.108 45.6194C49.8265 46.2091 50.7203 46.5376 51.6459 46.5521C51.923 46.5512 52.1993 46.5233 52.4711 46.4687L52.8837 46.3715L53.5027 49.3307C53.5305 49.4649 53.5842 49.5923 53.6608 49.7054C53.7374 49.8186 53.8354 49.9154 53.9491 49.9903C54.0628 50.0651 54.1901 50.1166 54.3235 50.1417C54.457 50.1668 54.594 50.165 54.7268 50.1365C54.9933 50.0765 55.2259 49.9135 55.375 49.6824C55.5241 49.4514 55.5777 49.1705 55.5245 48.9L54.9056 45.9408L61.7825 44.5515L63.4742 52.679C63.4943 52.7757 63.4953 52.8755 63.4772 52.9726C63.459 53.0697 63.422 53.1622 63.3683 53.2448C63.3146 53.3274 63.2453 53.3985 63.1644 53.454C63.0834 53.5095 62.9924 53.5483 62.8966 53.5681L57.4913 54.7074C57.3023 54.7456 57.106 54.7109 56.9411 54.6101C56.7782 54.5009 56.6646 54.3311 56.6248 54.1377L56.1847 52.026C56.1586 51.8909 56.1059 51.7625 56.0298 51.6483C55.9536 51.5342 55.8556 51.4366 55.7414 51.3615C55.6272 51.2863 55.4993 51.2351 55.3652 51.2108C55.231 51.1866 55.0935 51.1897 54.9606 51.2202C54.6951 51.277 54.4626 51.4372 54.3133 51.6661C54.164 51.8949 54.1099 52.174 54.1628 52.4428L54.603 54.5545C54.7584 55.2874 55.1936 55.9288 55.8141 56.3397C56.4345 56.7506 57.1904 56.8979 57.9177 56.7496L63.2679 55.4854C63.6285 55.4174 63.972 55.2773 64.2782 55.0733C64.5844 54.8693 64.8471 54.6055 65.0509 54.2974C65.2546 53.9893 65.3953 53.6432 65.4647 53.2793C65.5341 52.9155 65.5307 52.5413 65.4548 52.1788L63.7768 44.0513L64.1894 43.968C64.7094 43.8589 65.2029 43.6472 65.6416 43.3448C66.0803 43.0425 66.4555 42.6555 66.7456 42.2062C67.0358 41.7569 67.2351 41.2541 67.3322 40.7268C67.4294 40.1994 67.4223 39.6578 67.3116 39.1332L66.1562 33.5759C66.1302 33.4408 66.0775 33.3124 66.0013 33.1982C65.9252 33.0841 65.8271 32.9865 65.713 32.9114C65.5988 32.8362 65.4709 32.785 65.3368 32.7607C65.2026 32.7365 65.065 32.7397 64.9321 32.7701C64.7998 32.7966 64.6741 32.8493 64.5621 32.9254C64.4502 33.0014 64.3543 33.0991 64.2801 33.2128C64.2059 33.3266 64.1548 33.4541 64.1298 33.588C64.1047 33.7219 64.1063 33.8594 64.1344 33.9927L65.2897 39.55C65.346 39.8065 65.351 40.0718 65.3044 40.3303C65.2577 40.5888 65.1605 40.8353 65.0183 41.0553C64.876 41.2753 64.6918 41.4644 64.4762 41.6115C64.2607 41.7585 64.0182 41.8606 63.7631 41.9118L52.0447 44.3987C51.5324 44.5057 50.9989 44.4036 50.5608 44.1146C50.1227 43.8257 49.8156 43.3734 49.7066 42.8565L48.5375 37.2159C49.5492 37.062 50.5293 36.7429 51.4396 36.2712C51.6689 36.1368 51.8382 35.9183 51.9123 35.6611C51.9864 35.4039 51.9597 35.1278 51.8376 34.8901C51.7154 34.6523 51.5074 34.4712 51.2566 34.3843C51.0057 34.2974 50.7314 34.3114 50.4906 34.4234C49.463 34.9644 48.3209 35.2457 47.1621 35.2431C45.7285 35.2431 44.3271 34.8137 43.1352 34.0092C41.9432 33.2046 41.0142 32.0612 40.4656 30.7233C39.9169 29.3854 39.7734 27.9133 40.0531 26.493C40.3328 25.0727 41.0231 23.7681 42.0368 22.7442C43.0505 21.7202 44.342 21.0229 45.748 20.7404C47.1541 20.4579 48.6115 20.6029 49.9359 21.1571C51.2604 21.7112 52.3924 22.6497 53.1889 23.8537C53.9853 25.0577 54.4104 26.4733 54.4104 27.9214C54.4052 29.285 54.0293 30.621 53.3239 31.7837C53.2037 32.0166 53.1751 32.2868 53.2436 32.5401C53.3122 32.7934 53.473 33.0113 53.6938 33.15C53.9146 33.2887 54.1791 33.3381 54.4344 33.2883C54.6896 33.2384 54.9169 33.0931 55.0706 32.8813C55.9456 31.4571 56.428 29.8225 56.4678 28.1468C56.5076 26.4711 56.1033 24.8152 55.2968 23.3502C54.4904 21.8853 53.311 20.6647 51.8808 19.8148C50.4506 18.9648 48.8215 18.5163 47.1621 18.5158C46.3397 18.5185 45.5211 18.6306 44.7277 18.8492L44.2738 16.7096C44.1679 16.1884 44.2705 15.6461 44.5591 15.201C44.8477 14.7558 45.2989 14.4442 45.8142 14.3339L57.5326 11.8887C57.7864 11.8338 58.0485 11.8302 58.3037 11.8782C58.5589 11.9261 58.8022 12.0246 59.0196 12.1679C59.2369 12.3113 59.4241 12.4967 59.5701 12.7134C59.7162 12.9302 59.8184 13.174 59.8707 13.4309L63.4055 30.3805C63.4315 30.5156 63.4842 30.644 63.5604 30.7582C63.6365 30.8723 63.7346 30.9698 63.8487 31.045C63.9629 31.1201 64.0908 31.1714 64.225 31.1956C64.3591 31.2199 64.4967 31.2167 64.6296 31.1863C64.895 31.1294 65.1275 30.9692 65.2769 30.7404C65.4262 30.5116 65.4802 30.2325 65.4273 29.9637L61.8925 12.9307C61.6712 11.8717 61.0428 10.9448 60.1453 10.3535C59.2479 9.76219 58.1548 9.55483 57.1062 9.77698L55.8821 10.0409L55.3182 7.33178L56.391 7.10949C57.2125 6.93262 57.9313 6.4343 58.3901 5.72353C58.8489 5.01275 59.0103 4.14738 58.8392 3.31667C58.6576 2.49047 58.1628 1.76897 57.461 1.30673C56.7592 0.844496 55.906 0.67828 55.0844 0.843694L43.6686 3.2611C42.8461 3.44533 42.1296 3.95209 41.6769 4.6699C41.2243 5.38771 41.0724 6.25776 41.2548 7.08866C41.4372 7.91955 41.9389 8.64323 42.6495 9.10049C43.3601 9.55775 44.2214 9.71113 45.044 9.5269L46.1168 9.29072L46.6807 12.0693L45.3879 12.2638C44.3399 12.4845 43.4213 13.1158 42.8334 14.0196C42.2456 14.9233 42.0365 16.0256 42.252 17.0848L42.7746 19.5855C42.3732 19.8141 41.9872 20.0694 41.6193 20.3496C35.6188 18.9202 29.3368 19.2773 23.5329 21.3777C23.4019 21.4214 23.281 21.4911 23.1772 21.5829C23.0733 21.6746 22.9888 21.7864 22.9285 21.9117C22.8682 22.037 22.8334 22.1732 22.8261 22.3123C22.8188 22.4515 22.8393 22.5906 22.8862 22.7216C22.9331 22.8527 23.0055 22.9728 23.0992 23.0751C23.1929 23.1773 23.3059 23.2595 23.4316 23.3169C23.5573 23.3742 23.6931 23.4055 23.831 23.4089C23.9689 23.4123 24.1061 23.3877 24.2344 23.3367C29.2478 21.517 34.652 21.0852 39.8863 22.0863C38.6522 23.6747 37.962 25.6249 37.9195 27.6435C32.1847 26.8137 26.3453 28.0854 21.4584 31.2283C16.5715 34.3711 12.96 39.1775 11.2778 44.7773C9.59559 50.3772 9.95377 56.4003 12.2875 61.7565C14.6213 67.1126 18.7763 71.4478 24.0006 73.9771C23.6427 74.276 23.3071 74.601 22.9965 74.9496C22.8418 75.1578 22.7698 75.4169 22.7947 75.6759C22.8196 75.9349 22.9396 76.1752 23.131 76.3494C23.3224 76.5236 23.5715 76.6191 23.8291 76.6172C24.0868 76.6153 24.3344 76.516 24.5232 76.339C25.3648 75.4133 26.3903 74.6775 27.5326 74.1796C28.675 73.6816 29.9085 73.4327 31.1526 73.4492C32.3998 73.4752 33.6267 73.7729 34.7495 74.322C35.8722 74.8711 36.8644 75.6586 37.6582 76.6307L42.7884 82.8826H19.1454L22.4739 78.8258C22.6563 78.6121 22.7471 78.334 22.7265 78.0526C22.7059 77.7712 22.5754 77.5096 22.3638 77.3254C22.1523 77.1411 21.8769 77.0493 21.5983 77.0702C21.3198 77.091 21.0608 77.2228 20.8784 77.4365L20.1082 78.3812C15.3306 75.7785 11.343 71.9133 8.57143 67.1988C5.79987 62.4844 4.34854 57.0978 4.37255 51.6148C4.39656 46.1317 5.89501 40.7584 8.70776 36.0688C11.5205 31.3793 15.5418 27.55 20.342 24.99C20.5582 24.8481 20.7139 24.6296 20.7786 24.3775C20.8433 24.1255 20.8121 23.8581 20.6914 23.628C20.5706 23.398 20.3689 23.2219 20.1261 23.1346C19.8832 23.0472 19.6168 23.0549 19.3792 23.1561C14.2796 25.8734 10.0013 29.9319 6.99659 34.9026C3.99183 39.8732 2.37218 45.5715 2.30878 51.3952C2.24538 57.2189 3.74058 62.9518 6.63639 67.988C9.5322 73.0242 13.7211 77.1767 18.7603 80.0067L16.5047 82.8826H10.0954C8.93173 82.8826 7.81575 83.3496 6.99293 84.1807C6.17012 85.0118 5.70787 86.1391 5.70787 87.3145V89.6903H1.03154C0.75796 89.6903 0.495583 89.8 0.302132 89.9955C0.10868 90.1909 0 90.4559 0 90.7322C0 91.0086 0.10868 91.2736 0.302132 91.469C0.495583 91.6645 0.75796 91.7742 1.03154 91.7742H73.9272C74.2008 91.7742 74.4632 91.6645 74.6566 91.469C74.8501 91.2736 74.9587 91.0086 74.9587 90.7322C74.9587 90.4559 74.8501 90.1909 74.6566 89.9955C74.4632 89.8 74.2008 89.6903 73.9272 89.6903H73.9685ZM44.5489 7.48461C44.2719 7.51849 43.9924 7.44614 43.7657 7.28187C43.5389 7.11761 43.3815 6.87339 43.3244 6.5975C43.2674 6.32161 43.3149 6.03415 43.4576 5.79195C43.6003 5.54975 43.8277 5.37044 44.095 5.2895L55.5107 2.87209C55.7877 2.83821 56.0672 2.91056 56.2939 3.07483C56.5207 3.23909 56.6781 3.48331 56.7352 3.7592C56.7922 4.03509 56.7447 4.32255 56.602 4.56475C56.4593 4.80696 56.2319 4.98626 55.9646 5.0672L44.5489 7.48461ZM48.675 11.5692L48.1386 8.86003L53.2964 7.72079L53.8603 10.4994L48.675 11.5692ZM39.5975 75.7971C42.5445 75.1368 45.3433 73.9258 47.8498 72.2266H56.501C52.9997 76.1198 48.5526 79.022 43.5999 80.6458L39.5975 75.7971ZM7.77095 89.6903V87.3145C7.77095 86.6918 8.01584 86.0946 8.45176 85.6543C8.88767 85.214 9.47889 84.9666 10.0954 84.9666H51.8384C52.4562 84.9666 53.0488 85.2135 53.4869 85.6534C53.925 86.0934 54.173 86.6906 54.1766 87.3145V89.6903H7.77095Z" fill="#03A285"/>
</g>
<defs>
<clipPath id="clip0_314_125263">
<rect width="75" height="91" fill="white" transform="translate(0 0.774414)"/>
</clipPath>
</defs>
</svg>
