<svg width="25" height="24" viewBox="0 0 25 24" fill="none" xmlns="http://www.w3.org/2000/svg">
<path d="M12.5 4.11745V20.9906M12.5 4.11745L13.6001 3.70461C16.1036 2.76513 18.8964 2.76513 21.3999 3.70461C22.0643 3.95395 22.5 4.55769 22.5 5.22907V19.0797C22.5 20.0016 21.5075 20.632 20.5951 20.2896C18.6082 19.544 16.3918 19.544 14.4049 20.2896L12.5137 20.9993C12.5071 21.0018 12.5 20.9972 12.5 20.9906M12.5 4.11745L11.3999 3.70461C8.89638 2.76513 6.10362 2.76513 3.60014 3.70461C2.93569 3.95395 2.5 4.55769 2.5 5.22907V9.69174M12.5 20.9906C12.5 20.9972 12.4929 21.0018 12.4863 20.9993L10.5951 20.2896C8.60825 19.544 6.39175 19.544 4.40485 20.2896C3.49247 20.632 2.5 20.0016 2.5 19.0797V13.6171" stroke="#616161" stroke-width="1.5" stroke-linecap="round"/>
</svg>
