<svg width="25" height="24" viewBox="0 0 25 24" fill="none" xmlns="http://www.w3.org/2000/svg">
<path d="M2.5 6.16667L11.7308 2.32051C12.2231 2.11538 12.7769 2.11538 13.2692 2.32051L17.5 4.08333L22.5 6.16667M2.5 6.16667L7.5 8.25M2.5 6.16667V10.5M12.5 10.3333V22M12.5 10.3333L22.5 6.16667M12.5 10.3333L7.5 8.25M12.5 22L3.11538 18.0897C2.74274 17.9345 2.5 17.5704 2.5 17.1667V13.5M12.5 22L21.8846 18.0897C22.2573 17.9345 22.5 17.5704 22.5 17.1667V6.16667M7.5 8.25L14 5.5" stroke="black" stroke-width="1.5" stroke-linecap="round" stroke-linejoin="round"/>
</svg>
