<svg width="13" height="12" viewBox="0 0 13 12" fill="none" xmlns="http://www.w3.org/2000/svg">
<path d="M3.9707 6.79655H8.59049C8.75411 6.79655 8.89126 6.7412 9.00194 6.63052C9.11262 6.51984 9.16796 6.38269 9.16796 6.21907C9.16796 6.05545 9.11262 5.9183 9.00194 5.80762C8.89126 5.69694 8.75411 5.6416 8.59049 5.6416H3.9707C3.80708 5.6416 3.66993 5.69694 3.55925 5.80762C3.44857 5.9183 3.39323 6.05545 3.39323 6.21907C3.39323 6.38269 3.44857 6.51984 3.55925 6.63052C3.66993 6.7412 3.80708 6.79655 3.9707 6.79655ZM6.2806 11.9938C5.48176 11.9938 4.73104 11.8422 4.02845 11.539C3.32586 11.2359 2.7147 10.8244 2.19497 10.3047C1.67524 9.78497 1.26379 9.17381 0.96062 8.47122C0.657446 7.76863 0.505859 7.01791 0.505859 6.21907C0.505859 5.42023 0.657446 4.66952 0.96062 3.96692C1.26379 3.26433 1.67524 2.65317 2.19497 2.13345C2.7147 1.61372 3.32586 1.20227 4.02845 0.899096C4.73104 0.595923 5.48176 0.444336 6.2806 0.444336C7.07943 0.444336 7.83015 0.595923 8.53274 0.899096C9.23534 1.20227 9.84649 1.61372 10.3662 2.13345C10.8859 2.65317 11.2974 3.26433 11.6006 3.96692C11.9037 4.66952 12.0553 5.42023 12.0553 6.21907C12.0553 7.01791 11.9037 7.76863 11.6006 8.47122C11.2974 9.17381 10.8859 9.78497 10.3662 10.3047C9.84649 10.8244 9.23534 11.2359 8.53274 11.539C7.83015 11.8422 7.07943 11.9938 6.2806 11.9938Z" fill="black"/>
</svg>
