<svg width="75" height="78" viewBox="0 0 75 78" fill="none" xmlns="http://www.w3.org/2000/svg">
<g id="Layer_1" clip-path="url(#clip0_275_140662)">
<path id="Vector" d="M65.7139 70.2144C69.0201 67.3799 71.5359 63.7435 73.0179 59.6571C74.4999 55.5707 74.8979 51.1726 74.1735 46.8881C73.449 42.6037 71.6266 38.578 68.8825 35.2003C66.1384 31.8227 62.5656 29.2075 58.5095 27.6077V19.1144C58.5095 18.805 58.3861 18.5082 58.1664 18.2895C57.9467 18.0707 57.6488 17.9477 57.3381 17.9477C57.0274 17.9477 56.7294 18.0707 56.5097 18.2895C56.29 18.5082 56.1666 18.805 56.1666 19.1144V28.4477C56.1667 28.6875 56.241 28.9214 56.3793 29.1177C56.5177 29.3139 56.7134 29.4629 56.9398 29.5444C62.4771 31.5427 67.0372 35.5749 69.6851 40.8144C66.5671 40.4824 63.4201 40.5294 60.3135 40.9544C60.0028 40.9962 59.7215 41.1592 59.5315 41.4075C59.3415 41.6558 59.2583 41.9692 59.3002 42.2786C59.3422 42.588 59.5058 42.8681 59.7552 43.0574C60.0045 43.2467 60.3191 43.3295 60.6298 43.2877C63.9742 42.8026 67.3715 42.8026 70.7159 43.2877C71.649 45.7933 72.1289 48.4437 72.1334 51.1161C72.1245 54.7754 71.2361 58.3795 69.5425 61.6269C67.849 64.8744 65.3994 67.6709 62.3987 69.7827H35.8538C33.9266 68.434 32.2163 66.8015 30.7815 64.9411C30.7815 64.8011 30.7815 64.6611 30.7815 64.5211V46.2744C37.0253 48.9344 43.5502 47.2777 50.368 45.5161C52.1134 45.0611 53.8823 44.5944 55.7449 44.1977C56.0556 44.1312 56.327 43.9445 56.4995 43.6787C56.6719 43.4128 56.7313 43.0897 56.6645 42.7802C56.5977 42.4708 56.4102 42.2005 56.1433 42.0288C55.8764 41.857 55.5519 41.7979 55.2412 41.8644C53.3669 42.2844 51.5394 42.7511 49.7823 43.2061C42.7536 45.0144 36.5918 46.5894 30.7815 43.6377V37.3027C33.4607 33.7478 37.1255 31.051 41.3245 29.5444C41.5509 29.4629 41.7465 29.3139 41.8849 29.1177C42.0232 28.9214 42.0975 28.6875 42.0976 28.4477V9.97941H56.1549V14.5761C56.1549 14.8855 56.2783 15.1822 56.498 15.401C56.7177 15.6198 57.0157 15.7427 57.3264 15.7427C57.637 15.7427 57.935 15.6198 58.1547 15.401C58.3744 15.1822 58.4978 14.8855 58.4978 14.5761V9.97941H59.1772C59.8297 9.97941 60.4554 9.72129 60.9167 9.26183C61.3781 8.80236 61.6373 8.17919 61.6373 7.52941V3.22441C61.6373 2.57665 61.3797 1.95524 60.9209 1.49611C60.4621 1.03698 59.8394 0.777499 59.1889 0.774414L39.087 0.774414C38.4346 0.774414 37.8088 1.03254 37.3475 1.492C36.8862 1.95147 36.627 2.57463 36.627 3.22441V7.52941C36.627 8.17919 36.8862 8.80236 37.3475 9.26183C37.8088 9.72129 38.4346 9.97941 39.087 9.97941H39.7664V27.6077C37.8475 28.3714 36.0299 29.3666 34.3544 30.5711V24.8661C34.3544 24.1317 34.0622 23.4272 33.5419 22.9068C33.0216 22.3864 32.3155 22.0925 31.5781 22.0894H24.5494C24.2387 22.0894 23.9408 22.2123 23.7211 22.4311C23.5014 22.6499 23.378 22.9467 23.378 23.2561C23.378 23.5655 23.5014 23.8622 23.7211 24.081C23.9408 24.2998 24.2387 24.4227 24.5494 24.4227H31.5781C31.636 24.4227 31.6933 24.4343 31.7467 24.4567C31.8 24.4791 31.8484 24.5119 31.8888 24.5533C31.9292 24.5946 31.9608 24.6436 31.9819 24.6973C32.003 24.751 32.0131 24.8084 32.0115 24.8661V31.9711C32.0115 32.0856 31.9658 32.1954 31.8845 32.2763C31.8033 32.3573 31.693 32.4027 31.5781 32.4027H3.28773C3.17167 32.4028 3.06018 32.3577 2.97703 32.277C2.89388 32.1964 2.84563 32.0866 2.84258 31.9711V24.8661C2.84258 24.7485 2.88948 24.6357 2.97296 24.5526C3.05644 24.4695 3.16967 24.4227 3.28773 24.4227H19.6879C19.9986 24.4227 20.2966 24.2998 20.5163 24.081C20.7359 23.8622 20.8594 23.5655 20.8594 23.2561C20.8594 22.9467 20.7359 22.6499 20.5163 22.4311C20.2966 22.2123 19.9986 22.0894 19.6879 22.0894H3.28773C2.54924 22.0925 1.84189 22.386 1.3197 22.9061C0.797507 23.4261 0.502778 24.1306 0.499695 24.8661L0.499695 31.9711C0.502793 32.7055 0.797899 33.4087 1.32042 33.9269C1.84294 34.4451 2.55032 34.7361 3.28773 34.7361H4.01402V39.4027C4.01402 39.7122 4.13744 40.0089 4.35713 40.2277C4.57682 40.4465 4.87478 40.5694 5.18546 40.5694C5.49615 40.5694 5.79411 40.4465 6.0138 40.2277C6.23349 40.0089 6.35691 39.7122 6.35691 39.4027V34.7361H28.462V46.4961C24.0457 43.9411 19.6411 45.5511 16.3142 46.7761C16.1696 46.8289 16.0368 46.9096 15.9235 47.0136C15.8102 47.1175 15.7186 47.2427 15.6539 47.3819C15.5892 47.5211 15.5526 47.6717 15.5463 47.8249C15.54 47.9782 15.5641 48.1312 15.6172 48.2752C15.6702 48.4193 15.7513 48.5515 15.8556 48.6643C15.96 48.7771 16.0857 48.8684 16.2255 48.9328C16.3652 48.9973 16.5164 49.0337 16.6703 49.04C16.8242 49.0462 16.9779 49.0223 17.1225 48.9694C21.4919 47.3594 24.9008 46.4377 28.462 49.3194V64.4861C28.4589 67.4054 27.2915 70.204 25.2165 72.2661C23.1416 74.3283 20.3291 75.485 17.3977 75.4819C14.4664 75.4788 11.6564 74.3161 9.58584 72.2496C7.51528 70.1831 6.3538 67.3821 6.35691 64.4627V50.5327C8.00177 51.0121 9.73993 51.0802 11.4175 50.7311C11.5714 50.7027 11.7181 50.6445 11.8493 50.5597C11.9806 50.4749 12.0937 50.3651 12.1824 50.2368C12.271 50.1084 12.3334 49.9639 12.366 49.8115C12.3986 49.6591 12.4007 49.5018 12.3723 49.3486C12.3438 49.1954 12.2853 49.0492 12.2002 48.9185C12.115 48.7878 12.0048 48.6751 11.8759 48.5868C11.747 48.4985 11.6019 48.4364 11.4489 48.404C11.2959 48.3715 11.1379 48.3694 10.9841 48.3977C9.4388 48.7484 7.82236 48.6139 6.35691 48.0127V42.7744C6.35691 42.465 6.23349 42.1682 6.0138 41.9495C5.79411 41.7307 5.49615 41.6077 5.18546 41.6077C4.87478 41.6077 4.57682 41.7307 4.35713 41.9495C4.13744 42.1682 4.01402 42.465 4.01402 42.7744V64.4627C4.02281 67.681 5.20199 70.7872 7.33331 73.2062C9.46462 75.6253 12.4037 77.1935 15.6066 77.6205C18.8095 78.0475 22.0593 77.3045 24.7545 75.5289C27.4496 73.7533 29.4076 71.0654 30.266 67.9627C30.9695 68.7543 31.7248 69.4987 32.5269 70.1911C31.6879 70.5667 31.0052 71.22 30.595 72.0401C30.1847 72.8601 30.0722 73.7963 30.2764 74.6897C30.4806 75.583 30.9891 76.3783 31.7154 76.9407C32.4417 77.503 33.341 77.7976 34.2607 77.7744H39.2861C39.5968 77.7744 39.8948 77.6515 40.1145 77.4327C40.3342 77.2139 40.4576 76.9172 40.4576 76.6077C40.4576 76.2983 40.3342 76.0016 40.1145 75.7828C39.8948 75.564 39.5968 75.4411 39.2861 75.4411H34.2607C34.0328 75.4602 33.8035 75.4321 33.5872 75.3584C33.3709 75.2847 33.1723 75.1671 33.0039 75.013C32.8356 74.859 32.7012 74.6718 32.6093 74.4633C32.5174 74.2548 32.4699 74.0296 32.4699 73.8019C32.4699 73.5742 32.5174 73.349 32.6093 73.1405C32.7012 72.9321 32.8356 72.7449 33.0039 72.5908C33.1723 72.4367 33.3709 72.3191 33.5872 72.2454C33.8035 72.1717 34.0328 72.1436 34.2607 72.1627H64.027C64.4395 72.1974 64.824 72.3852 65.1041 72.6887C65.3843 72.9923 65.5398 73.3896 65.5398 73.8019C65.5398 74.2142 65.3843 74.6115 65.1041 74.9151C64.824 75.2187 64.4395 75.4064 64.027 75.4411H44.3116C44.0009 75.4411 43.703 75.564 43.4833 75.7828C43.2636 76.0016 43.1402 76.2983 43.1402 76.6077C43.1402 76.9172 43.2636 77.2139 43.4833 77.4327C43.703 77.6515 44.0009 77.7744 44.3116 77.7744H64.027C64.9332 77.7744 65.8123 77.4666 66.5192 76.9019C67.2261 76.3372 67.7185 75.5493 67.9151 74.6682C68.1116 73.7872 68.0007 72.8658 67.6005 72.056C67.2003 71.2463 66.5348 70.5967 65.7139 70.2144ZM38.9699 7.52941V3.22441C38.968 3.20864 38.9697 3.19265 38.9749 3.17764C38.9801 3.16263 38.9887 3.149 39 3.13777C39.0113 3.12653 39.025 3.118 39.04 3.1128C39.0551 3.1076 39.0712 3.10587 39.087 3.10775H59.1889C59.2048 3.10587 59.2208 3.1076 59.2359 3.1128C59.251 3.118 59.2647 3.12653 59.276 3.13777C59.2872 3.149 59.2958 3.16263 59.301 3.17764C59.3062 3.19265 59.308 3.20864 59.3061 3.22441V7.52941C59.308 7.54519 59.3062 7.56118 59.301 7.57619C59.2958 7.5912 59.2872 7.60483 59.276 7.61606C59.2647 7.62729 59.251 7.63583 59.2359 7.64103C59.2208 7.64623 59.2048 7.64796 59.1889 7.64608H39.087C39.0712 7.64796 39.0551 7.64623 39.04 7.64103C39.025 7.63583 39.0113 7.62729 39 7.61606C38.9887 7.60483 38.9801 7.5912 38.9749 7.57619C38.9697 7.56118 38.968 7.54519 38.9699 7.52941Z" fill="#B8730D"/>
<path id="Vector_2" d="M45.9399 40.1848C45.0752 40.1848 44.23 39.9293 43.5112 39.4506C42.7924 38.9719 42.2323 38.2916 41.9019 37.4957C41.5716 36.6999 41.4857 35.8243 41.6553 34.9798C41.8248 34.1354 42.2422 33.36 42.8544 32.7519C43.4667 32.1438 44.2463 31.7302 45.0947 31.5636C45.9431 31.3971 46.822 31.4849 47.6202 31.8161C48.4184 32.1472 49.1 32.7068 49.5787 33.424C50.0574 34.1411 50.3117 34.9836 50.3094 35.8448C50.3063 36.9969 49.8446 38.1008 49.0255 38.9143C48.2064 39.7279 47.0968 40.1848 45.9399 40.1848ZM45.9399 33.8264C45.5391 33.8264 45.1473 33.9448 44.814 34.1666C44.4807 34.3884 44.221 34.7036 44.0676 35.0724C43.9142 35.4412 43.8741 35.847 43.9523 36.2385C44.0305 36.6301 44.2235 36.9897 44.5069 37.272C44.7903 37.5542 45.1514 37.7465 45.5446 37.8243C45.9377 37.9022 46.3452 37.8622 46.7155 37.7095C47.0858 37.5567 47.4023 37.298 47.625 36.9661C47.8477 36.6342 47.9665 36.244 47.9665 35.8448C47.9635 35.3104 47.7489 34.7988 47.3696 34.421C46.9902 34.0431 46.4765 33.8295 45.9399 33.8264Z" fill="#B8730D"/>
<path id="Vector_3" d="M50.6608 22.4512C49.9449 22.4512 49.2451 22.2398 48.6498 21.8437C48.0545 21.4475 47.5906 20.8845 47.3166 20.2258C47.0426 19.5671 46.971 18.8422 47.1106 18.1429C47.2503 17.4436 47.595 16.8013 48.1013 16.2971C48.6075 15.7929 49.2525 15.4496 49.9547 15.3105C50.6568 15.1714 51.3846 15.2428 52.0461 15.5156C52.7075 15.7885 53.2728 16.2505 53.6705 16.8434C54.0683 17.4362 54.2806 18.1332 54.2806 18.8462C54.2806 19.8023 53.8992 20.7193 53.2204 21.3953C52.5415 22.0714 51.6209 22.4512 50.6608 22.4512ZM50.6608 17.5862C50.4078 17.5862 50.1605 17.6611 49.9502 17.8014C49.74 17.9416 49.5764 18.1409 49.4801 18.374C49.3838 18.607 49.3592 18.8633 49.4094 19.1103C49.4596 19.3573 49.5824 19.5838 49.7622 19.7612C49.9419 19.9386 50.1705 20.0588 50.419 20.1065C50.6674 20.1543 50.9245 20.1274 51.1576 20.0294C51.3907 19.9313 51.5893 19.7665 51.7282 19.5559C51.8671 19.3452 51.94 19.0982 51.9377 18.8462C51.9377 18.6798 51.9046 18.515 51.8403 18.3613C51.776 18.2077 51.6817 18.0683 51.563 17.9511C51.4443 17.834 51.3034 17.7414 51.1486 17.6788C50.9937 17.6161 50.828 17.5847 50.6608 17.5862Z" fill="#B8730D"/>
<path id="Vector_4" d="M13.8073 69.666C13.0682 69.666 12.3457 69.4477 11.7312 69.0388C11.1166 68.6298 10.6377 68.0486 10.3548 67.3685C10.072 66.6885 9.99799 65.9402 10.1422 65.2183C10.2864 64.4963 10.6423 63.8332 11.1649 63.3127C11.6875 62.7922 12.3534 62.4378 13.0782 62.2942C13.8031 62.1506 14.5545 62.2243 15.2373 62.506C15.9202 62.7876 16.5038 63.2647 16.9144 63.8767C17.325 64.4887 17.5442 65.2082 17.5442 65.9443C17.5411 66.9304 17.1464 67.8753 16.4463 68.5725C15.7461 69.2698 14.7974 69.6629 13.8073 69.666ZM13.8073 64.556C13.5316 64.556 13.262 64.6374 13.0328 64.79C12.8036 64.9425 12.6249 65.1593 12.5194 65.413C12.4139 65.6667 12.3863 65.9459 12.44 66.2152C12.4938 66.4845 12.6266 66.7319 12.8216 66.926C13.0165 67.1202 13.2649 67.2524 13.5353 67.306C13.8057 67.3595 14.086 67.3321 14.3407 67.227C14.5955 67.1219 14.8132 66.944 14.9664 66.7156C15.1195 66.4873 15.2013 66.2189 15.2013 65.9443C15.2013 65.5761 15.0544 65.223 14.793 64.9626C14.5316 64.7023 14.177 64.556 13.8073 64.556Z" fill="#B8730D"/>
<path id="Vector_5" d="M21.6794 58.956C20.9403 58.956 20.2178 58.7378 19.6033 58.3288C18.9887 57.9199 18.5098 57.3386 18.2269 56.6586C17.9441 55.9785 17.8701 55.2302 18.0143 54.5083C18.1585 53.7864 18.5144 53.1232 19.037 52.6027C19.5596 52.0823 20.2255 51.7278 20.9503 51.5842C21.6752 51.4406 22.4266 51.5143 23.1094 51.796C23.7923 52.0777 24.3759 52.5547 24.7865 53.1667C25.1971 53.7787 25.4163 54.4983 25.4163 55.2344C25.4163 56.2214 25.0226 57.168 24.3218 57.866C23.621 58.5639 22.6705 58.956 21.6794 58.956ZM21.6794 53.846C21.4037 53.846 21.1341 53.9275 20.9049 54.08C20.6757 54.2326 20.497 54.4494 20.3915 54.7031C20.286 54.9568 20.2584 55.2359 20.3121 55.5052C20.3659 55.7745 20.4987 56.0219 20.6937 56.2161C20.8886 56.4102 21.137 56.5425 21.4074 56.596C21.6778 56.6496 21.9581 56.6221 22.2128 56.517C22.4676 56.4119 22.6853 56.234 22.8385 56.0057C22.9916 55.7774 23.0734 55.509 23.0734 55.2344C23.0734 54.8662 22.9265 54.513 22.6651 54.2527C22.4037 53.9923 22.0491 53.846 21.6794 53.846Z" fill="#B8730D"/>
<path id="Vector_6" d="M37.7984 62.8761C36.9551 62.8761 36.1307 62.6271 35.4294 62.1605C34.7282 61.6938 34.1817 61.0306 33.8589 60.2546C33.5362 59.4786 33.4518 58.6248 33.6163 57.801C33.7808 56.9772 34.1869 56.2205 34.7833 55.6266C35.3796 55.0327 36.1394 54.6283 36.9665 54.4644C37.7937 54.3006 38.651 54.3847 39.4302 54.7061C40.2093 55.0275 40.8753 55.5718 41.3438 56.2702C41.8124 56.9685 42.0625 57.7896 42.0625 58.6295C42.0594 59.7548 41.6091 60.8332 40.8101 61.6289C40.0111 62.4247 38.9284 62.8731 37.7984 62.8761ZM37.7984 56.7161C37.4184 56.7161 37.047 56.8284 36.7311 57.0386C36.4151 57.2488 36.1689 57.5477 36.0235 57.8973C35.8781 58.2469 35.84 58.6316 35.9142 59.0028C35.9883 59.3739 36.1713 59.7148 36.4399 59.9824C36.7086 60.25 37.0509 60.4322 37.4236 60.506C37.7963 60.5799 38.1826 60.542 38.5336 60.3972C38.8847 60.2524 39.1847 60.0071 39.3958 59.6925C39.6069 59.3778 39.7196 59.0079 39.7196 58.6295C39.7015 58.1332 39.4914 57.6631 39.1334 57.3174C38.7754 56.9717 38.2971 56.7772 37.7984 56.7745V56.7161Z" fill="#B8730D"/>
<path id="Vector_7" d="M64.4721 56.2608C63.6705 56.2608 62.8869 56.0241 62.2203 55.5805C61.5538 55.137 61.0343 54.5065 60.7275 53.7689C60.4207 53.0313 60.3404 52.2197 60.4968 51.4367C60.6532 50.6536 61.0392 49.9344 61.6061 49.3698C62.1729 48.8053 62.8952 48.4208 63.6814 48.2651C64.4676 48.1093 65.2826 48.1893 66.0232 48.4948C66.7638 48.8003 67.3969 49.3177 67.8422 49.9815C68.2876 50.6453 68.5253 51.4258 68.5253 52.2242C68.5253 53.2948 68.0983 54.3215 67.3382 55.0785C66.5781 55.8355 65.5471 56.2608 64.4721 56.2608ZM64.4721 50.5325C64.1334 50.5325 63.8022 50.6327 63.5207 50.8204C63.2392 51.0081 63.02 51.2748 62.8909 51.5867C62.7618 51.8986 62.7287 52.2417 62.7956 52.5725C62.8625 52.9032 63.0266 53.2067 63.267 53.4444C63.5073 53.6821 63.8132 53.8435 64.1457 53.9079C64.4782 53.9723 64.8225 53.9369 65.1348 53.8061C65.4471 53.6754 65.7134 53.4553 65.8999 53.1736C66.0864 52.892 66.1848 52.5615 66.1824 52.2242C66.1824 52.001 66.1381 51.7801 66.052 51.5741C65.9659 51.3681 65.8398 51.1811 65.6808 51.0238C65.5218 50.8666 65.3332 50.7422 65.1258 50.6579C64.9183 50.5736 64.6962 50.531 64.4721 50.5325Z" fill="#B8730D"/>
<path id="Vector_8" d="M55.5575 65.8857C54.8624 65.8857 54.183 65.6805 53.605 65.2959C53.0271 64.9113 52.5767 64.3647 52.3107 63.7251C52.0447 63.0856 51.9751 62.3819 52.1107 61.7029C52.2463 61.024 52.581 60.4004 53.0725 59.9109C53.564 59.4214 54.1902 59.088 54.8719 58.953C55.5536 58.8179 56.2602 58.8873 56.9024 59.1522C57.5445 59.4171 58.0934 59.8657 58.4795 60.4412C58.8657 61.0168 59.0718 61.6935 59.0718 62.3857C59.0718 63.314 58.7015 64.2042 58.0425 64.8606C57.3834 65.517 56.4895 65.8857 55.5575 65.8857ZM55.5575 61.1491C55.3258 61.1491 55.0993 61.2175 54.9067 61.3457C54.714 61.4739 54.5639 61.6561 54.4752 61.8693C54.3865 62.0825 54.3633 62.317 54.4085 62.5433C54.4537 62.7697 54.5653 62.9775 54.7291 63.1407C54.893 63.3039 55.1017 63.415 55.3289 63.46C55.5562 63.505 55.7917 63.4819 56.0058 63.3936C56.2198 63.3053 56.4028 63.1558 56.5315 62.9639C56.6602 62.772 56.7289 62.5465 56.7289 62.3157C56.7289 62.0063 56.6055 61.7096 56.3858 61.4908C56.1661 61.272 55.8682 61.1491 55.5575 61.1491Z" fill="#B8730D"/>
</g>
<defs>
<clipPath id="clip0_275_140662">
<rect width="74" height="77" fill="white" transform="translate(0.499695 0.774414)"/>
</clipPath>
</defs>
</svg>
