<svg width="22" height="23" viewBox="0 0 22 23" fill="none" xmlns="http://www.w3.org/2000/svg">
<path d="M5.50006 20.1C5.71952 20.2448 5.94502 20.3812 6.1761 20.5087C7.60651 21.2979 9.25083 21.7471 11.0001 21.7471C16.5229 21.7471 21.0001 17.2699 21.0001 11.7471C21.0001 6.22422 16.5229 1.74707 11.0001 1.74707C5.47721 1.74707 1.00006 6.22422 1.00006 11.7471C1.00006 13.5023 1.4523 15.152 2.24661 16.5859C2.37176 16.8118 2.50539 17.0323 2.64708 17.2471" stroke="black" stroke-width="1.5" stroke-linecap="round"/>
<path d="M13.5001 10.7471L13.6272 10.8318C14.2803 11.2672 14.2803 12.2269 13.6272 12.6623L10.7102 14.607C9.97922 15.0943 9.00006 14.5703 9.00006 13.6917V9.68988C9.00006 8.83486 9.93283 8.30673 10.666 8.74664L10.8751 8.87207" stroke="black" stroke-width="1.5" stroke-linecap="round"/>
</svg>
