<svg width="19" height="19" viewBox="0 0 19 19" fill="none" xmlns="http://www.w3.org/2000/svg">
<mask id="mask0_30_2152" style="mask-type:alpha" maskUnits="userSpaceOnUse" x="0" y="0" width="19" height="19">
<rect y="0.0499878" width="18.9" height="18.9" fill="#D9D9D9"/>
</mask>
<g mask="url(#mask0_30_2152)">
<path d="M9.45125 10.6025L5.5925 14.4613C5.44813 14.6056 5.26437 14.6778 5.04125 14.6778C4.81813 14.6778 4.63438 14.6056 4.49 14.4613C4.34562 14.3169 4.27344 14.1331 4.27344 13.91C4.27344 13.6869 4.34562 13.5031 4.49 13.3588L8.34875 9.50002L4.49 5.64127C4.34562 5.49689 4.27344 5.31314 4.27344 5.09002C4.27344 4.86689 4.34562 4.68314 4.49 4.53877C4.63438 4.39439 4.81813 4.3222 5.04125 4.3222C5.26437 4.3222 5.44813 4.39439 5.5925 4.53877L9.45125 8.39752L13.31 4.53877C13.4544 4.39439 13.6381 4.3222 13.8612 4.3222C14.0844 4.3222 14.2681 4.39439 14.4125 4.53877C14.5569 4.68314 14.6291 4.86689 14.6291 5.09002C14.6291 5.31314 14.5569 5.49689 14.4125 5.64127L10.5537 9.50002L14.4125 13.3588C14.5569 13.5031 14.6291 13.6869 14.6291 13.91C14.6291 14.1331 14.5569 14.3169 14.4125 14.4613C14.2681 14.6056 14.0844 14.6778 13.8612 14.6778C13.6381 14.6778 13.4544 14.6056 13.31 14.4613L9.45125 10.6025Z" fill="#1C1B1F"/>
</g>
</svg>
