<svg width="93" height="77" viewBox="0 0 93 77" fill="none" xmlns="http://www.w3.org/2000/svg">
<path d="M83.1918 30.33H52.4119V28.5285C52.4061 27.1938 51.9541 25.8993 51.1278 24.8511C50.3015 23.8029 49.1483 23.0612 47.8519 22.744V18.5218C47.8519 17.57 48.23 16.6571 48.903 15.9841C49.5761 15.311 50.4889 14.9329 51.4407 14.9329H68.0341C69.7324 14.9329 71.3612 14.2583 72.5622 13.0573C73.7631 11.8564 74.4378 10.2276 74.4378 8.52923V2.18182C74.4378 1.80855 74.2895 1.45057 74.0256 1.18663C73.7616 0.922694 73.4036 0.774414 73.0304 0.774414C72.6571 0.774414 72.2991 0.922694 72.0352 1.18663C71.7712 1.45057 71.623 1.80855 71.623 2.18182V8.55738C71.623 9.50921 71.2449 10.4221 70.5718 11.0951C69.8988 11.7682 68.9859 12.1463 68.0341 12.1463H51.4407C49.7424 12.1463 48.1136 12.8209 46.9126 14.0219C45.7117 15.2228 45.037 16.8516 45.037 18.55V22.7722C43.7405 23.0894 42.5874 23.8311 41.7611 24.8793C40.9348 25.9275 40.4828 27.2219 40.477 28.5566V30.33H9.69704C7.13979 30.3299 4.68602 31.3399 2.86988 33.1402C1.05374 34.9406 0.0222692 37.3854 0 39.9426L0 67.0914C0.0074415 69.6597 1.03193 72.1204 2.84927 73.9351C4.6666 75.7498 7.1288 76.7707 9.69704 76.7744H83.1918C85.7601 76.7707 88.2223 75.7498 90.0396 73.9351C91.857 72.1204 92.8814 69.6597 92.8889 67.0914V39.9426C92.8666 37.3854 91.8352 34.9406 90.019 33.1402C88.2029 31.3399 85.7491 30.3299 83.1918 30.33ZM43.2919 28.5285C43.2919 27.6924 43.624 26.8905 44.2152 26.2993C44.8064 25.708 45.6083 25.3759 46.4444 25.3759C47.2806 25.3759 48.0824 25.708 48.6737 26.2993C49.2649 26.8905 49.597 27.6924 49.597 28.5285V30.33H43.2919V28.5285ZM90.0741 67.0914C90.0666 68.9131 89.3387 70.6579 88.0493 71.9447C86.7598 73.2315 85.0136 73.9559 83.1918 73.9596H9.69704C7.87533 73.9559 6.12909 73.2315 4.83963 71.9447C3.55017 70.6579 2.82225 68.9131 2.81481 67.0914V39.9426C2.83703 38.132 3.57192 36.4031 4.86018 35.1306C6.14845 33.8581 7.8863 33.1446 9.69704 33.1448H83.1918C85.0026 33.1446 86.7404 33.8581 88.0287 35.1306C89.317 36.4031 90.0519 38.132 90.0741 39.9426V67.0914Z" fill="black"/>
<path d="M12.6666 65.5156H9.85174C9.47848 65.5156 9.1205 65.6639 8.85656 65.9278C8.59262 66.1918 8.44434 66.5498 8.44434 66.923C8.44434 67.2963 8.59262 67.6543 8.85656 67.9182C9.1205 68.1822 9.47848 68.3304 9.85174 68.3304H12.6666C13.0398 68.3304 13.3978 68.1822 13.6617 67.9182C13.9257 67.6543 14.074 67.2963 14.074 66.923C14.074 66.5498 13.9257 66.1918 13.6617 65.9278C13.3978 65.6639 13.0398 65.5156 12.6666 65.5156Z" fill="black"/>
<path d="M9.85174 41.5892H12.554C12.9272 41.5892 13.2852 41.4409 13.5492 41.177C13.8131 40.9131 13.9614 40.5551 13.9614 40.1818C13.9614 39.8086 13.8131 39.4506 13.5492 39.1866C13.2852 38.9227 12.9272 38.7744 12.554 38.7744H9.85174C9.47848 38.7744 9.1205 38.9227 8.85656 39.1866C8.59262 39.4506 8.44434 39.8086 8.44434 40.1818C8.44434 40.5551 8.59262 40.9131 8.85656 41.177C9.1205 41.4409 9.47848 41.5892 9.85174 41.5892Z" fill="black"/>
<path d="M19.9152 41.5892H22.6315C23.0048 41.5892 23.3628 41.4409 23.6267 41.177C23.8906 40.9131 24.0389 40.5551 24.0389 40.1818C24.0389 39.8086 23.8906 39.4506 23.6267 39.1866C23.3628 38.9227 23.0048 38.7744 22.6315 38.7744H19.9152C19.542 38.7744 19.184 38.9227 18.92 39.1866C18.6561 39.4506 18.5078 39.8086 18.5078 40.1818C18.5078 40.5551 18.6561 40.9131 18.92 41.177C19.184 41.4409 19.542 41.5892 19.9152 41.5892Z" fill="black"/>
<path d="M29.9914 41.5892H32.6936C33.0669 41.5892 33.4249 41.4409 33.6888 41.177C33.9527 40.9131 34.101 40.5551 34.101 40.1818C34.101 39.8086 33.9527 39.4506 33.6888 39.1866C33.4249 38.9227 33.0669 38.7744 32.6936 38.7744H29.9914C29.6181 38.7744 29.2601 38.9227 28.9962 39.1866C28.7323 39.4506 28.584 39.8086 28.584 40.1818C28.584 40.5551 28.7323 40.9131 28.9962 41.177C29.2601 41.4409 29.6181 41.5892 29.9914 41.5892Z" fill="black"/>
<path d="M40.0549 41.5892H42.7571C43.1304 41.5892 43.4883 41.4409 43.7523 41.177C44.0162 40.913 44.1645 40.5551 44.1645 40.1818C44.1645 38.4085 42.1941 38.7744 40.0549 38.7744C39.6816 38.7744 39.3236 38.9227 39.0597 39.1866C38.7957 39.4506 38.6475 39.8085 38.6475 40.1818C38.6475 40.5551 38.7957 40.913 39.0597 41.177C39.3236 41.4409 39.6816 41.5892 40.0549 41.5892Z" fill="black"/>
<path d="M50.132 41.5892H52.8342C53.2075 41.5892 53.5655 41.4409 53.8294 41.177C54.0934 40.9131 54.2416 40.5551 54.2416 40.1818C54.2416 39.8086 54.0934 39.4506 53.8294 39.1866C53.5655 38.9227 53.2075 38.7744 52.8342 38.7744H50.132C49.7587 38.7744 49.4008 38.9227 49.1368 39.1866C48.8729 39.4506 48.7246 39.8086 48.7246 40.1818C48.7246 40.5551 48.8729 40.9131 49.1368 41.177C49.4008 41.4409 49.7587 41.5892 50.132 41.5892Z" fill="black"/>
<path d="M62.8967 38.7744H60.1945C59.8212 38.7744 59.4633 38.9227 59.1993 39.1866C58.9354 39.4506 58.7871 39.8086 58.7871 40.1818C58.7871 40.5551 58.9354 40.9131 59.1993 41.177C59.4633 41.4409 59.8212 41.5892 60.1945 41.5892H62.8967C63.27 41.5892 63.628 41.4409 63.8919 41.177C64.1559 40.9131 64.3041 40.5551 64.3041 40.1818C64.3041 39.8086 64.1559 39.4506 63.8919 39.1866C63.628 38.9227 63.27 38.7744 62.8967 38.7744Z" fill="black"/>
<path d="M70.258 41.5892H72.9743C73.3476 41.5892 73.7055 41.4409 73.9695 41.177C74.2334 40.9131 74.3817 40.5551 74.3817 40.1818C74.3817 39.8086 74.2334 39.4506 73.9695 39.1866C73.7055 38.9227 73.3476 38.7744 72.9743 38.7744H70.258C69.8847 38.7744 69.5268 38.9227 69.2628 39.1866C68.9989 39.4506 68.8506 39.8086 68.8506 40.1818C68.8506 40.5551 68.9989 40.9131 69.2628 41.177C69.5268 41.4409 69.8847 41.5892 70.258 41.5892Z" fill="black"/>
<path d="M83.0374 38.7744H80.3351C79.9619 38.7744 79.6039 38.9227 79.34 39.1866C79.076 39.4506 78.9277 39.8086 78.9277 40.1818C78.9277 40.5551 79.076 40.9131 79.34 41.177C79.6039 41.4409 79.9619 41.5892 80.3351 41.5892H83.0374C83.4106 41.5892 83.7686 41.4409 84.0325 41.177C84.2965 40.9131 84.4448 40.5551 84.4448 40.1818C84.4448 39.8086 84.2965 39.4506 84.0325 39.1866C83.7686 38.9227 83.4106 38.7744 83.0374 38.7744Z" fill="black"/>
<path d="M9.85174 50.8217H12.554C12.9272 50.8217 13.2852 50.6734 13.5492 50.4094C13.8131 50.1455 13.9614 49.7875 13.9614 49.4142C13.9614 49.041 13.8131 48.683 13.5492 48.4191C13.2852 48.1551 12.9272 48.0068 12.554 48.0068H9.85174C9.47848 48.0068 9.1205 48.1551 8.85656 48.4191C8.59262 48.683 8.44434 49.041 8.44434 49.4142C8.44434 49.7875 8.59262 50.1455 8.85656 50.4094C9.1205 50.6734 9.47848 50.8217 9.85174 50.8217Z" fill="black"/>
<path d="M19.9152 50.8217H22.6315C23.0048 50.8217 23.3628 50.6734 23.6267 50.4094C23.8906 50.1455 24.0389 49.7875 24.0389 49.4142C24.0389 49.041 23.8906 48.683 23.6267 48.4191C23.3628 48.1551 23.0048 48.0068 22.6315 48.0068H19.9152C19.542 48.0068 19.184 48.1551 18.92 48.4191C18.6561 48.683 18.5078 49.041 18.5078 49.4142C18.5078 49.7875 18.6561 50.1455 18.92 50.4094C19.184 50.6734 19.542 50.8217 19.9152 50.8217Z" fill="black"/>
<path d="M29.9914 50.8217H32.6936C33.0669 50.8217 33.4249 50.6734 33.6888 50.4094C33.9527 50.1455 34.101 49.7875 34.101 49.4142C34.101 49.041 33.9527 48.683 33.6888 48.4191C33.4249 48.1551 33.0669 48.0068 32.6936 48.0068H29.9914C29.6181 48.0068 29.2601 48.1551 28.9962 48.4191C28.7323 48.683 28.584 49.041 28.584 49.4142C28.584 49.7875 28.7323 50.1455 28.9962 50.4094C29.2601 50.6734 29.6181 50.8217 29.9914 50.8217Z" fill="black"/>
<path d="M40.0549 50.8217H42.7571C43.1304 50.8217 43.4883 50.6734 43.7523 50.4094C44.0162 50.1455 44.1645 49.7875 44.1645 49.4142C44.1645 49.041 44.0162 48.683 43.7523 48.4191C43.4883 48.1551 43.1304 48.0068 42.7571 48.0068H40.0549C39.6816 48.0068 39.3236 48.1551 39.0597 48.4191C38.7957 48.683 38.6475 49.041 38.6475 49.4142C38.6475 49.7875 38.7957 50.1455 39.0597 50.4094C39.3236 50.6734 39.6816 50.8217 40.0549 50.8217Z" fill="black"/>
<path d="M50.132 50.8217H52.8342C53.2075 50.8217 53.5655 50.6734 53.8294 50.4094C54.0934 50.1455 54.2416 49.7875 54.2416 49.4142C54.2416 49.041 54.0934 48.683 53.8294 48.4191C53.5655 48.1551 53.2075 48.0068 52.8342 48.0068H50.132C49.7587 48.0068 49.4008 48.1551 49.1368 48.4191C48.8729 48.683 48.7246 49.041 48.7246 49.4142C48.7246 49.7875 48.8729 50.1455 49.1368 50.4094C49.4008 50.6734 49.7587 50.8217 50.132 50.8217Z" fill="black"/>
<path d="M62.8967 48.0068H60.1945C59.8212 48.0068 59.4633 48.1551 59.1993 48.4191C58.9354 48.683 58.7871 49.041 58.7871 49.4142C58.7871 49.7875 58.9354 50.1455 59.1993 50.4094C59.4633 50.6734 59.8212 50.8217 60.1945 50.8217H62.8967C63.27 50.8217 63.628 50.6734 63.8919 50.4094C64.1559 50.1455 64.3041 49.7875 64.3041 49.4142C64.3041 49.041 64.1559 48.683 63.8919 48.4191C63.628 48.1551 63.27 48.0068 62.8967 48.0068Z" fill="black"/>
<path d="M70.258 50.8217H72.9743C73.3476 50.8217 73.7055 50.6734 73.9695 50.4094C74.2334 50.1455 74.3817 49.7875 74.3817 49.4142C74.3817 49.041 74.2334 48.683 73.9695 48.4191C73.7055 48.1551 73.3476 48.0068 72.9743 48.0068H70.258C69.8847 48.0068 69.5268 48.1551 69.2628 48.4191C68.9989 48.683 68.8506 49.041 68.8506 49.4142C68.8506 49.7875 68.9989 50.1455 69.2628 50.4094C69.5268 50.6734 69.8847 50.8217 70.258 50.8217Z" fill="black"/>
<path d="M83.0374 48.0068H80.3351C79.9619 48.0068 79.6039 48.1551 79.34 48.4191C79.076 48.683 78.9277 49.041 78.9277 49.4142C78.9277 49.7875 79.076 50.1455 79.34 50.4094C79.6039 50.6734 79.9619 50.8217 80.3351 50.8217H83.0374C83.4106 50.8217 83.7686 50.6734 84.0325 50.4094C84.2965 50.1455 84.4448 49.7875 84.4448 49.4142C84.4448 49.041 84.2965 48.683 84.0325 48.4191C83.7686 48.1551 83.4106 48.0068 83.0374 48.0068Z" fill="black"/>
<path d="M9.85174 59.0267H12.554C12.9272 59.0267 13.2852 58.8784 13.5492 58.6145C13.8131 58.3506 13.9614 57.9926 13.9614 57.6193C13.9614 57.2461 13.8131 56.8881 13.5492 56.6241C13.2852 56.3602 12.9272 56.2119 12.554 56.2119H9.85174C9.47848 56.2119 9.1205 56.3602 8.85656 56.6241C8.59262 56.8881 8.44434 57.2461 8.44434 57.6193C8.44434 57.9926 8.59262 58.3506 8.85656 58.6145C9.1205 58.8784 9.47848 59.0267 9.85174 59.0267Z" fill="black"/>
<path d="M19.9152 59.0267H22.6315C23.0048 59.0267 23.3628 58.8784 23.6267 58.6145C23.8906 58.3506 24.0389 57.9926 24.0389 57.6193C24.0389 57.2461 23.8906 56.8881 23.6267 56.6241C23.3628 56.3602 23.0048 56.2119 22.6315 56.2119H19.9152C19.542 56.2119 19.184 56.3602 18.92 56.6241C18.6561 56.8881 18.5078 57.2461 18.5078 57.6193C18.5078 57.9926 18.6561 58.3506 18.92 58.6145C19.184 58.8784 19.542 59.0267 19.9152 59.0267Z" fill="black"/>
<path d="M29.9914 59.0267H32.6936C33.0669 59.0267 33.4249 58.8784 33.6888 58.6145C33.9527 58.3506 34.101 57.9926 34.101 57.6193C34.101 57.2461 33.9527 56.8881 33.6888 56.6241C33.4249 56.3602 33.0669 56.2119 32.6936 56.2119H29.9914C29.6181 56.2119 29.2601 56.3602 28.9962 56.6241C28.7323 56.8881 28.584 57.2461 28.584 57.6193C28.584 57.9926 28.7323 58.3506 28.9962 58.6145C29.2601 58.8784 29.6181 59.0267 29.9914 59.0267Z" fill="black"/>
<path d="M40.0549 59.0267H42.7571C43.1304 59.0267 43.4883 58.8784 43.7523 58.6145C44.0162 58.3506 44.1645 57.9926 44.1645 57.6193C44.1645 57.2461 44.0162 56.8881 43.7523 56.6241C43.4883 56.3602 43.1304 56.2119 42.7571 56.2119H40.0549C39.6816 56.2119 39.3236 56.3602 39.0597 56.6241C38.7957 56.8881 38.6475 57.2461 38.6475 57.6193C38.6475 57.9926 38.7957 58.3506 39.0597 58.6145C39.3236 58.8784 39.6816 59.0267 40.0549 59.0267Z" fill="black"/>
<path d="M50.132 59.0267H52.8342C53.2075 59.0267 53.5655 58.8784 53.8294 58.6145C54.0934 58.3506 54.2416 57.9926 54.2416 57.6193C54.2416 57.2461 54.0934 56.8881 53.8294 56.6241C53.5655 56.3602 53.2075 56.2119 52.8342 56.2119H50.132C49.7587 56.2119 49.4008 56.3602 49.1368 56.6241C48.8729 56.8881 48.7246 57.2461 48.7246 57.6193C48.7246 57.9926 48.8729 58.3506 49.1368 58.6145C49.4008 58.8784 49.7587 59.0267 50.132 59.0267Z" fill="black"/>
<path d="M62.8967 56.2119H60.1945C59.8212 56.2119 59.4633 56.3602 59.1993 56.6241C58.9354 56.8881 58.7871 57.2461 58.7871 57.6193C58.7871 57.9926 58.9354 58.3506 59.1993 58.6145C59.4633 58.8784 59.8212 59.0267 60.1945 59.0267H62.8967C63.27 59.0267 63.628 58.8784 63.8919 58.6145C64.1559 58.3506 64.3041 57.9926 64.3041 57.6193C64.3041 57.2461 64.1559 56.8881 63.8919 56.6241C63.628 56.3602 63.27 56.2119 62.8967 56.2119Z" fill="black"/>
<path d="M70.258 59.0267H72.9743C73.3476 59.0267 73.7055 58.8784 73.9695 58.6145C74.2334 58.3506 74.3817 57.9926 74.3817 57.6193C74.3817 57.2461 74.2334 56.8881 73.9695 56.6241C73.7055 56.3602 73.3476 56.2119 72.9743 56.2119H70.258C69.8847 56.2119 69.5268 56.3602 69.2628 56.6241C68.9989 56.8881 68.8506 57.2461 68.8506 57.6193C68.8506 57.9926 68.9989 58.3506 69.2628 58.6145C69.5268 58.8784 69.8847 59.0267 70.258 59.0267Z" fill="black"/>
<path d="M83.0374 56.2119H80.3351C79.9619 56.2119 79.6039 56.3602 79.34 56.6241C79.076 56.8881 78.9277 57.2461 78.9277 57.6193C78.9277 57.9926 79.076 58.3506 79.34 58.6145C79.6039 58.8784 79.9619 59.0267 80.3351 59.0267H83.0374C83.4106 59.0267 83.7686 58.8784 84.0325 58.6145C84.2965 58.3506 84.4448 57.9926 84.4448 57.6193C84.4448 57.2461 84.2965 56.8881 84.0325 56.6241C83.7686 56.3602 83.4106 56.2119 83.0374 56.2119Z" fill="black"/>
<path d="M22.857 65.5156H20.0422C19.6689 65.5156 19.3109 65.6639 19.047 65.9278C18.783 66.1918 18.6348 66.5498 18.6348 66.923C18.6348 67.2963 18.783 67.6543 19.047 67.9182C19.3109 68.1822 19.6689 68.3304 20.0422 68.3304H22.857C23.2303 68.3304 23.5882 68.1822 23.8522 67.9182C24.1161 67.6543 24.2644 67.2963 24.2644 66.923C24.2644 66.5498 24.1161 66.1918 23.8522 65.9278C23.5882 65.6639 23.2303 65.5156 22.857 65.5156Z" fill="black"/>
<path d="M83.0366 65.5156H79.5744C79.2011 65.5156 78.8432 65.6639 78.5792 65.9278C78.3153 66.1918 78.167 66.5498 78.167 66.923C78.167 67.2963 78.3153 67.6543 78.5792 67.9182C78.8432 68.1822 79.2011 68.3304 79.5744 68.3304H83.0366C83.4099 68.3304 83.7679 68.1822 84.0318 67.9182C84.2957 67.6543 84.444 67.2963 84.444 66.923C84.444 66.5498 84.2957 66.1918 84.0318 65.9278C83.7679 65.6639 83.4099 65.5156 83.0366 65.5156Z" fill="black"/>
<path d="M73.0298 65.5156H69.5676C69.1943 65.5156 68.8363 65.6639 68.5724 65.9278C68.3084 66.1918 68.1602 66.5498 68.1602 66.923C68.1602 67.2963 68.3084 67.6543 68.5724 67.9182C68.8363 68.1822 69.1943 68.3304 69.5676 68.3304H73.0298C73.4031 68.3304 73.761 68.1822 74.025 67.9182C74.2889 67.6543 74.4372 67.2963 74.4372 66.923C74.4372 66.5498 74.2889 66.1918 74.025 65.9278C73.761 65.6639 73.4031 65.5156 73.0298 65.5156Z" fill="black"/>
<path d="M62.8541 65.5156H30.0334C29.6601 65.5156 29.3021 65.6639 29.0382 65.9278C28.7743 66.1918 28.626 66.5498 28.626 66.923C28.626 67.2963 28.7743 67.6543 29.0382 67.9182C29.3021 68.1822 29.6601 68.3304 30.0334 68.3304H62.8541C63.2274 68.3304 63.5854 68.1822 63.8493 67.9182C64.1133 67.6543 64.2615 67.2963 64.2615 66.923C64.2615 66.5498 64.1133 66.1918 63.8493 65.9278C63.5854 65.6639 63.2274 65.5156 62.8541 65.5156Z" fill="black"/>
</svg>
