<svg width="15" height="16" viewBox="0 0 17 19" fill="none" xmlns="http://www.w3.org/2000/svg">
<path d="M16.25 8C16.25 7.58579 15.9142 7.25 15.5 7.25C15.0858 7.25 14.75 7.58579 14.75 8H16.25ZM2.40249 15.7756C2.1212 15.4715 1.64669 15.4531 1.34264 15.7344C1.03858 16.0157 1.02013 16.4902 1.30142 16.7942L2.40249 15.7756ZM15.2307 8.18913L15.816 8.65809L15.2307 8.18913ZM16.012 8.3706C16.2167 8.01049 16.0907 7.55264 15.7306 7.34796C15.3705 7.14328 14.9126 7.26929 14.7079 7.6294L16.012 8.3706ZM14.75 3.5C14.75 3.5388 14.7301 3.67713 14.466 3.90007C14.2055 4.12008 13.784 4.352 13.1975 4.56146C12.031 4.97805 10.3703 5.25 8.5 5.25V6.75C10.4957 6.75 12.3349 6.46231 13.702 5.97407C14.3823 5.73112 14.9859 5.42434 15.4338 5.04615C15.8782 4.67091 16.25 4.15156 16.25 3.5H14.75ZM8.5 5.25C6.6297 5.25 4.96895 4.97805 3.8025 4.56146C3.21602 4.352 2.79451 4.12008 2.53396 3.90007C2.26993 3.67713 2.25 3.5388 2.25 3.5H0.75C0.75 4.15156 1.12183 4.67091 1.56623 5.04615C2.01411 5.42434 2.61774 5.73112 3.298 5.97407C4.66505 6.46231 6.50431 6.75 8.5 6.75V5.25ZM2.25 3.5C2.25 3.4612 2.26993 3.32287 2.53396 3.09993C2.79451 2.87992 3.21602 2.648 3.8025 2.43854C4.96895 2.02195 6.6297 1.75 8.5 1.75V0.25C6.50431 0.25 4.66505 0.537693 3.298 1.02593C2.61774 1.26888 2.01411 1.57566 1.56623 1.95385C1.12183 2.32909 0.75 2.84844 0.75 3.5H2.25ZM8.5 1.75C10.3703 1.75 12.031 2.02195 13.1975 2.43854C13.784 2.648 14.2055 2.87992 14.466 3.09993C14.7301 3.32287 14.75 3.4612 14.75 3.5H16.25C16.25 2.84844 15.8782 2.32909 15.4338 1.95385C14.9859 1.57566 14.3823 1.26888 13.702 1.02593C12.3349 0.537693 10.4957 0.25 8.5 0.25V1.75ZM8.5 9.25C6.6297 9.25 4.96895 8.97805 3.8025 8.56146C3.21602 8.352 2.79451 8.12008 2.53396 7.90007C2.26993 7.67713 2.25 7.5388 2.25 7.5H0.75C0.75 8.15156 1.12183 8.67091 1.56623 9.04615C2.01411 9.42434 2.61774 9.73112 3.298 9.97407C4.66505 10.4623 6.50431 10.75 8.5 10.75V9.25ZM14.75 11.5C14.75 11.5388 14.7301 11.6771 14.466 11.9001C14.2055 12.1201 13.784 12.352 13.1975 12.5615C12.031 12.978 10.3703 13.25 8.5 13.25V14.75C10.4957 14.75 12.3349 14.4623 13.702 13.9741C14.3823 13.7311 14.9859 13.4243 15.4338 13.0462C15.8782 12.6709 16.25 12.1516 16.25 11.5H14.75ZM8.5 13.25C6.6297 13.25 4.96895 12.978 3.8025 12.5615C3.21602 12.352 2.79451 12.1201 2.53396 11.9001C2.26993 11.6771 2.25 11.5388 2.25 11.5H0.75C0.75 12.1516 1.12183 12.6709 1.56623 13.0462C2.01411 13.4243 2.61774 13.7311 3.298 13.9741C4.66505 14.4623 6.50431 14.75 8.5 14.75V13.25ZM14.75 15.5C14.75 15.5388 14.7301 15.6771 14.466 15.9001C14.2055 16.1201 13.784 16.352 13.1975 16.5615C12.031 16.978 10.3703 17.25 8.5 17.25V18.75C10.4957 18.75 12.3349 18.4623 13.702 17.9741C14.3823 17.7311 14.9859 17.4243 15.4338 17.0462C15.8782 16.6709 16.25 16.1516 16.25 15.5H14.75ZM14.75 8V15.5H16.25V8H14.75ZM0.75 3.5V9.5H2.25V3.5H0.75ZM0.75 9.5V11.5H2.25V9.5H0.75ZM8.5 17.25C7.0049 17.25 5.63832 17.0761 4.55008 16.7906C3.42982 16.4966 2.71462 16.113 2.40249 15.7756L1.30142 16.7942C1.91091 17.453 2.9706 17.9269 4.16939 18.2415C5.40019 18.5644 6.89682 18.75 8.5 18.75V17.25ZM14.6454 7.72017C14.3817 8.04926 13.6964 8.45052 12.5522 8.76319C11.4485 9.06482 10.043 9.25 8.5 9.25V10.75C10.1537 10.75 11.6947 10.5525 12.9477 10.2101C14.1603 9.87875 15.2419 9.37458 15.816 8.65809L14.6454 7.72017ZM14.7079 7.6294C14.693 7.65572 14.6727 7.6861 14.6454 7.72017L15.816 8.65809C15.8882 8.56799 15.9543 8.47221 16.012 8.3706L14.7079 7.6294Z" fill="#616161"/>
</svg>
