<svg width="25" height="25" viewBox="0 0 25 25" fill="none" xmlns="http://www.w3.org/2000/svg">
<path d="M20.756 7.0957C21.6069 8.56657 22.0938 10.2743 22.0938 12.0957C22.0938 17.6186 17.6167 22.0957 12.0938 22.0957C10.3373 22.0957 8.68658 21.6428 7.25201 20.8475C6.987 20.7005 6.6724 20.6638 6.3867 20.7648L3.8641 21.6562C2.91297 21.9923 1.99677 21.0761 2.33286 20.1249L3.26114 17.4979C3.35822 17.2232 3.32811 16.9211 3.19488 16.6619C2.49108 15.2931 2.09384 13.7408 2.09384 12.0957C2.09384 6.57286 6.57099 2.0957 12.0938 2.0957C14.3455 2.0957 16.4233 2.83988 18.0948 4.0957" stroke="#616161" stroke-width="1.5" stroke-linecap="round"/>
<circle cx="7.1438" cy="12.1455" r="1.25" fill="#616161"/>
<circle cx="12.1438" cy="12.1455" r="1.25" fill="#616161"/>
<circle cx="17.1438" cy="12.1455" r="1.25" fill="#616161"/>
</svg>
