<svg width="21" height="22" viewBox="0 0 21 22" fill="none" xmlns="http://www.w3.org/2000/svg">
<path d="M18.25 11.7285V15.2051C18.25 17.6051 16.3044 19.5508 13.9043 19.5508H6.95117C4.55111 19.5508 2.60547 17.6051 2.60547 15.2051V8.25195C2.60547 5.85189 4.55111 3.90625 6.95117 3.90625H10.4277" stroke="#1850BC" stroke-width="1.30371" stroke-linecap="round"/>
<path d="M11.5538 6.40472L14.553 3.40098C15.2314 2.72162 16.3316 2.72121 17.0104 3.40005L18.4527 4.84238C19.1258 5.51543 19.1328 6.60503 18.4684 7.28667L12.0116 13.9114C11.521 14.4147 10.8482 14.6985 10.1456 14.6985L8.17075 14.6984C7.61717 14.6984 7.17507 14.2369 7.19835 13.6834V13.6834L7.24104 12.6685L7.28373 11.6535V11.6535C7.31119 11.0007 7.58248 10.3821 8.04393 9.91994L9.44013 8.52163" stroke="#1850BC" stroke-width="1.30371" stroke-linecap="round"/>
<path d="M15.3627 7.04114L16.8281 8.50659" stroke="#1850BC" stroke-width="1.30371" stroke-linecap="round" stroke-linejoin="round"/>
</svg>
