<svg width="16" height="15" viewBox="0 0 16 15" fill="none" xmlns="http://www.w3.org/2000/svg">
<path d="M7.35109 0.424904C7.57283 -0.104527 8.32295 -0.104526 8.54469 0.424905L10.1168 4.17833C10.2101 4.40106 10.4196 4.55331 10.6603 4.5732L14.7158 4.90846C15.2878 4.95575 15.5196 5.66916 15.0846 6.04365L12.0007 8.69866C11.8177 8.8562 11.7377 9.10255 11.7931 9.33757L12.7275 13.2982C12.8593 13.8569 12.2524 14.2978 11.7618 13.9998L8.28379 11.8872C8.0774 11.7619 7.81838 11.7619 7.61199 11.8872L4.13395 13.9998C3.64336 14.2978 3.0365 13.8569 3.1683 13.2982L4.10267 9.33757C4.15812 9.10255 4.07808 8.8562 3.89507 8.69866L0.811153 6.04365C0.376158 5.66915 0.607958 4.95575 1.18 4.90846L5.23552 4.5732C5.47617 4.55331 5.68572 4.40106 5.77901 4.17833L7.35109 0.424904Z" fill="#D9D9D9"/>
</svg>
