<svg width="82" height="83" viewBox="0 0 82 83" fill="none" xmlns="http://www.w3.org/2000/svg">
<g clip-path="url(#clip0_314_125238)">
<path d="M73.6012 40.532H59.6364C60.4211 39.7596 61.0448 38.8391 61.4713 37.824C61.8979 36.8088 62.1188 35.7192 62.1212 34.618V21.8956C62.1212 21.5661 61.9903 21.2501 61.7573 21.0171C61.5243 20.7841 61.2083 20.6532 60.8788 20.6532C60.5493 20.6532 60.2333 20.7841 60.0003 21.0171C59.7673 21.2501 59.6364 21.5661 59.6364 21.8956V34.618C59.6364 36.1865 59.0133 37.6908 57.9042 38.7998C56.7951 39.9089 55.2909 40.532 53.7224 40.532H28.2776C26.7091 40.532 25.2049 39.9089 24.0958 38.7998C22.9867 37.6908 22.3636 36.1865 22.3636 34.618V9.1732C22.3636 7.60473 22.9867 6.10049 24.0958 4.99142C25.2049 3.88234 26.7091 3.25926 28.2776 3.25926H53.7224C55.2909 3.25926 56.7951 3.88234 57.9042 4.99142C59.0133 6.10049 59.6364 7.60473 59.6364 9.1732V15.3853C59.6364 15.7148 59.7673 16.0309 60.0003 16.2639C60.2333 16.4969 60.5493 16.6277 60.8788 16.6277C61.2083 16.6277 61.5243 16.4969 61.7573 16.2639C61.9903 16.0309 62.1212 15.7148 62.1212 15.3853V9.1732C62.1212 6.94571 61.2363 4.80944 59.6613 3.23436C58.0862 1.65928 55.9499 0.774414 53.7224 0.774414L28.2776 0.774414C26.0501 0.774414 23.9138 1.65928 22.3387 3.23436C20.7637 4.80944 19.8788 6.94571 19.8788 9.1732V34.618C19.8812 35.7192 20.1021 36.8088 20.5287 37.824C20.9552 38.8391 21.5789 39.7596 22.3636 40.532H8.39879C6.17129 40.532 4.03503 41.4169 2.45995 42.9919C0.88487 44.567 0 46.7033 0 48.9308L0 56.3853C0 56.7148 0.130898 57.0308 0.363898 57.2638C0.596897 57.4968 0.912913 57.6277 1.24242 57.6277C1.57194 57.6277 1.88795 57.4968 2.12095 57.2638C2.35395 57.0308 2.48485 56.7148 2.48485 56.3853V48.9308C2.48485 47.3623 3.10792 45.8581 4.217 44.749C5.32608 43.6399 6.83031 43.0168 8.39879 43.0168H33.8436C35.4121 43.0168 36.9163 43.6399 38.0254 44.749C39.1345 45.8581 39.7576 47.3623 39.7576 48.9308V74.3756C39.7576 75.9441 39.1345 77.4483 38.0254 78.5574C36.9163 79.6665 35.4121 80.2896 33.8436 80.2896H8.39879C6.83031 80.2896 5.32608 79.6665 4.217 78.5574C3.10792 77.4483 2.48485 75.9441 2.48485 74.3756V63.6162C2.48485 63.2867 2.35395 62.9707 2.12095 62.7377C1.88795 62.5047 1.57194 62.3738 1.24242 62.3738C0.912913 62.3738 0.596897 62.5047 0.363898 62.7377C0.130898 62.9707 0 63.2867 0 63.6162L0 74.3756C0 75.4786 0.217241 76.5707 0.63932 77.5897C1.0614 78.6087 1.68005 79.5346 2.45995 80.3145C3.23985 81.0944 4.16572 81.713 5.18471 82.1351C6.2037 82.5572 7.29584 82.7744 8.39879 82.7744H33.8436C35.2815 82.7732 36.6949 82.4023 37.9482 81.6974C39.2014 80.9925 40.2523 79.9771 41 78.749C41.7477 79.9771 42.7986 80.9925 44.0518 81.6974C45.3051 82.4023 46.7185 82.7732 48.1564 82.7744H57.4497C57.7792 82.7744 58.0952 82.6435 58.3282 82.4105C58.5612 82.1775 58.6921 81.8615 58.6921 81.532C58.6921 81.2025 58.5612 80.8865 58.3282 80.6535C58.0952 80.4205 57.7792 80.2896 57.4497 80.2896H48.1564C46.5879 80.2896 45.0837 79.6665 43.9746 78.5574C42.8655 77.4483 42.2424 75.9441 42.2424 74.3756V48.9308C42.2424 47.3623 42.8655 45.8581 43.9746 44.749C45.0837 43.6399 46.5879 43.0168 48.1564 43.0168H73.6012C75.1697 43.0168 76.6739 43.6399 77.783 44.749C78.8921 45.8581 79.5152 47.3623 79.5152 48.9308V74.3756C79.5152 75.9441 78.8921 77.4483 77.783 78.5574C76.6739 79.6665 75.1697 80.2896 73.6012 80.2896H65.3391C65.0096 80.2896 64.6936 80.4205 64.4606 80.6535C64.2276 80.8865 64.0967 81.2025 64.0967 81.532C64.0967 81.8615 64.2276 82.1775 64.4606 82.4105C64.6936 82.6435 65.0096 82.7744 65.3391 82.7744H73.6012C75.8287 82.7744 77.965 81.8895 79.5401 80.3145C81.1151 78.7394 82 76.6031 82 74.3756V48.9308C82 46.7033 81.1151 44.567 79.5401 42.9919C77.965 41.4169 75.8287 40.532 73.6012 40.532ZM41 44.5574C40.6467 43.9977 40.2298 43.4807 39.7576 43.0168H42.2424C41.7702 43.4807 41.3533 43.9977 41 44.5574Z" fill="#1850BC"/>
<path d="M59.6359 54.969C60.9132 54.5188 62.2921 54.4409 63.612 54.7445C64.9318 55.0481 66.1382 55.7205 67.0905 56.6835C67.2066 56.7987 67.3442 56.8898 67.4956 56.9516C67.647 57.0134 67.8091 57.0448 67.9726 57.0438C68.2985 57.0425 68.6109 56.9131 68.8423 56.6835C69.0737 56.4507 69.2036 56.1359 69.2036 55.8076C69.2036 55.4794 69.0737 55.1645 68.8423 54.9317C67.5534 53.6411 65.9236 52.7442 64.1436 52.346C62.3636 51.9477 60.5071 52.0646 58.7911 52.6829C58.546 52.8332 58.3607 53.0639 58.2666 53.3355C58.1726 53.6072 58.1756 53.903 58.2753 54.1727C58.3749 54.4423 58.565 54.6691 58.8131 54.8143C59.0612 54.9595 59.352 55.0142 59.6359 54.969Z" fill="#1850BC"/>
<path d="M57.0646 54.8691C56.8318 54.6377 56.5169 54.5078 56.1887 54.5078C55.8605 54.5078 55.5456 54.6377 55.3128 54.8691C53.5137 56.6682 52.5029 59.1084 52.5029 61.6527C52.5029 64.1971 53.5137 66.6372 55.3128 68.4364C57.1119 70.2355 59.5521 71.2463 62.0964 71.2463C64.6408 71.2463 67.0809 70.2355 68.8801 68.4364C68.9965 68.3209 69.089 68.1835 69.152 68.0321C69.2151 67.8807 69.2476 67.7183 69.2476 67.5543C69.2476 67.3902 69.2151 67.2278 69.152 67.0764C69.089 66.925 68.9965 66.7876 68.8801 66.6721C68.7676 66.5486 68.6313 66.449 68.4794 66.3794C68.3275 66.3098 68.1631 66.2715 67.9961 66.2669C67.8291 66.2622 67.6628 66.2913 67.5073 66.3524C67.3518 66.4135 67.2102 66.5053 67.091 66.6224C65.7294 67.7099 64.0157 68.2591 62.2756 68.1658C60.5356 68.0725 58.8904 67.3431 57.6529 66.1164C56.4154 64.8896 55.6717 63.2508 55.5633 61.5117C55.4548 59.7725 55.9891 58.0541 57.0646 56.683C57.1888 56.5668 57.2877 56.4264 57.3554 56.2704C57.423 56.1143 57.4579 55.9461 57.4579 55.7761C57.4579 55.606 57.423 55.4378 57.3554 55.2818C57.2877 55.1258 57.1888 54.9853 57.0646 54.8691Z" fill="#1850BC"/>
<path d="M47.2119 33.2637C47.5414 33.2637 47.8574 33.1328 48.0904 32.8998C48.3234 32.6668 48.4543 32.3508 48.4543 32.0213V18.4416C48.4579 17.4032 48.2556 16.3743 47.8589 15.4146C47.4622 14.455 46.8791 13.5835 46.1434 12.8507C46.0279 12.7342 45.8905 12.6418 45.7391 12.5787C45.5877 12.5156 45.4253 12.4832 45.2613 12.4832C45.0973 12.4832 44.9349 12.5156 44.7835 12.5787C44.6321 12.6418 44.4946 12.7342 44.3791 12.8507C44.1477 13.0835 44.0179 13.3984 44.0179 13.7266C44.0179 14.0548 44.1477 14.3697 44.3791 14.6025C44.885 15.1054 45.286 15.7037 45.559 16.3627C45.832 17.0217 45.9715 17.7283 45.9694 18.4416V22.3676H35.1479V18.4416C35.1479 17.0016 35.72 15.6206 36.7382 14.6024C37.7564 13.5842 39.1374 13.0122 40.5773 13.0122C40.9068 13.0122 41.2229 12.8813 41.4559 12.6483C41.6889 12.4153 41.8198 12.0993 41.8198 11.7698C41.8198 11.4403 41.6889 11.1242 41.4559 10.8912C41.2229 10.6582 40.9068 10.5273 40.5773 10.5273C38.4793 10.5306 36.4682 11.3655 34.9847 12.849C33.5012 14.3325 32.6664 16.3436 32.6631 18.4416V32.0213C32.6631 32.3508 32.794 32.6668 33.027 32.8998C33.26 33.1328 33.576 33.2637 33.9055 33.2637C34.235 33.2637 34.551 33.1328 34.784 32.8998C35.017 32.6668 35.1479 32.3508 35.1479 32.0213V24.8525H45.9694V32.0213C45.9694 32.3508 46.1003 32.6668 46.3333 32.8998C46.5663 33.1328 46.8824 33.2637 47.2119 33.2637Z" fill="#1850BC"/>
<path d="M28.2526 56.3976C28.2493 54.6764 27.5633 53.0268 26.345 51.8109C25.1268 50.595 23.4759 49.9121 21.7547 49.9121H15.8284C15.4989 49.9121 15.1828 50.043 14.9498 50.276C14.7168 50.509 14.5859 50.825 14.5859 51.1545V72.1515C14.5859 72.481 14.7168 72.797 14.9498 73.03C15.1828 73.263 15.4989 73.3939 15.8284 73.3939H21.7547C23.0851 73.405 24.3866 73.0059 25.482 72.2509C25.7494 72.0629 25.932 71.7771 25.9901 71.4554C26.0482 71.1338 25.9772 70.8022 25.7926 70.5325C25.6079 70.2628 25.3243 70.0767 25.0034 70.0147C24.6825 69.9526 24.35 70.0195 24.0781 70.2009C23.4051 70.6625 22.6081 70.9095 21.792 70.9091H17.0708V62.8954H21.7547C22.819 62.8954 23.8398 63.3182 24.5924 64.0708C25.345 64.8234 25.7678 65.8442 25.7678 66.9085C25.7862 67.14 25.7862 67.3727 25.7678 67.6042C25.7117 67.9337 25.7889 68.272 25.9823 68.5446C26.1757 68.8172 26.4695 69.0019 26.799 69.0579C27.1285 69.1139 27.4667 69.0367 27.7394 68.8433C28.012 68.6499 28.1966 68.3562 28.2526 68.0267C28.317 67.6574 28.3503 67.2833 28.352 66.9085C28.3412 65.8712 28.0803 64.8519 27.5915 63.937C27.1027 63.0221 26.4004 62.2386 25.5441 61.653C26.382 61.0565 27.065 60.2682 27.5362 59.354C28.0074 58.4398 28.253 57.4261 28.2526 56.3976ZM21.7547 60.4106H17.0708V52.397H21.7547C22.2997 52.3666 22.8451 52.4477 23.3576 52.6354C23.8701 52.823 24.339 53.1132 24.7355 53.4883C25.1321 53.8633 25.4479 54.3153 25.6638 54.8166C25.8796 55.3179 25.991 55.858 25.991 56.4038C25.991 56.9496 25.8796 57.4896 25.6638 57.9909C25.4479 58.4922 25.1321 58.9442 24.7355 59.3193C24.339 59.6943 23.8701 59.9845 23.3576 60.1722C22.8451 60.3598 22.2997 60.441 21.7547 60.4106Z" fill="#1850BC"/>
</g>
<defs>
<clipPath id="clip0_314_125238">
<rect width="82" height="82" fill="white" transform="translate(0 0.774414)"/>
</clipPath>
</defs>
</svg>
