<svg width="12" height="8" viewBox="0 0 12 8" fill="none" xmlns="http://www.w3.org/2000/svg">
<path d="M6.08804 7.44976C5.95471 7.44976 5.82971 7.42893 5.71304 7.38726C5.59638 7.3456 5.48804 7.27476 5.38804 7.17476L0.763043 2.54976C0.57971 2.36643 0.49221 2.13726 0.500543 1.86226C0.508877 1.58726 0.60471 1.3581 0.788043 1.17476C0.971377 0.991429 1.20471 0.899762 1.48804 0.899762C1.77138 0.899762 2.00471 0.991429 2.18804 1.17476L6.08804 5.07476L10.013 1.14976C10.1964 0.966429 10.4255 0.878929 10.7005 0.887262C10.9755 0.895596 11.2047 0.991429 11.388 1.17476C11.5714 1.3581 11.663 1.59143 11.663 1.87476C11.663 2.1581 11.5714 2.39143 11.388 2.57476L6.78804 7.17476C6.68804 7.27476 6.57971 7.3456 6.46304 7.38726C6.34638 7.42893 6.22138 7.44976 6.08804 7.44976Z" fill="#1C1B1F"/>
</svg>
