<svg width="22" height="23" viewBox="0 0 22 23" fill="none" xmlns="http://www.w3.org/2000/svg">
<mask id="mask0_22_1229" style="mask-type:alpha" maskUnits="userSpaceOnUse" x="0" y="0" width="22" height="23">
<rect y="0.5" width="21.1979" height="22.3136" fill="#D9D9D9"/>
</mask>
<g mask="url(#mask0_22_1229)">
<path d="M10.5992 15.3755C11.7033 15.3755 12.6417 14.9688 13.4146 14.1553C14.1874 13.3417 14.5738 12.3539 14.5738 11.1917C14.5738 10.0296 14.1874 9.04173 13.4146 8.22822C12.6417 7.4147 11.7033 7.00794 10.5992 7.00794C9.49518 7.00794 8.55673 7.4147 7.7839 8.22822C7.01106 9.04173 6.62464 10.0296 6.62464 11.1917C6.62464 12.3539 7.01106 13.3417 7.7839 14.1553C8.55673 14.9688 9.49518 15.3755 10.5992 15.3755ZM10.5992 13.702C9.9368 13.702 9.37374 13.458 8.91003 12.9698C8.44633 12.4817 8.21448 11.889 8.21448 11.1917C8.21448 10.4944 8.44633 9.90173 8.91003 9.41362C9.37374 8.92551 9.9368 8.68146 10.5992 8.68146C11.2617 8.68146 11.8247 8.92551 12.2884 9.41362C12.7521 9.90173 12.984 10.4944 12.984 11.1917C12.984 11.889 12.7521 12.4817 12.2884 12.9698C11.8247 13.458 11.2617 13.702 10.5992 13.702ZM10.5992 18.1647C8.45001 18.1647 6.49215 17.5333 4.72566 16.2704C2.95917 15.0075 1.67847 13.3146 0.883545 11.1917C1.67847 9.06885 2.95917 7.37596 4.72566 6.11308C6.49215 4.85019 8.45001 4.21875 10.5992 4.21875C12.7485 4.21875 14.7063 4.85019 16.4728 6.11308C18.2393 7.37596 19.52 9.06885 20.3149 11.1917C19.52 13.3146 18.2393 15.0075 16.4728 16.2704C14.7063 17.5333 12.7485 18.1647 10.5992 18.1647ZM10.5992 16.3053C12.2627 16.3053 13.79 15.8443 15.1811 14.9223C16.5722 14.0003 17.6358 12.7568 18.3718 11.1917C17.6358 9.62669 16.5722 8.38317 15.1811 7.46119C13.79 6.5392 12.2627 6.07821 10.5992 6.07821C8.93579 6.07821 7.40852 6.5392 6.01741 7.46119C4.6263 8.38317 3.56272 9.62669 2.82668 11.1917C3.56272 12.7568 4.6263 14.0003 6.01741 14.9223C7.40852 15.8443 8.93579 16.3053 10.5992 16.3053Z" fill="#BBBBBB"/>
</g>
</svg>
