<svg width="21" height="21" viewBox="0 0 21 21" fill="none" xmlns="http://www.w3.org/2000/svg">
<rect width="19.5478" height="19.5478" transform="translate(0.616943 0.726562)" fill="#1850BC"/>
<path d="M19.7577 10.5577C19.7577 5.3846 15.5642 1.191 10.3911 1.191C5.21801 1.191 1.02441 5.3846 1.02441 10.5577C1.02441 15.2328 4.44967 19.1079 8.92754 19.8105V13.2652H6.54928V10.5577H8.92754V8.49408C8.92754 6.14655 10.3259 4.84986 12.4655 4.84986C13.4903 4.84986 14.5622 5.0328 14.5622 5.0328V7.33788H13.3811C12.2175 7.33788 11.8546 8.0599 11.8546 8.80063V10.5577H14.4524L14.0371 13.2652H11.8546V19.8105C16.3325 19.1079 19.7577 15.2328 19.7577 10.5577Z" fill="white"/>
</svg>
