<svg width="20" height="20" viewBox="0 0 20 20" fill="none" xmlns="http://www.w3.org/2000/svg">
<g id="function">
<mask id="mask0_434_16201" style="mask-type:alpha" maskUnits="userSpaceOnUse" x="0" y="0" width="20" height="20">
<rect id="Bounding box" width="20" height="20" fill="#D9D9D9"/>
</mask>
<g mask="url(#mask0_434_16201)">
<path id="function_2" d="M8.46154 14.7913V13.5413H9.64102L12.0048 10.833L9.64102 8.12463H8.15384L6.8205 15.123C6.68803 15.8335 6.43777 16.3725 6.06971 16.74C5.70165 17.1075 5.22649 17.2913 4.64423 17.2913C4.08869 17.2913 3.63517 17.1407 3.28367 16.8394C2.93218 16.5381 2.75644 16.1391 2.75644 15.6423C2.75644 15.2673 2.85446 14.9657 3.0505 14.7377C3.24654 14.5096 3.49574 14.3955 3.79808 14.3955C4.08654 14.3955 4.33227 14.4949 4.53525 14.6936C4.73824 14.8923 4.83973 15.1316 4.83973 15.4115C4.83973 15.5237 4.81489 15.6223 4.76521 15.7072C4.71553 15.7921 4.65436 15.8586 4.58171 15.9067C4.60842 15.9334 4.64581 15.9561 4.6939 15.9748C4.74198 15.9935 4.7954 16.0029 4.85417 16.0029C5.03579 15.9943 5.1843 15.9107 5.29969 15.7521C5.41508 15.5934 5.50803 15.349 5.57854 15.0189L6.87823 8.12463H4.45515V6.87468H7.11061L7.53206 4.59582C7.63998 4.00928 7.8817 3.54801 8.25723 3.21201C8.63276 2.87601 9.09349 2.70801 9.63944 2.70801C10.1864 2.70801 10.6357 2.86853 10.9872 3.18957C11.3387 3.51061 11.5144 3.91526 11.5144 4.40351C11.5144 4.76141 11.4164 5.0544 11.2204 5.28249C11.0243 5.51058 10.7751 5.62463 10.4728 5.62463C10.1843 5.62463 9.93859 5.52661 9.73559 5.33057C9.5326 5.13453 9.43111 4.89228 9.43111 4.60382C9.43111 4.49164 9.45595 4.39308 9.50563 4.30813C9.55532 4.2232 9.61916 4.1567 9.69715 4.10861C9.67044 4.07656 9.62904 4.04985 9.57294 4.02849C9.51686 4.00711 9.45943 3.99642 9.40065 3.99642C9.22651 4.01352 9.08788 4.08992 8.98477 4.22561C8.88168 4.36129 8.80288 4.56215 8.74838 4.8282L8.39421 6.87468H12.2115V8.12463H11.2964L12.8365 9.8827L14.3766 8.12463H13.4615V6.87468H17.2115V8.12463H16.032L13.6683 10.833L16.04 13.5413H17.2115V14.7913H13.4615V13.5413H14.3766L12.8365 11.7705L11.2964 13.5413H12.2115V14.7913H8.46154Z" fill="#616161"/>
</g>
</g>
</svg>
