<svg width="20" height="19" viewBox="0 0 20 19" fill="none" xmlns="http://www.w3.org/2000/svg">
<path fill-rule="evenodd" clip-rule="evenodd" d="M18.9756 9.80067C18.9756 9.13649 18.916 8.49786 18.8053 7.88477H9.98364V11.508H15.0246C14.8075 12.6788 14.1476 13.6708 13.1555 14.335V16.6852H16.1827C17.9538 15.0545 18.9756 12.6532 18.9756 9.80067Z" fill="#4285F4"/>
<path fill-rule="evenodd" clip-rule="evenodd" d="M9.98319 18.9542C12.5122 18.9542 14.6325 18.1154 16.1822 16.6849L13.1551 14.3347C12.3163 14.8967 11.2434 15.2288 9.98319 15.2288C7.5436 15.2288 5.47867 13.5811 4.74211 11.3672H1.61279V13.794C3.15404 16.8552 6.32167 18.9542 9.98319 18.9542Z" fill="#34A853"/>
<path fill-rule="evenodd" clip-rule="evenodd" d="M4.74253 11.367C4.5552 10.805 4.44876 10.2047 4.44876 9.58734C4.44876 8.97 4.5552 8.36968 4.74253 7.80768V5.38086H1.61322C0.978837 6.64536 0.616943 8.0759 0.616943 9.58734C0.616943 11.0988 0.978837 12.5293 1.61322 13.7938L4.74253 11.367Z" fill="#FBBC05"/>
<path fill-rule="evenodd" clip-rule="evenodd" d="M9.98319 3.94608C11.3584 3.94608 12.5931 4.41867 13.5638 5.34682L16.2503 2.66029C14.6282 1.14885 12.5079 0.220703 9.98319 0.220703C6.32167 0.220703 3.15404 2.31969 1.61279 5.38088L4.74211 7.8077C5.47867 5.59376 7.5436 3.94608 9.98319 3.94608Z" fill="#EA4335"/>
</svg>
