<svg width="48" height="81" viewBox="0 0 48 81" fill="none" xmlns="http://www.w3.org/2000/svg">
<g clip-path="url(#clip0_314_125211)">
<path d="M43.9177 69.5627V66.69C43.9177 65.7255 43.5371 64.8006 42.8596 64.1187C42.1821 63.4367 41.2632 63.0536 40.3051 63.0536H38.7155C33.6819 52.7021 32.8991 40.993 32.6944 29.7566C33.4994 29.7503 34.2694 29.4247 34.8375 28.8507C35.4056 28.2766 35.7259 27.5002 35.729 26.69V24.0839C37.2073 24.0004 38.5979 23.3515 39.6164 22.27C40.635 21.1884 41.2044 19.756 41.2082 18.2657V12.0718C41.2082 11.7503 41.0814 11.442 40.8555 11.2147C40.6297 10.9874 40.3234 10.8597 40.004 10.8597C39.6846 10.8597 39.3783 10.9874 39.1525 11.2147C38.9267 11.442 38.7998 11.7503 38.7998 12.0718V18.2657C38.7998 19.1723 38.442 20.0417 37.8052 20.6827C37.1683 21.3238 36.3046 21.6839 35.4039 21.6839H12.6202C11.7195 21.6839 10.8558 21.3238 10.2189 20.6827C9.58206 20.0417 9.22428 19.1723 9.22428 18.2657V5.21118C9.22428 4.67432 9.43616 4.15944 9.8133 3.77982C10.1904 3.40021 10.702 3.18694 11.2353 3.18694C11.7687 3.18694 12.2802 3.40021 12.6573 3.77982C13.0345 4.15944 13.2464 4.67432 13.2464 5.21118V9.11421C13.3046 10.2207 13.7823 11.2625 14.581 12.025C15.3797 12.7875 16.4386 13.2125 17.5394 13.2125C18.6402 13.2125 19.6991 12.7875 20.4978 12.025C21.2965 11.2625 21.7742 10.2207 21.8324 9.11421V5.21118C21.8356 4.67642 22.0489 4.16466 22.4257 3.78765C22.8025 3.41065 23.3122 3.19905 23.8435 3.19906H24.1686C24.6999 3.19905 25.2096 3.41065 25.5864 3.78765C25.9632 4.16466 26.1764 4.67642 26.1796 5.21118V9.11421C26.2379 10.2207 26.7156 11.2625 27.5143 12.025C28.313 12.7875 29.3719 13.2125 30.4727 13.2125C31.5735 13.2125 32.6323 12.7875 33.431 12.025C34.2297 11.2625 34.7074 10.2207 34.7657 9.11421V5.21118C34.8048 4.70294 35.0331 4.22828 35.4048 3.88204C35.7765 3.5358 36.2643 3.34346 36.7707 3.34346C37.2771 3.34346 37.7649 3.5358 38.1366 3.88204C38.5083 4.22828 38.7366 4.70294 38.7757 5.21118V8.16876C38.7757 8.49023 38.9026 8.79854 39.1284 9.02586C39.3543 9.25317 39.6606 9.38088 39.9799 9.38088C40.2993 9.38088 40.6056 9.25317 40.8314 9.02586C41.0573 8.79854 41.1841 8.49023 41.1841 8.16876V5.21118C41.1251 4.07311 40.6343 3.00126 39.8131 2.21673C38.9919 1.4322 37.9029 0.994825 36.7707 0.994825C35.6385 0.994825 34.5495 1.4322 33.7283 2.21673C32.9071 3.00126 32.4163 4.07311 32.3573 5.21118V9.11421C32.3193 9.59113 32.1044 10.0362 31.7551 10.3607C31.4059 10.6853 30.948 10.8655 30.4727 10.8655C29.9973 10.8655 29.5394 10.6853 29.1902 10.3607C28.8409 10.0362 28.626 9.59113 28.5881 9.11421V5.21118C28.5881 4.62757 28.4737 4.04969 28.2514 3.51065C28.0292 2.97162 27.7034 2.48202 27.2929 2.0699C26.8824 1.65779 26.3951 1.33126 25.8589 1.10903C25.3228 0.886795 24.7484 0.773222 24.1686 0.774817H23.8435C22.6734 0.774812 21.5511 1.24183 20.7227 2.07346C19.8942 2.90509 19.4272 4.03347 19.424 5.21118V9.11421C19.3861 9.59113 19.1711 10.0362 18.8218 10.3607C18.4726 10.6853 18.0147 10.8655 17.5394 10.8655C17.0641 10.8655 16.6062 10.6853 16.2569 10.3607C15.9077 10.0362 15.6927 9.59113 15.6548 9.11421V5.21118C15.6548 4.03137 15.1892 2.89988 14.3604 2.06563C13.5315 1.23137 12.4074 0.762695 11.2353 0.762695C10.0632 0.762695 8.9391 1.23137 8.11029 2.06563C7.28148 2.89988 6.81586 4.03137 6.81586 5.21118V18.2657C6.81967 19.756 7.38911 21.1884 8.40765 22.27C9.42618 23.3515 10.8168 24.0004 12.295 24.0839V26.7263C12.2982 27.5366 12.6185 28.3129 13.1866 28.887C13.7547 29.4611 14.5247 29.7866 15.3297 29.793C15.2694 32.5445 15.1972 34.8839 15.0768 37.0657C15.067 37.225 15.0885 37.3846 15.1402 37.5354C15.1918 37.6863 15.2725 37.8254 15.3777 37.9447C15.4829 38.0641 15.6104 38.1614 15.753 38.231C15.8956 38.3007 16.0505 38.3413 16.2087 38.3506C16.516 38.3511 16.8118 38.2335 17.0357 38.0216C17.2595 37.8098 17.3945 37.5199 17.4129 37.2112C17.5334 35.0172 17.6297 32.6536 17.6899 29.8536H30.2619C30.4787 40.5445 31.2373 52.5809 36.0301 63.1385H11.9458C14.8615 56.3963 16.6088 49.2015 17.1119 41.8657C17.1422 41.5443 17.0445 41.2238 16.8401 40.9749C16.6357 40.726 16.3415 40.569 16.0221 40.5385C15.7027 40.5079 15.3843 40.6063 15.1371 40.812C14.8898 41.0178 14.7338 41.3139 14.7035 41.6354C13.8966 50.3506 12.1505 57.1991 9.27245 63.1385H7.68289C6.72476 63.1385 5.80587 63.5216 5.12837 64.2035C4.45086 64.8855 4.07025 65.8104 4.07025 66.7748V69.6475C3.00502 69.6536 1.98406 70.0772 1.22411 70.8286C0.464158 71.5799 0.0250477 72.5998 0 73.6718L0 77.8778C0 78.6462 0.303225 79.383 0.842968 79.9263C1.38271 80.4696 2.11476 80.7748 2.87807 80.7748H9.2002C9.51958 80.7748 9.82587 80.6471 10.0517 80.4198C10.2775 80.1925 10.4044 79.8842 10.4044 79.5627C10.4044 79.2412 10.2775 78.9329 10.0517 78.7056C9.82587 78.4783 9.51958 78.3506 9.2002 78.3506H2.87807C2.81595 78.3522 2.75413 78.3412 2.69641 78.318C2.63868 78.2948 2.58624 78.2601 2.5423 78.2158C2.49835 78.1716 2.46382 78.1188 2.4408 78.0607C2.41779 78.0026 2.40677 77.9404 2.40843 77.8778V73.6718C2.41161 73.2238 2.59063 72.7953 2.90646 72.4797C3.22228 72.164 3.64928 71.9869 4.09433 71.9869H43.9177C44.3616 71.9869 44.7874 72.1644 45.1013 72.4804C45.4152 72.7964 45.5916 73.2249 45.5916 73.6718V77.8778C45.5932 77.9393 45.5825 78.0005 45.5603 78.0578C45.538 78.1151 45.5045 78.1673 45.4619 78.2114C45.4192 78.2555 45.3682 78.2905 45.3119 78.3144C45.2556 78.3383 45.1951 78.3506 45.134 78.3506H13.5956C13.2762 78.3506 12.9699 78.4783 12.7441 78.7056C12.5182 78.9329 12.3914 79.2412 12.3914 79.5627C12.3914 79.8842 12.5182 80.1925 12.7441 80.4198C12.9699 80.6471 13.2762 80.7748 13.5956 80.7748H45.134C45.8952 80.7716 46.6241 80.465 47.1613 79.9221C47.6984 79.3791 48 78.6441 48 77.8778V73.6718C48 72.582 47.5699 71.5368 46.8043 70.7662C46.0387 69.9956 45.0004 69.5627 43.9177 69.5627ZM15.3537 27.4415C15.1813 27.4415 15.0159 27.3725 14.8939 27.2498C14.772 27.127 14.7035 26.9605 14.7035 26.7869V24.1082H33.2965V26.7263C33.2965 26.8999 33.228 27.0664 33.1061 27.1892C32.9841 27.3119 32.8187 27.3809 32.6463 27.3809L15.3537 27.4415ZM6.5148 69.5627V66.69C6.5148 66.3685 6.64167 66.0602 6.86751 65.8329C7.09334 65.6056 7.39964 65.4778 7.71902 65.4778H40.3532C40.6726 65.4778 40.9789 65.6056 41.2047 65.8329C41.4306 66.0602 41.5574 66.3685 41.5574 66.69V69.5627H6.5148Z" fill="#64420E"/>
</g>
<defs>
<clipPath id="clip0_314_125211">
<rect width="48" height="80" fill="white" transform="translate(0 0.774414)"/>
</clipPath>
</defs>
</svg>
