<svg width="33" height="34" viewBox="0 0 33 34" fill="none" xmlns="http://www.w3.org/2000/svg">
<mask id="mask0_37_4950" style="mask-type:alpha" maskUnits="userSpaceOnUse" x="0" y="0" width="33" height="34">
<rect y="0.5" width="33" height="33" fill="#D9D9D9"/>
</mask>
<g mask="url(#mask0_37_4950)">
<path d="M16.5728 23.875C16.8986 23.875 17.1703 23.7652 17.388 23.5456C17.6057 23.326 17.7146 23.0538 17.7146 22.7292V16.7708C17.7146 16.4462 17.6044 16.1741 17.384 15.9544C17.1636 15.7348 16.8905 15.625 16.5647 15.625C16.2389 15.625 15.9672 15.7348 15.7495 15.9544C15.5318 16.1741 15.4229 16.4462 15.4229 16.7708V22.7292C15.4229 23.0538 15.5331 23.326 15.7535 23.5456C15.9739 23.7652 16.247 23.875 16.5728 23.875ZM16.4996 13.0125C16.8436 13.0125 17.1321 12.8983 17.3651 12.6699C17.5981 12.4415 17.7146 12.1585 17.7146 11.8209C17.7146 11.4702 17.5982 11.1763 17.3655 10.9391C17.1328 10.702 16.8444 10.5834 16.5004 10.5834C16.1564 10.5834 15.8679 10.702 15.6349 10.9391C15.4019 11.1763 15.2854 11.4702 15.2854 11.8209C15.2854 12.1585 15.4018 12.4415 15.6345 12.6699C15.8672 12.8983 16.1556 13.0125 16.4996 13.0125ZM16.5061 30.75C14.6081 30.75 12.8244 30.3891 11.1551 29.6672C9.48572 28.9453 8.02848 27.9618 6.78332 26.7167C5.53819 25.4715 4.55469 24.0137 3.83281 22.3433C3.11094 20.6728 2.75 18.8879 2.75 16.9886C2.75 15.0892 3.11094 13.3043 3.83281 11.6339C4.55469 9.96337 5.53819 8.50938 6.78332 7.27188C8.02848 6.03438 9.48629 5.05469 11.1568 4.33281C12.8272 3.61094 14.6121 3.25 16.5114 3.25C18.4108 3.25 20.1957 3.61094 21.8661 4.33281C23.5366 5.05469 24.9906 6.03438 26.2281 7.27188C27.4656 8.50938 28.4453 9.96458 29.1672 11.6375C29.8891 13.3104 30.25 15.0959 30.25 16.9939C30.25 18.8919 29.8891 20.6756 29.1672 22.3449C28.4453 24.0143 27.4656 25.4701 26.2281 26.7125C24.9906 27.9548 23.5354 28.9383 21.8625 29.663C20.1896 30.3877 18.4041 30.75 16.5061 30.75Z" fill="#203A60" fill-opacity="0.74"/>
</g>
</svg>
