<svg width="21" height="21" viewBox="0 0 21 21" fill="none" xmlns="http://www.w3.org/2000/svg">
<path d="M10.9648 20.8877C9.58151 20.8877 8.28151 20.6252 7.06484 20.1002C5.84818 19.5752 4.78984 18.8627 3.88984 17.9627C2.98984 17.0627 2.27734 16.0044 1.75234 14.7877C1.22734 13.571 0.964844 12.271 0.964844 10.8877C0.964844 9.50436 1.22734 8.20436 1.75234 6.9877C2.27734 5.77103 2.98984 4.7127 3.88984 3.8127C4.78984 2.9127 5.84818 2.2002 7.06484 1.6752C8.28151 1.1502 9.58151 0.887695 10.9648 0.887695C11.7648 0.887695 12.544 0.979362 13.3023 1.1627C14.0607 1.34603 14.7898 1.6127 15.4898 1.9627C15.7398 2.09603 15.9023 2.29603 15.9773 2.5627C16.0523 2.82936 16.0065 3.07936 15.8398 3.3127C15.6732 3.54603 15.4523 3.69603 15.1773 3.7627C14.9023 3.82936 14.6315 3.79603 14.3648 3.6627C13.8315 3.4127 13.2773 3.22103 12.7023 3.0877C12.1273 2.95436 11.5482 2.8877 10.9648 2.8877C8.74818 2.8877 6.86068 3.66686 5.30234 5.2252C3.74401 6.78353 2.96484 8.67103 2.96484 10.8877C2.96484 13.1044 3.74401 14.9919 5.30234 16.5502C6.86068 18.1085 8.74818 18.8877 10.9648 18.8877C13.1815 18.8877 15.069 18.1085 16.6273 16.5502C18.1857 14.9919 18.9648 13.1044 18.9648 10.8877C18.9648 10.7544 18.9607 10.6252 18.9523 10.5002C18.944 10.3752 18.9315 10.246 18.9148 10.1127C18.8815 9.82936 18.9357 9.55853 19.0773 9.3002C19.219 9.04186 19.4315 8.87103 19.7148 8.7877C19.9815 8.70436 20.2315 8.72936 20.4648 8.8627C20.6982 8.99603 20.8315 9.19603 20.8648 9.4627C20.8982 9.69603 20.9232 9.92936 20.9398 10.1627C20.9565 10.396 20.9648 10.6377 20.9648 10.8877C20.9648 12.271 20.7023 13.571 20.1773 14.7877C19.6523 16.0044 18.9398 17.0627 18.0398 17.9627C17.1398 18.8627 16.0815 19.5752 14.8648 20.1002C13.6482 20.6252 12.3482 20.8877 10.9648 20.8877ZM9.56484 12.6877L18.8648 3.3627C19.0482 3.17936 19.2773 3.08353 19.5523 3.0752C19.8273 3.06686 20.0648 3.1627 20.2648 3.3627C20.4482 3.54603 20.5398 3.77936 20.5398 4.0627C20.5398 4.34603 20.4482 4.57936 20.2648 4.7627L10.2648 14.7877C10.0648 14.9877 9.83151 15.0877 9.56484 15.0877C9.29818 15.0877 9.06484 14.9877 8.86484 14.7877L6.01484 11.9377C5.83151 11.7544 5.73984 11.521 5.73984 11.2377C5.73984 10.9544 5.83151 10.721 6.01484 10.5377C6.19818 10.3544 6.43151 10.2627 6.71484 10.2627C6.99818 10.2627 7.23151 10.3544 7.41484 10.5377L9.56484 12.6877Z" fill="#1C8827"/>
</svg>
