<svg width="85" height="89" viewBox="0 0 85 89" fill="none" xmlns="http://www.w3.org/2000/svg">
<g clip-path="url(#clip0_314_125228)">
<path d="M84.9153 3.23905C84.8799 3.01203 84.7894 2.7971 84.6517 2.613C84.514 2.42891 84.3332 2.28124 84.1252 2.18288C81.7949 1.20712 79.2862 0.727486 76.7596 0.774655C67.9831 0.774655 54.79 5.54854 41.4841 28.0942H27.7548C27.3806 28.0942 27.0217 28.2426 26.7571 28.5067C26.4924 28.7708 26.3438 29.129 26.3438 29.5024C26.3438 29.8759 26.4924 30.2341 26.7571 30.4982C27.0217 30.7623 27.3806 30.9107 27.7548 30.9107H51.9962C53.306 30.9107 54.5621 31.43 55.4883 32.3543C56.4144 33.2786 56.9348 34.5323 56.9348 35.8395C56.9348 37.1467 56.4144 38.4003 55.4883 39.3246C54.5621 40.249 53.306 40.7682 51.9962 40.7682H18.9218C17.612 40.7682 16.3559 40.249 15.4297 39.3246C14.5035 38.4003 13.9832 37.1467 13.9832 35.8395C13.9832 34.5323 14.5035 33.2786 15.4297 32.3543C16.3559 31.43 17.612 30.9107 18.9218 30.9107H21.7439C22.1181 30.9107 22.477 30.7623 22.7416 30.4982C23.0062 30.2341 23.1549 29.8759 23.1549 29.5024C23.1549 29.129 23.0062 28.7708 22.7416 28.5067C22.477 28.2426 22.1181 28.0942 21.7439 28.0942H18.9218C16.8636 28.0942 14.8896 28.9102 13.4342 30.3627C11.9788 31.8153 11.1612 33.7853 11.1612 35.8395C11.1612 37.8936 11.9788 39.8637 13.4342 41.3162C14.8896 42.7687 16.8636 43.5847 18.9218 43.5847H20.5304V44.5423C20.5304 45.0951 20.3104 45.6252 19.9187 46.016C19.5271 46.4069 18.9959 46.6265 18.4421 46.6265H13.1084C9.63542 46.6302 6.30555 48.0078 3.84846 50.4573C1.39137 52.9069 0.00746677 56.2287 0 59.6948L0 75.6922C0.003735 79.1608 1.38599 82.4862 3.84349 84.9388C6.30098 87.3914 9.63298 88.7709 13.1084 88.7747H57.8519C61.3224 88.7672 64.6487 87.388 67.1027 84.9388C69.5568 82.4896 70.9388 79.17 70.9462 75.7063V68.5807C70.9462 68.2072 70.7975 67.849 70.5329 67.5849C70.2683 67.3208 69.9094 67.1725 69.5352 67.1725C69.161 67.1725 68.8021 67.3208 68.5374 67.5849C68.2728 67.849 68.1242 68.2072 68.1242 68.5807V75.7063C68.1204 78.4241 67.037 81.0296 65.1114 82.9514C63.1858 84.8732 60.5751 85.9545 57.8519 85.9582H13.1084C10.3814 85.9545 7.76723 84.8717 5.83897 82.9473C3.91071 81.0228 2.82578 78.4138 2.82204 75.6922V59.6948C2.82578 56.9732 3.91071 54.3642 5.83897 52.4398C7.76723 50.5153 10.3814 49.4326 13.1084 49.4288H18.4421C19.7444 49.4288 20.9933 48.9125 21.9142 47.9935C22.8351 47.0744 23.3524 45.8279 23.3524 44.5282V43.5706H47.5656V44.5282C47.5693 45.8292 48.0898 47.0757 49.0129 47.9943C49.936 48.913 51.1864 49.4288 52.49 49.4288H57.8519C60.5751 49.4326 63.1858 50.5139 65.1114 52.4357C67.037 54.3574 68.1204 56.9629 68.1242 59.6807V62.976C68.1242 63.3494 68.2728 63.7076 68.5374 63.9717C68.8021 64.2358 69.161 64.3842 69.5352 64.3842C69.9094 64.3842 70.2683 64.2358 70.5329 63.9717C70.7975 63.7076 70.9462 63.3494 70.9462 62.976V59.6807C70.9388 56.2171 69.5568 52.8974 67.1027 50.4482C64.6487 47.9991 61.3224 46.6198 57.8519 46.6124H52.49C51.9349 46.6124 51.4022 46.3933 51.0084 46.0028C50.6145 45.6123 50.3913 45.0823 50.3876 44.5282V43.5706H51.9962C54.0544 43.5706 56.0284 42.7546 57.4838 41.3021C58.9392 39.8496 59.7568 37.8795 59.7568 35.8254C59.7568 33.7712 58.9392 31.8012 57.4838 30.3487C56.0284 28.8962 54.0544 28.0801 51.9962 28.0801H48.3698C54.1691 25.4082 60.3638 23.6914 66.7131 22.9964C73.0627 22.5317 77.8884 20.349 81.035 16.5186C83.9559 12.7367 85.3414 7.99509 84.9153 3.23905ZM66.572 20.2082C60.9255 20.754 55.3909 22.1301 50.1477 24.292C65.7395 10.9702 78.5234 9.68872 78.6645 9.67464C79.0367 9.64239 79.3808 9.46419 79.6215 9.17908C79.8622 8.89398 79.9798 8.52526 79.9485 8.15375C79.9162 7.78234 79.7377 7.43886 79.452 7.19864C79.1663 6.95842 78.7969 6.84105 78.4246 6.87227C77.8461 6.87227 65.2175 8.13967 49.4422 21.208C60.674 6.11183 71.0873 3.5911 76.7596 3.5911C78.5922 3.5727 80.4161 3.84361 82.1638 4.39379C82.4037 13.0685 77.3099 19.4196 66.572 20.2082Z" fill="#F3992F"/>
<path d="M20.8828 55.8223H15.8454C15.1242 55.8222 14.4102 55.9651 13.7447 56.2427C13.0793 56.5202 12.4757 56.9269 11.969 57.4392C11.4623 57.9514 11.0626 58.559 10.7931 59.2266C10.5235 59.8943 10.3896 60.6087 10.3989 61.3284V73.749C10.3989 75.1906 10.9727 76.5732 11.9942 77.5926C13.0156 78.612 14.4009 79.1847 15.8454 79.1847H55.0295C56.4716 79.181 57.8533 78.6067 58.8717 77.5877C59.8901 76.5687 60.462 75.1882 60.462 73.749V61.3284C60.4713 60.6099 60.3378 59.8966 60.0691 59.2299C59.8005 58.5632 59.402 57.9562 58.8968 57.4442C58.3916 56.9321 57.7897 56.5251 57.1259 56.2467C56.4621 55.9683 55.7496 55.8241 55.0295 55.8223H27.4017C27.0275 55.8223 26.6686 55.9706 26.404 56.2347C26.1394 56.4988 25.9907 56.857 25.9907 57.2305C25.9907 57.604 26.1394 57.9622 26.404 58.2263C26.6686 58.4904 27.0275 58.6387 27.4017 58.6387H55.0295C55.3843 58.6309 55.7369 58.6953 56.0659 58.8281C56.3949 58.9608 56.6933 59.1591 56.9429 59.4108C57.1925 59.6626 57.388 59.9625 57.5176 60.2922C57.6471 60.6219 57.708 60.9745 57.6964 61.3284V73.749C57.689 74.0911 57.6142 74.4285 57.4762 74.7418C57.3382 75.055 57.1397 75.3381 56.8921 75.5748C56.6444 75.8115 56.3525 75.9972 56.0329 76.1213C55.7133 76.2453 55.3724 76.3053 55.0295 76.2979H15.8454C15.1494 76.2979 14.4818 76.0219 13.9896 75.5307C13.4974 75.0395 13.2209 74.3732 13.2209 73.6786V61.3284C13.2209 60.6337 13.4974 59.9675 13.9896 59.4763C14.4818 58.9851 15.1494 58.7091 15.8454 58.7091H20.8828C21.257 58.7091 21.6159 58.5608 21.8805 58.2967C22.1452 58.0326 22.2938 57.6744 22.2938 57.3009C22.2938 56.9274 22.1452 56.5692 21.8805 56.3051C21.6159 56.041 21.257 55.8927 20.8828 55.8927V55.8223Z" fill="#F3992F"/>
<path d="M20.5586 67.4678C20.5586 67.8413 20.7073 68.1995 20.9719 68.4636C21.2365 68.7277 21.5954 68.876 21.9696 68.876H48.9625C49.3367 68.876 49.6956 68.7277 49.9602 68.4636C50.2248 68.1995 50.3735 67.8413 50.3735 67.4678C50.3735 67.0943 50.2248 66.7361 49.9602 66.472C49.6956 66.2079 49.3367 66.0596 48.9625 66.0596H21.9696C21.5954 66.0596 21.2365 66.2079 20.9719 66.472C20.7073 66.7361 20.5586 67.0943 20.5586 67.4678Z" fill="#F3992F"/>
</g>
<defs>
<clipPath id="clip0_314_125228">
<rect width="85" height="88" fill="white" transform="translate(0 0.774414)"/>
</clipPath>
</defs>
</svg>
