<svg width="81" height="78" viewBox="0 0 81 78" fill="none" xmlns="http://www.w3.org/2000/svg">
<path id="Vector" d="M76.864 62.5289H75.7125V18.1226C75.7125 17.8 75.5848 17.4906 75.3574 17.2625C75.1301 17.0344 74.8218 16.9063 74.5003 16.9063C74.1789 16.9063 73.8706 17.0344 73.6432 17.2625C73.4159 17.4906 73.2882 17.8 73.2882 18.1226V62.5289H68.3185V4.92593C68.3185 4.26465 68.5803 3.63045 69.0463 3.16285C69.5123 2.69525 70.1443 2.43256 70.8034 2.43256C71.4624 2.43256 72.0944 2.69525 72.5604 3.16285C73.0264 3.63045 73.2882 4.26465 73.2882 4.92593V12.7344C73.2882 13.057 73.4159 13.3664 73.6432 13.5945C73.8706 13.8226 74.1789 13.9507 74.5003 13.9507C74.8218 13.9507 75.1301 13.8226 75.3574 13.5945C75.5848 13.3664 75.7125 13.057 75.7125 12.7344V4.92593C75.7125 3.61949 75.1953 2.36656 74.2746 1.44277C73.354 0.518981 72.1053 0 70.8034 0C69.5014 0 68.2528 0.518981 67.3321 1.44277C66.4115 2.36656 65.8943 3.61949 65.8943 4.92593V9.23156H59.3125V7.58958C59.1478 6.42989 58.5716 5.36876 57.6898 4.60109C56.8081 3.83342 55.6799 3.41078 54.5125 3.41078C53.3451 3.41078 52.2168 3.83342 51.3351 4.60109C50.4533 5.36876 49.8771 6.42989 49.7125 7.58958V9.23156H38.6822V7.58958C38.6822 6.29927 38.1713 5.06181 37.2621 4.14943C36.3528 3.23704 35.1196 2.72447 33.8337 2.72447C33.1441 2.71813 32.4615 2.86286 31.8334 3.14856C31.2054 3.43425 30.647 3.85404 30.1973 4.37861C29.5567 3.63974 28.7063 3.11498 27.7601 2.87465C26.8139 2.63431 25.8172 2.68988 24.9033 3.0339C23.9895 3.37793 23.2023 3.99398 22.6472 4.79951C22.092 5.60503 21.7955 6.56156 21.7973 7.54093V9.23156H14.9852V4.92593C14.9852 3.61949 14.468 2.36656 13.5473 1.44277C12.6267 0.518981 11.3781 0 10.0761 0C8.77412 0 7.52547 0.518981 6.60484 1.44277C5.68421 2.36656 5.167 3.61949 5.167 4.92593V43.2631C5.167 43.5856 5.29471 43.895 5.52202 44.1231C5.74934 44.3512 6.05765 44.4793 6.37912 44.4793C6.7006 44.4793 7.00891 44.3512 7.23622 44.1231C7.46354 43.895 7.59124 43.5856 7.59124 43.2631V4.92593C7.59124 4.26465 7.85304 3.63045 8.31904 3.16285C8.78504 2.69525 9.41707 2.43256 10.0761 2.43256C10.7351 2.43256 11.3671 2.69525 11.8331 3.16285C12.2991 3.63045 12.5609 4.26465 12.5609 4.92593V62.5289H7.59124V48.6512C7.59124 48.3286 7.46354 48.0192 7.23622 47.7911C7.00891 47.563 6.7006 47.4349 6.37912 47.4349C6.05765 47.4349 5.74934 47.563 5.52202 47.7911C5.29471 48.0192 5.167 48.3286 5.167 48.6512V62.5289H4.07609C3.12221 62.5449 2.21278 62.9363 1.54389 63.6189C0.874988 64.3015 0.500203 65.2205 0.500336 66.1778V74.412C0.516236 75.3691 0.90636 76.2817 1.58659 76.9529C2.26683 77.6241 3.18269 78.0001 4.1367 78H24.0155C24.337 78 24.6453 77.8719 24.8726 77.6438C25.0999 77.4157 25.2276 77.1063 25.2276 76.7837C25.2276 76.4611 25.0999 76.1518 24.8726 75.9237C24.6453 75.6956 24.337 75.5674 24.0155 75.5674H4.07609C3.76485 75.5678 3.46538 75.4481 3.23973 75.233C3.01408 75.0179 2.87953 74.7239 2.86397 74.412V66.117C2.86397 65.7944 2.99168 65.485 3.21899 65.2569C3.44631 65.0288 3.75462 64.9007 4.07609 64.9007H76.9246C77.2461 64.9007 77.5544 65.0288 77.7817 65.2569C78.009 65.485 78.1367 65.7944 78.1367 66.117V74.3512C78.1211 74.6631 77.9866 74.9571 77.7609 75.1722C77.5353 75.3873 77.2358 75.507 76.9246 75.5066H30.9973C30.6758 75.5066 30.3675 75.6348 30.1402 75.8629C29.9129 76.091 29.7852 76.4003 29.7852 76.7229C29.7852 77.0455 29.9129 77.3549 30.1402 77.5829C30.3675 77.811 30.6758 77.9392 30.9973 77.9392H76.864C77.818 77.9393 78.7338 77.5633 79.4141 76.8921C80.0943 76.2209 80.4844 75.3083 80.5003 74.3512V66.117C80.4844 65.1598 80.0943 64.2473 79.4141 63.5761C78.7338 62.9049 77.818 62.5288 76.864 62.5289ZM46.7549 40.4413C45.469 40.4413 44.2358 40.9539 43.3265 41.8663C42.4172 42.7786 41.9064 44.0161 41.9064 45.3064V46.9362H39.8458V45.2699C39.9438 44.58 39.8929 43.877 39.6966 43.2085C39.5003 42.5401 39.1632 41.9217 38.708 41.3953C38.2529 40.8689 37.6904 40.4468 37.0585 40.1575C36.4267 39.8682 35.7403 39.7185 35.0458 39.7185C34.3513 39.7185 33.6649 39.8682 33.033 40.1575C32.4012 40.4468 31.8387 40.8689 31.3836 41.3953C30.9284 41.9217 30.5913 42.5401 30.395 43.2085C30.1987 43.877 30.1478 44.58 30.2458 45.2699V46.8997H27.8215V45.2699C27.9195 44.58 27.8686 43.877 27.6723 43.2085C27.476 42.5401 27.1389 41.9217 26.6838 41.3953C26.2287 40.8689 25.6661 40.4468 25.0343 40.1575C24.4025 39.8682 23.7161 39.7185 23.0215 39.7185C22.327 39.7185 21.6406 39.8682 21.0088 40.1575C20.377 40.4468 19.8144 40.8689 19.3593 41.3953C18.9042 41.9217 18.567 42.5401 18.3708 43.2085C18.1745 43.877 18.1236 44.58 18.2215 45.2699V46.8997H14.9852V30.5043H21.8943V32.0246C22.0494 33.1934 22.6222 34.2659 23.5062 35.0426C24.3902 35.8194 25.5253 36.2476 26.7003 36.2476C27.8754 36.2476 29.0104 35.8194 29.8945 35.0426C30.7785 34.2659 31.3513 33.1934 31.5064 32.0246V30.5043H36.2579V32.0246C36.413 33.1934 36.9858 34.2659 37.8699 35.0426C38.7539 35.8194 39.8889 36.2476 41.064 36.2476C42.239 36.2476 43.3741 35.8194 44.2581 35.0426C45.1421 34.2659 45.7149 33.1934 45.87 32.0246V30.5043H49.7125V32.0246C49.8771 33.1843 50.4533 34.2455 51.3351 35.0131C52.2168 35.7808 53.3451 36.2034 54.5125 36.2034C55.6799 36.2034 56.8081 35.7808 57.6898 35.0131C58.5716 34.2455 59.1478 33.1843 59.3125 32.0246V30.5043H65.8943V46.8997H51.5549V45.2699C51.5454 43.9943 51.037 42.7735 50.1392 41.8704C49.2415 40.9672 48.0261 40.454 46.7549 40.4413ZM49.1791 45.3064V50.9013C49.0678 51.4512 48.7705 51.9456 48.3376 52.3007C47.9046 52.6558 47.3626 52.8498 46.8034 52.8498C46.2442 52.8498 45.7022 52.6558 45.2692 52.3007C44.8362 51.9456 44.5389 51.4512 44.4276 50.9013V45.3064C44.3561 44.9531 44.3638 44.5883 44.45 44.2383C44.5363 43.8884 44.699 43.562 44.9263 43.2829C45.1537 43.0038 45.4401 42.7788 45.7647 42.6244C46.0893 42.4699 46.4441 42.3898 46.8034 42.3898C47.1626 42.3898 47.5174 42.4699 47.842 42.6244C48.1667 42.7788 48.453 43.0038 48.6804 43.2829C48.9078 43.562 49.0705 43.8884 49.1567 44.2383C49.243 44.5883 49.2506 44.9531 49.1791 45.3064ZM37.5185 45.3064V50.9013C37.4072 51.4512 37.1099 51.9456 36.6769 52.3007C36.244 52.6558 35.702 52.8498 35.1428 52.8498C34.5836 52.8498 34.0416 52.6558 33.6086 52.3007C33.1756 51.9456 32.8783 51.4512 32.767 50.9013V45.3064C32.6955 44.9531 32.7032 44.5883 32.7894 44.2383C32.8757 43.8884 33.0384 43.562 33.2657 43.2829C33.4931 43.0038 33.7795 42.7788 34.1041 42.6244C34.4287 42.4699 34.7835 42.3898 35.1428 42.3898C35.502 42.3898 35.8568 42.4699 36.1814 42.6244C36.5061 42.7788 36.7924 43.0038 37.0198 43.2829C37.2472 43.562 37.4098 43.8884 37.4961 44.2383C37.5824 44.5883 37.59 44.9531 37.5185 45.3064ZM25.5306 45.3064V50.9013C25.4194 51.4512 25.122 51.9456 24.6891 52.3007C24.2561 52.6558 23.7141 52.8498 23.1549 52.8498C22.5957 52.8498 22.0537 52.6558 21.6207 52.3007C21.1877 51.9456 20.8904 51.4512 20.7791 50.9013V45.3064C20.7076 44.9531 20.7153 44.5883 20.8015 44.2383C20.8878 43.8884 21.0505 43.562 21.2779 43.2829C21.5052 43.0038 21.7916 42.7788 22.1162 42.6244C22.4408 42.4699 22.7956 42.3898 23.1549 42.3898C23.5142 42.3898 23.8689 42.4699 24.1936 42.6244C24.5182 42.7788 24.8045 43.0038 25.0319 43.2829C25.2593 43.562 25.422 43.8884 25.5082 44.2383C25.5945 44.5883 25.6021 44.9531 25.5306 45.3064ZM24.3185 32.0611V26.4662C24.4237 25.9096 24.7192 25.4073 25.154 25.0459C25.5888 24.6845 26.1357 24.4868 26.7003 24.4868C27.2649 24.4868 27.8118 24.6845 28.2467 25.0459C28.6815 25.4073 28.977 25.9096 29.0822 26.4662V32.0611C28.977 32.6178 28.6815 33.1201 28.2467 33.4815C27.8118 33.8428 27.2649 34.0406 26.7003 34.0406C26.1357 34.0406 25.5888 33.8428 25.154 33.4815C24.7192 33.1201 24.4237 32.6178 24.3185 32.0611ZM38.6822 32.0611V26.4662C38.7873 25.9096 39.0828 25.4073 39.5176 25.0459C39.9525 24.6845 40.4994 24.4868 41.064 24.4868C41.6286 24.4868 42.1755 24.6845 42.6103 25.0459C43.0451 25.4073 43.3406 25.9096 43.4458 26.4662V32.0611C43.3406 32.6178 43.0451 33.1201 42.6103 33.4815C42.1755 33.8428 41.6286 34.0406 41.064 34.0406C40.4994 34.0406 39.9525 33.8428 39.5176 33.4815C39.0828 33.1201 38.7873 32.6178 38.6822 32.0611ZM52.1367 32.0611V26.4662C52.248 25.9163 52.5453 25.422 52.9783 25.0669C53.4112 24.7117 53.9533 24.5178 54.5125 24.5178C55.0717 24.5178 55.6137 24.7117 56.0466 25.0669C56.4796 25.422 56.7769 25.9163 56.8882 26.4662V32.0611C56.7769 32.611 56.4796 33.1054 56.0466 33.4605C55.6137 33.8156 55.0717 34.0096 54.5125 34.0096C53.9533 34.0096 53.4112 33.8156 52.9783 33.4605C52.5453 33.1054 52.248 32.611 52.1367 32.0611ZM52.1367 7.62607C52.248 7.07617 52.5453 6.58179 52.9783 6.22668C53.4112 5.87157 53.9533 5.67759 54.5125 5.67759C55.0717 5.67759 55.6137 5.87157 56.0466 6.22668C56.4796 6.58179 56.7769 7.07617 56.8882 7.62607V13.221C56.7769 13.7709 56.4796 14.2652 56.0466 14.6203C55.6137 14.9755 55.0717 15.1694 54.5125 15.1694C53.9533 15.1694 53.4112 14.9755 52.9783 14.6203C52.5453 14.2652 52.248 13.7709 52.1367 13.221V7.62607ZM33.8822 5.19351C34.5251 5.19351 35.1417 5.4498 35.5964 5.90599C36.051 6.36219 36.3064 6.98092 36.3064 7.62607V13.221C36.1951 13.7709 35.8978 14.2652 35.4648 14.6203C35.0319 14.9755 34.4898 15.1694 33.9306 15.1694C33.3714 15.1694 32.8294 14.9755 32.3965 14.6203C31.9635 14.2652 31.6662 13.7709 31.5549 13.221V7.58958C31.5668 6.96939 31.8143 6.37717 32.2469 5.93405C32.6795 5.49093 33.2645 5.23037 33.8822 5.20568V5.19351ZM24.3185 7.62607C24.4237 7.06945 24.7192 6.56711 25.154 6.20573C25.5888 5.84436 26.1357 5.64661 26.7003 5.64661C27.2649 5.64661 27.8118 5.84436 28.2467 6.20573C28.6815 6.56711 28.977 7.06945 29.0822 7.62607V13.221C28.977 13.7776 28.6815 14.2799 28.2467 14.6413C27.8118 15.0027 27.2649 15.2004 26.7003 15.2004C26.1357 15.2004 25.5888 15.0027 25.154 14.6413C24.7192 14.2799 24.4237 13.7776 24.3185 13.221V7.62607ZM21.8943 11.7006V13.221C21.8925 14.2003 22.189 15.1569 22.7441 15.9624C23.2993 16.7679 24.0865 17.384 25.0003 17.728C25.9141 18.072 26.9109 18.1276 27.8571 17.8872C28.8033 17.6469 29.6536 17.1222 30.2943 16.3833C30.744 16.9079 31.3023 17.3276 31.9304 17.6133C32.5585 17.899 33.2411 18.0438 33.9306 18.0374C35.2165 18.0374 36.4498 17.5249 37.359 16.6125C38.2683 15.7001 38.7791 14.4626 38.7791 13.1723V11.6641H49.8094V13.1845C49.9741 14.3442 50.5503 15.4053 51.432 16.173C52.3138 16.9406 53.442 17.3633 54.6094 17.3633C55.7768 17.3633 56.905 16.9406 57.7868 16.173C58.6686 15.4053 59.2447 14.3442 59.4094 13.1845V11.6641H65.8943V28.0717H59.3125V26.4298C59.1478 25.2701 58.5716 24.2089 57.6898 23.4413C56.8081 22.6736 55.6799 22.2509 54.5125 22.2509C53.3451 22.2509 52.2168 22.6736 51.3351 23.4413C50.4533 24.2089 49.8771 25.2701 49.7125 26.4298V28.0717H45.87V26.4298C45.7149 25.261 45.1421 24.1885 44.2581 23.4118C43.3741 22.635 42.239 22.2068 41.064 22.2068C39.8889 22.2068 38.7539 22.635 37.8699 23.4118C36.9858 24.1885 36.413 25.261 36.2579 26.4298V28.0717H31.5064V26.4298C31.3513 25.261 30.7785 24.1885 29.8945 23.4118C29.0104 22.635 27.8754 22.2068 26.7003 22.2068C25.5253 22.2068 24.3902 22.635 23.5062 23.4118C22.6222 24.1885 22.0494 25.261 21.8943 26.4298V28.0717H14.9852V11.6641L21.8943 11.7006ZM14.9852 49.4053H18.3064V50.9378C18.4711 52.0975 19.0472 53.1586 19.929 53.9263C20.8108 54.6939 21.939 55.1166 23.1064 55.1166C24.2738 55.1166 25.402 54.6939 26.2838 53.9263C27.1656 53.1586 27.7417 52.0975 27.9064 50.9378V49.3323H30.3306V50.8648C30.2327 51.5547 30.2836 52.2577 30.4798 52.9262C30.6761 53.5947 31.0133 54.213 31.4684 54.7394C31.9235 55.2658 32.4861 55.6879 33.1179 55.9772C33.7497 56.2665 34.4361 56.4162 35.1306 56.4162C35.8251 56.4162 36.5115 56.2665 37.1434 55.9772C37.7752 55.6879 38.3377 55.2658 38.7929 54.7394C39.248 54.213 39.5851 53.5947 39.7814 52.9262C39.9777 52.2577 40.0286 51.5547 39.9306 50.8648V49.3323H41.9912V50.8648C42.1559 52.0245 42.7321 53.0856 43.6139 53.8533C44.4956 54.621 45.6238 55.0436 46.7912 55.0436C47.9587 55.0436 49.0869 54.621 49.9686 53.8533C50.8504 53.0856 51.4266 52.0245 51.5912 50.8648V49.3323H65.8943V62.5289H14.9852V49.4053Z" fill="#1C8827"/>
</svg>
