<svg width="22" height="22" viewBox="0 0 22 22" fill="none" xmlns="http://www.w3.org/2000/svg">
<path fill-rule="evenodd" clip-rule="evenodd" d="M6 0.75C2.82436 0.75 0.25 3.32436 0.25 6.5V19.4194C0.25 20.8868 1.94738 21.7026 3.09322 20.7859L5.92069 18.5239C6.14233 18.3466 6.41772 18.25 6.70156 18.25H16C19.1756 18.25 21.75 15.6756 21.75 12.5V6.5C21.75 3.32436 19.1756 0.75 16 0.75H6ZM6.0498 10.7998C6.74016 10.7998 7.2998 10.2402 7.2998 9.5498C7.2998 8.85945 6.74016 8.2998 6.0498 8.2998C5.35945 8.2998 4.7998 8.85945 4.7998 9.5498C4.7998 10.2402 5.35945 10.7998 6.0498 10.7998ZM12.2998 9.5498C12.2998 10.2402 11.7402 10.7998 11.0498 10.7998C10.3594 10.7998 9.7998 10.2402 9.7998 9.5498C9.7998 8.85945 10.3594 8.2998 11.0498 8.2998C11.7402 8.2998 12.2998 8.85945 12.2998 9.5498ZM16.0498 10.7998C16.7402 10.7998 17.2998 10.2402 17.2998 9.5498C17.2998 8.85945 16.7402 8.2998 16.0498 8.2998C15.3594 8.2998 14.7998 8.85945 14.7998 9.5498C14.7998 10.2402 15.3594 10.7998 16.0498 10.7998Z" fill="black"/>
</svg>
