<svg width="24" height="25" viewBox="0 0 24 25" fill="none" xmlns="http://www.w3.org/2000/svg">
<path fill-rule="evenodd" clip-rule="evenodd" d="M7 2.75C3.82436 2.75 1.25 5.32436 1.25 8.5V21.4194C1.25 22.8868 2.94738 23.7026 4.09322 22.7859L6.92069 20.5239C7.14233 20.3466 7.41772 20.25 7.70156 20.25H17C20.1756 20.25 22.75 17.6756 22.75 14.5V8.5C22.75 5.32436 20.1756 2.75 17 2.75H7ZM7.0498 12.7998C7.74016 12.7998 8.2998 12.2402 8.2998 11.5498C8.2998 10.8594 7.74016 10.2998 7.0498 10.2998C6.35945 10.2998 5.7998 10.8594 5.7998 11.5498C5.7998 12.2402 6.35945 12.7998 7.0498 12.7998ZM13.2998 11.5498C13.2998 12.2402 12.7402 12.7998 12.0498 12.7998C11.3594 12.7998 10.7998 12.2402 10.7998 11.5498C10.7998 10.8594 11.3594 10.2998 12.0498 10.2998C12.7402 10.2998 13.2998 10.8594 13.2998 11.5498ZM17.0498 12.7998C17.7402 12.7998 18.2998 12.2402 18.2998 11.5498C18.2998 10.8594 17.7402 10.2998 17.0498 10.2998C16.3594 10.2998 15.7998 10.8594 15.7998 11.5498C15.7998 12.2402 16.3594 12.7998 17.0498 12.7998Z" fill="black"/>
</svg>
