<svg width="21" height="20" viewBox="0 0 21 20" fill="none" xmlns="http://www.w3.org/2000/svg">
<path d="M18.2141 13.3377L16.7141 11.7877C17.3807 11.6043 17.9224 11.2502 18.3391 10.7252C18.7557 10.2002 18.9641 9.58767 18.9641 8.88767C18.9641 8.05434 18.6724 7.346 18.0891 6.76267C17.5057 6.17934 16.7974 5.88767 15.9641 5.88767H12.9641C12.6807 5.88767 12.4432 5.79184 12.2516 5.60017C12.0599 5.4085 11.9641 5.171 11.9641 4.88767C11.9641 4.60434 12.0599 4.36684 12.2516 4.17517C12.4432 3.9835 12.6807 3.88767 12.9641 3.88767H15.9641C17.3474 3.88767 18.5266 4.37517 19.5016 5.35017C20.4766 6.32517 20.9641 7.50434 20.9641 8.88767C20.9641 9.83767 20.7182 10.7127 20.2266 11.5127C19.7349 12.3127 19.0641 12.921 18.2141 13.3377ZM14.5891 9.66267L12.8141 7.88767H13.9641C14.2474 7.88767 14.4849 7.9835 14.6766 8.17517C14.8682 8.36684 14.9641 8.60434 14.9641 8.88767C14.9641 9.05434 14.9307 9.20434 14.8641 9.33767C14.7974 9.471 14.7057 9.57934 14.5891 9.66267ZM19.4641 18.7877C19.2807 18.971 19.0474 19.0627 18.7641 19.0627C18.4807 19.0627 18.2474 18.971 18.0641 18.7877L1.06406 1.78767C0.880729 1.60434 0.789062 1.371 0.789062 1.08767C0.789062 0.804338 0.880729 0.571004 1.06406 0.387671C1.2474 0.204338 1.48073 0.112671 1.76406 0.112671C2.0474 0.112671 2.28073 0.204338 2.46406 0.387671L19.4641 17.3877C19.6474 17.571 19.7391 17.8043 19.7391 18.0877C19.7391 18.371 19.6474 18.6043 19.4641 18.7877ZM5.96406 13.8877C4.58073 13.8877 3.40156 13.4002 2.42656 12.4252C1.45156 11.4502 0.964063 10.271 0.964063 8.88767C0.964063 7.73767 1.31406 6.71267 2.01406 5.81267C2.71406 4.91267 3.61406 4.321 4.71406 4.03767L6.56406 5.88767H5.96406C5.13073 5.88767 4.4224 6.17934 3.83906 6.76267C3.25573 7.346 2.96406 8.05434 2.96406 8.88767C2.96406 9.721 3.25573 10.4293 3.83906 11.0127C4.4224 11.596 5.13073 11.8877 5.96406 11.8877H8.96406C9.2474 11.8877 9.4849 11.9835 9.67656 12.1752C9.86823 12.3668 9.96406 12.6043 9.96406 12.8877C9.96406 13.171 9.86823 13.4085 9.67656 13.6002C9.4849 13.7918 9.2474 13.8877 8.96406 13.8877H5.96406ZM7.96406 9.88767C7.68073 9.88767 7.44323 9.79184 7.25156 9.60017C7.0599 9.4085 6.96406 9.17101 6.96406 8.88767C6.96406 8.60434 7.0599 8.36684 7.25156 8.17517C7.44323 7.9835 7.68073 7.88767 7.96406 7.88767H8.58906L10.5641 9.88767H7.96406Z" fill="#FB3C22"/>
</svg>
