<svg width="82" height="89" viewBox="0 0 82 89" fill="none" xmlns="http://www.w3.org/2000/svg">
<g id="Layer_1" clip-path="url(#clip0_275_140656)">
<path id="Vector" d="M72.7193 44.7744C78.0168 38.9211 84.1885 29.6544 80.2683 22.8011C76.3481 15.9477 65.2099 16.6811 57.5814 18.3611C57.0119 16.5611 56.3762 14.8811 55.7008 13.3077C56.5018 12.597 57.0707 11.6591 57.333 10.6172C57.5953 9.57519 57.5388 8.47774 57.1708 7.46868C56.8028 6.45963 56.1406 5.58607 55.2709 4.96252C54.4012 4.33898 53.3646 3.99456 52.2971 3.97441C51.5172 3.97395 50.7473 4.15175 50.0456 4.49441C49.0882 3.38937 47.9191 2.4903 46.6082 1.85108C45.2974 1.21187 43.8719 0.845661 42.4171 0.774414C36.1262 0.774414 30.6432 7.61441 27.2395 18.3611C19.5713 16.6677 8.44637 15.9477 4.56589 22.7744C0.685415 29.6011 6.83061 38.8944 12.1149 44.7744C10.1416 46.9075 8.36822 49.2195 6.81736 51.6811C6.4819 51.6091 6.14048 51.569 5.79758 51.5611C4.39257 51.5611 3.04511 52.123 2.05163 53.1232C1.05814 54.1234 0.5 55.4799 0.5 56.8944C0.50534 57.872 0.777467 58.8293 1.28665 59.6617C1.79583 60.4941 2.52247 61.1696 3.38718 61.6144C3.06933 72.4944 15.8233 73.6944 27.2263 71.1744C30.6432 81.9344 36.1262 88.7744 42.4171 88.7744C48.708 88.7744 54.1777 81.9344 57.5947 71.1878C61.9208 72.2805 66.4073 72.5787 70.8386 72.0678C71.5597 73.2134 72.6873 74.0394 73.9919 74.3777C75.2965 74.716 76.6801 74.5412 77.8613 73.8889C79.0424 73.2366 79.9323 72.1558 80.35 70.8663C80.7676 69.5768 80.6816 68.1756 80.1094 66.9478C80.1567 66.8925 80.2009 66.8346 80.2418 66.7744C83.4071 61.2944 80.2551 53.0944 72.7193 44.7744ZM78.0168 24.1344C81.1689 29.6277 75.1694 38.1344 70.9446 42.8011C67.778 39.6271 64.3585 36.7195 60.7202 34.1077C60.2846 29.6453 59.4873 25.2261 58.3363 20.8944C64.5345 19.5744 74.825 18.6144 77.9639 24.1077L78.0168 24.1344ZM42.4171 63.1211C36.8844 60.5613 31.5995 57.4904 26.6303 53.9478C26.0673 47.8453 26.0673 41.7035 26.6303 35.6011C31.5999 32.0591 36.8848 28.9882 42.4171 26.4277C47.9429 28.9927 53.223 32.0634 58.1906 35.6011C58.7537 41.7035 58.7537 47.8453 58.1906 53.9478C53.2271 57.4919 47.9464 60.5629 42.4171 63.1211ZM57.8066 57.4544C57.3469 61.0136 56.6478 64.5372 55.714 68.0011C52.2765 67.0751 48.9049 65.9169 45.6221 64.5344C49.8445 62.4668 53.9161 60.1009 57.8066 57.4544ZM39.1988 64.5344C35.9168 65.919 32.5451 67.0772 29.1069 68.0011C28.1582 64.5393 27.4502 61.0152 26.9879 57.4544C30.8838 60.107 34.9647 62.4731 39.1988 64.5344ZM23.7961 51.8544C20.9618 49.6837 18.2801 47.318 15.7703 44.7744C18.2786 42.2293 20.9604 39.8635 23.7961 37.6944C23.4771 42.409 23.4771 47.1399 23.7961 51.8544ZM26.9879 32.0811C27.4382 28.5258 28.1329 25.0062 29.0672 21.5477C32.5053 22.4716 35.8771 23.6299 39.1591 25.0144C34.9445 27.0837 30.8777 29.4449 26.9879 32.0811ZM45.5294 25.0144C48.8114 23.6299 52.1832 22.4716 55.6213 21.5477C56.5493 25.0032 57.244 28.5179 57.7006 32.0677C53.839 29.4419 49.8034 27.0853 45.6221 25.0144H45.5294ZM60.9454 37.7211C63.7514 39.896 66.4063 42.2615 68.8918 44.8011C66.3811 47.3355 63.6994 49.6922 60.8659 51.8544C61.2346 47.1524 61.2922 42.4308 61.0381 37.7211H60.9454ZM54.9591 9.24108C54.9591 9.7685 54.8038 10.2841 54.5127 10.7226C54.2217 11.1611 53.808 11.5029 53.324 11.7048C52.84 11.9066 52.3074 11.9594 51.7936 11.8565C51.2798 11.7536 50.8078 11.4996 50.4374 11.1267C50.0669 10.7538 49.8146 10.2786 49.7124 9.76132C49.6102 9.24404 49.6627 8.70786 49.8632 8.22059C50.0636 7.73332 50.4031 7.31685 50.8387 7.02383C51.2743 6.73081 51.7864 6.57441 52.3103 6.57441C53.0128 6.57441 53.6866 6.85537 54.1833 7.35546C54.6801 7.85556 54.9591 8.53384 54.9591 9.24108ZM42.4171 3.44108C44.5613 3.54929 46.5756 4.50811 48.0193 6.10775C47.3618 7.01385 47.005 8.10564 46.9995 9.22775C46.9995 10.6422 47.5576 11.9988 48.5511 12.999C49.5446 13.9992 50.8921 14.5611 52.2971 14.5611C52.6309 14.56 52.9638 14.5242 53.2904 14.4544C53.9217 15.9319 54.4786 17.4405 54.9591 18.9744C50.6659 20.1378 46.4718 21.6448 42.4171 23.4811C38.3579 21.6446 34.1595 20.1376 29.8618 18.9744C32.855 9.58775 37.4109 3.44108 42.4171 3.44108ZM6.8571 24.1077C10.0092 18.6144 20.2865 19.5744 26.4846 20.9211C25.3351 25.244 24.5378 29.6542 24.1007 34.1077C20.4854 36.7176 17.0881 39.6206 13.9426 42.7877C9.77076 38.1077 3.70504 29.6011 6.8571 24.1077ZM5.79758 54.2277C6.32146 54.2277 6.83358 54.3841 7.26917 54.6772C7.70476 54.9702 8.04426 55.3867 8.24474 55.8739C8.44522 56.3612 8.49768 56.8974 8.39547 57.4147C8.29327 57.9319 8.041 58.4071 7.67056 58.78C7.30012 59.153 6.82815 59.4069 6.31433 59.5098C5.80052 59.6127 5.26793 59.5599 4.78393 59.3581C4.29993 59.1563 3.88624 58.8145 3.59519 58.3759C3.30414 57.9374 3.14879 57.4218 3.14879 56.8944C3.14879 56.1872 3.42786 55.5089 3.9246 55.0088C4.42135 54.5087 5.09508 54.2277 5.79758 54.2277ZM5.99624 62.2277C7.04923 62.1747 8.06255 61.8065 8.90649 61.1703C9.75044 60.5341 10.3866 59.6588 10.7337 58.6565C11.0807 57.6543 11.1228 56.5705 10.8545 55.544C10.5862 54.5175 10.0198 53.595 9.22776 52.8944C10.6197 50.7162 12.1973 48.664 13.9426 46.7611C17.0895 49.9267 20.4867 52.8295 24.1007 55.4411C24.5367 59.9123 25.3339 64.3403 26.4846 68.6811C18.1939 70.4144 6.30085 70.7344 6.00948 62.2277H5.99624ZM42.4171 86.1077C37.4109 86.1077 32.855 79.9611 29.8618 70.5478C34.1575 69.4062 38.3559 67.9215 42.4171 66.1077C46.4755 67.9463 50.6741 69.4534 54.9724 70.6144C51.966 79.9611 47.4101 86.1077 42.4171 86.1077ZM58.3098 68.6277C59.4715 64.3056 60.2821 59.8955 60.7335 55.4411C64.3366 52.8306 67.7288 49.9371 70.8783 46.7877C77.1427 53.7344 80.1491 60.4277 78.3082 64.8144C77.5107 64.2682 76.5803 63.9515 75.6172 63.8986C74.6541 63.8456 73.6949 64.0584 72.8431 64.5139C71.9913 64.9695 71.2792 65.6505 70.7835 66.4835C70.2879 67.3166 70.0276 68.27 70.0307 69.2411C70.0244 69.3477 70.0244 69.4545 70.0307 69.5611C66.1081 69.8798 62.1601 69.5647 58.3363 68.6277H58.3098ZM75.3151 71.8677C74.7912 71.8677 74.2791 71.7114 73.8435 71.4183C73.4079 71.1253 73.0684 70.7088 72.8679 70.2216C72.6674 69.7343 72.615 69.1981 72.7172 68.6808C72.8194 68.1636 73.0717 67.6884 73.4421 67.3155C73.8125 66.9425 74.2845 66.6885 74.7983 66.5857C75.3121 66.4828 75.8447 66.5356 76.3287 66.7374C76.8127 66.9392 77.2264 67.281 77.5175 67.7196C77.8085 68.1581 77.9639 68.6737 77.9639 69.2011C77.9639 69.9037 77.6885 70.578 77.1974 71.0773C76.7064 71.5767 76.0395 71.8607 75.3416 71.8677H75.3151Z" fill="#371FCA"/>
<path id="Vector_2" d="M42.4171 36.2275C40.7375 36.2249 39.0949 36.7239 37.6971 37.6614C36.2993 38.599 35.2091 39.9328 34.5645 41.4943C33.9199 43.0558 33.7499 44.7746 34.076 46.4334C34.4021 48.0922 35.2096 49.6163 36.3963 50.8129C37.583 52.0095 39.0957 52.8248 40.7428 53.1557C42.3899 53.4865 44.0975 53.3181 45.6495 52.6716C47.2015 52.0251 48.5282 50.9296 49.4616 49.5239C50.395 48.1181 50.8932 46.4652 50.8932 44.7742C50.8897 42.5109 49.996 40.3411 48.4076 38.7394C46.8191 37.1377 44.6653 36.2346 42.4171 36.2275ZM42.4171 50.6542C41.2614 50.6569 40.1309 50.3142 39.1687 49.6697C38.2064 49.0252 37.4558 48.1078 37.0117 47.0337C36.5676 45.9595 36.45 44.7768 36.6739 43.6353C36.8978 42.4938 37.453 41.4448 38.2693 40.6212C39.0856 39.7975 40.1262 39.2362 41.2595 39.0082C42.3929 38.7802 43.5679 38.8959 44.6359 39.3405C45.7039 39.7852 46.6168 40.5388 47.2592 41.5061C47.9016 42.4733 48.2444 43.6107 48.2444 44.7742C48.241 46.3303 47.6263 47.8219 46.5346 48.9234C45.4429 50.025 43.9628 50.6472 42.4171 50.6542Z" fill="#371FCA"/>
</g>
<defs>
<clipPath id="clip0_275_140656">
<rect width="81" height="88" fill="white" transform="translate(0.5 0.774414)"/>
</clipPath>
</defs>
</svg>
