<svg width="25" height="24" viewBox="0 0 25 24" fill="none" xmlns="http://www.w3.org/2000/svg">
<mask id="mask0_318_127381" style="mask-type:alpha" maskUnits="userSpaceOnUse" x="0" y="0" width="25" height="24">
<rect x="0.5" width="24" height="24" fill="#D9D9D9"/>
</mask>
<g mask="url(#mask0_318_127381)">
<path d="M5.44425 18.3519C4.68783 17.5006 4.09136 16.5368 3.65483 15.4606C3.21828 14.3843 3 13.2307 3 12C3 10.6858 3.24933 9.45082 3.748 8.295C4.24667 7.13917 4.92342 6.13375 5.77825 5.27875C6.6331 4.42375 7.63834 3.74688 8.79398 3.24813C9.94959 2.74938 11.1844 2.5 12.4983 2.5C13.8122 2.5 15.0473 2.74938 16.2034 3.24813C17.3596 3.74688 18.3652 4.42375 19.2205 5.27875C20.0757 6.13375 20.7527 7.13917 21.2516 8.295C21.7505 9.45082 22 10.6858 22 12C22 13.2243 21.7817 14.3788 21.3451 15.4634C20.9086 16.548 20.3121 17.516 19.5557 18.3673C19.4173 18.516 19.2467 18.592 19.0442 18.5952C18.8416 18.5984 18.6654 18.5234 18.5156 18.3702C18.3783 18.2298 18.3086 18.0557 18.3067 17.8481C18.3048 17.6404 18.3731 17.457 18.5115 17.2981C19.1295 16.5917 19.6154 15.7891 19.9692 14.8904C20.3231 13.9917 20.5 13.0282 20.5 12C20.5 9.76664 19.725 7.87498 18.175 6.32498C16.625 4.77498 14.7333 3.99998 12.5 3.99998C10.2666 3.99998 8.37498 4.77498 6.82498 6.32498C5.27498 7.87498 4.49998 9.76664 4.49998 12C4.49998 13.0253 4.6785 13.9855 5.03555 14.8806C5.3926 15.7756 5.88523 16.5763 6.51345 17.2827C6.6519 17.4481 6.72017 17.6314 6.71825 17.8327C6.71633 18.0339 6.63781 18.2121 6.48268 18.3673C6.33396 18.516 6.15848 18.5873 5.95623 18.5812C5.75396 18.5751 5.5833 18.4986 5.44425 18.3519ZM8.26925 15.5115C7.8795 15.0269 7.57053 14.4885 7.34233 13.8964C7.11411 13.3043 7 12.6721 7 12C7 10.4722 7.5345 9.17361 8.6035 8.10418C9.6725 7.03473 10.9706 6.5 12.4977 6.5C14.0249 6.5 15.3237 7.03473 16.3942 8.10418C17.4647 9.17361 18 10.4722 18 12C18 12.6743 17.8857 13.3121 17.6573 13.9133C17.4288 14.5144 17.1199 15.0523 16.7307 15.5269C16.6025 15.6923 16.4354 15.775 16.2294 15.775C16.0234 15.775 15.8392 15.6923 15.6769 15.5269C15.5406 15.3895 15.4693 15.2208 15.4631 15.021C15.4569 14.8211 15.5179 14.6282 15.6461 14.4423C15.9179 14.0962 16.1282 13.7179 16.2769 13.3077C16.4256 12.8974 16.5 12.4615 16.5 12C16.5 10.9 16.1083 9.95831 15.325 9.17498C14.5416 8.39164 13.6 7.99998 12.5 7.99998C11.4 7.99998 10.4583 8.39164 9.67498 9.17498C8.89164 9.95831 8.49998 10.9 8.49998 12C8.49998 12.4718 8.5769 12.9102 8.73075 13.3154C8.8846 13.7205 9.09229 14.0962 9.35383 14.4423C9.48203 14.6282 9.5426 14.8218 9.53555 15.0231C9.5285 15.2243 9.45324 15.3967 9.30978 15.5402C9.15326 15.6967 8.97276 15.7724 8.76828 15.7673C8.56379 15.7621 8.39745 15.6769 8.26925 15.5115ZM12.4997 21.5C12.2871 21.5 12.109 21.4281 11.9654 21.2843C11.8218 21.1406 11.75 20.9625 11.75 20.75V13.2923C11.5141 13.1474 11.3301 12.9667 11.1981 12.7503C11.066 12.5338 11 12.2833 11 11.9988C11 11.5906 11.1478 11.2388 11.4433 10.9433C11.7388 10.6478 12.091 10.5 12.5 10.5C12.9089 10.5 13.2612 10.6478 13.5567 10.9433C13.8522 11.2388 14 11.5902 14 11.9977C14 12.2816 13.9339 12.5347 13.8019 12.757C13.6698 12.9792 13.4859 13.1576 13.25 13.2923V20.75C13.25 20.9625 13.1781 21.1406 13.0343 21.2843C12.8904 21.4281 12.7122 21.5 12.4997 21.5Z" fill="#616161"/>
</g>
</svg>
