<svg width="22" height="19" viewBox="0 0 22 19" fill="none" xmlns="http://www.w3.org/2000/svg">
<path d="M6.63452 1.44336H5.13452C2.92538 1.44336 1.13452 3.23422 1.13452 5.44336V6.66641C1.13452 6.85665 1.26993 7.01729 1.44978 7.0793C2.4302 7.41734 3.13452 8.3481 3.13452 9.44336C3.13452 10.5386 2.4302 11.4694 1.44978 11.8074C1.26993 11.8694 1.13452 12.0301 1.13452 12.2203V13.4434C1.13452 15.6525 2.92538 17.4434 5.13452 17.4434H17.1345C19.3437 17.4434 21.1345 15.6525 21.1345 13.4434V12.2203C21.1345 12.0301 20.9991 11.8694 20.8193 11.8074C19.8388 11.4694 19.1345 10.5386 19.1345 9.44336C19.1345 8.3481 19.8388 7.41734 20.8193 7.0793C20.9991 7.01729 21.1345 6.85665 21.1345 6.66641V5.44336C21.1345 3.23422 19.3437 1.44336 17.1345 1.44336H10.1345" stroke="black" stroke-width="1.5" stroke-linecap="round"/>
<path d="M10.7356 5.97167C10.9356 5.70678 11.3335 5.70678 11.5335 5.97167L12.524 7.28312C12.5838 7.36233 12.6659 7.42195 12.7597 7.45437L14.313 7.99108C14.6268 8.09949 14.7497 8.4779 14.5596 8.75002L13.6184 10.0972C13.5616 10.1786 13.5302 10.2751 13.5284 10.3743L13.4971 12.0651C13.4914 12.3731 13.1926 12.5902 12.8979 12.5004V12.5004L12.3101 12.3214L11.2802 12.0077C11.1853 11.9788 11.0838 11.9788 10.9889 12.0077L9.41673 12.4865C9.09919 12.5833 8.77729 12.3494 8.77115 12.0175L8.74071 10.3743C8.73887 10.2751 8.70753 10.1786 8.65067 10.0972L7.70948 8.75002C7.51937 8.4779 7.64233 8.09949 7.95607 7.99108L9.5094 7.45437C9.60322 7.42195 9.68528 7.36233 9.7451 7.28312L10.7356 5.97167Z" stroke="black" stroke-width="1.5"/>
</svg>
