<svg width="20" height="22" viewBox="0 0 20 22" fill="none" xmlns="http://www.w3.org/2000/svg">
<path d="M2.85865 5.13736C3.13775 4.83129 3.11589 4.35692 2.80983 4.07782C2.50376 3.79872 2.02939 3.82058 1.75029 4.12665L2.85865 5.13736ZM6 3.75C6.0061 3.75 6.0122 3.75 6.01829 3.75C6.02438 3.75 6.03047 3.75 6.03655 3.75C6.04263 3.75 6.04871 3.75 6.05478 3.75C6.06085 3.75 6.06691 3.75 6.07297 3.75C6.07903 3.75 6.08509 3.75 6.09114 3.75C6.09719 3.75 6.10323 3.75 6.10927 3.75C6.11531 3.75 6.12135 3.75 6.12738 3.75C6.13341 3.75 6.13943 3.75 6.14545 3.75C6.15147 3.75 6.15749 3.75 6.1635 3.75C6.1695 3.75 6.17551 3.75 6.18151 3.75C6.18751 3.75 6.1935 3.75 6.19949 3.75C6.20548 3.75 6.21146 3.75 6.21744 3.75C6.22342 3.75 6.2294 3.75 6.23537 3.75C6.24134 3.75 6.2473 3.75 6.25326 3.75C6.25922 3.75 6.26517 3.75 6.27112 3.75C6.27707 3.75 6.28302 3.75 6.28896 3.75C6.2949 3.75 6.30083 3.75 6.30676 3.75C6.31269 3.75 6.31861 3.75 6.32453 3.75C6.33045 3.75 6.33637 3.75 6.34228 3.75C6.34819 3.75 6.3541 3.75 6.36 3.75C6.3659 3.75 6.37179 3.75 6.37768 3.75C6.38358 3.75 6.38946 3.75 6.39534 3.75C6.40122 3.75 6.4071 3.75 6.41297 3.75C6.41885 3.75 6.42471 3.75 6.43057 3.75C6.43644 3.75 6.44229 3.75 6.44815 3.75C6.454 3.75 6.45985 3.75 6.46569 3.75C6.47154 3.75 6.47737 3.75 6.48321 3.75C6.48904 3.75 6.49487 3.75 6.5007 3.75C6.50652 3.75 6.51234 3.75 6.51816 3.75C6.52397 3.75 6.52978 3.75 6.53559 3.75C6.5414 3.75 6.5472 3.75 6.55299 3.75C6.55879 3.75 6.56458 3.75 6.57037 3.75C6.57616 3.75 6.58194 3.75 6.58772 3.75C6.5935 3.75 6.59927 3.75 6.60504 3.75C6.61081 3.75 6.61658 3.75 6.62234 3.75C6.6281 3.75 6.63385 3.75 6.63961 3.75C6.64536 3.75 6.6511 3.75 6.65685 3.75C6.66259 3.75 6.66833 3.75 6.67406 3.75C6.67979 3.75 6.68552 3.75 6.69125 3.75C6.69697 3.75 6.70269 3.75 6.70841 3.75C6.71413 3.75 6.71984 3.75 6.72554 3.75C6.73125 3.75 6.73695 3.75 6.74265 3.75C6.74835 3.75 6.75404 3.75 6.75973 3.75C6.76542 3.75 6.77111 3.75 6.77679 3.75C6.78247 3.75 6.78815 3.75 6.79382 3.75C6.79949 3.75 6.80516 3.75 6.81082 3.75C6.81648 3.75 6.82214 3.75 6.8278 3.75C6.83345 3.75 6.8391 3.75 6.84475 3.75C6.8504 3.75 6.85604 3.75 6.86168 3.75C6.86731 3.75 6.87295 3.75 6.87858 3.75C6.88421 3.75 6.88983 3.75 6.89545 3.75C6.90107 3.75 6.90669 3.75 6.9123 3.75C6.91792 3.75 6.92353 3.75 6.92913 3.75C6.93473 3.75 6.94033 3.75 6.94593 3.75C6.95153 3.75 6.95712 3.75 6.96271 3.75C6.96829 3.75 6.97388 3.75 6.97946 3.75C6.98504 3.75 6.99061 3.75 6.99618 3.75C7.00176 3.75 7.00732 3.75 7.01289 3.75C7.01845 3.75 7.02401 3.75 7.02956 3.75C7.03512 3.75 7.04067 3.75 7.04622 3.75C7.05177 3.75 7.05731 3.75 7.06285 3.75C7.06839 3.75 7.07392 3.75 7.07945 3.75C7.08499 3.75 7.09051 3.75 7.09604 3.75C7.10156 3.75 7.10708 3.75 7.11259 3.75C7.11811 3.75 7.12362 3.75 7.12913 3.75C7.13464 3.75 7.14014 3.75 7.14564 3.75C7.15114 3.75 7.15664 3.75 7.16213 3.75C7.16762 3.75 7.17311 3.75 7.17859 3.75C7.18408 3.75 7.18956 3.75 7.19504 3.75C7.20051 3.75 7.20599 3.75 7.21145 3.75C7.21692 3.75 7.22239 3.75 7.22785 3.75C7.23331 3.75 7.23877 3.75 7.24422 3.75C7.24968 3.75 7.25513 3.75 7.26057 3.75C7.26602 3.75 7.27146 3.75 7.2769 3.75C7.28234 3.75 7.28778 3.75 7.29321 3.75C7.29864 3.75 7.30407 3.75 7.30949 3.75C7.31492 3.75 7.32034 3.75 7.32575 3.75C7.33117 3.75 7.33658 3.75 7.34199 3.75C7.3474 3.75 7.35281 3.75 7.35821 3.75C7.36361 3.75 7.36901 3.75 7.37441 3.75C7.3798 3.75 7.38519 3.75 7.39058 3.75C7.39597 3.75 7.40135 3.75 7.40673 3.75C7.41212 3.75 7.41749 3.75 7.42287 3.75C7.42824 3.75 7.43361 3.75 7.43898 3.75C7.44434 3.75 7.44971 3.75 7.45507 3.75C7.46043 3.75 7.46578 3.75 7.47113 3.75C7.47649 3.75 7.48184 3.75 7.48718 3.75C7.49253 3.75 7.49787 3.75 7.50321 3.75C7.50855 3.75 7.51388 3.75 7.51921 3.75C7.52455 3.75 7.52987 3.75 7.5352 3.75C7.54053 3.75 7.54585 3.75 7.55117 3.75C7.55648 3.75 7.5618 3.75 7.56711 3.75C7.57242 3.75 7.57773 3.75 7.58303 3.75C7.58834 3.75 7.59364 3.75 7.59894 3.75C7.60424 3.75 7.60953 3.75 7.61483 3.75C7.62012 3.75 7.62541 3.75 7.63069 3.75C7.63598 3.75 7.64126 3.75 7.64654 3.75C7.65181 3.75 7.65709 3.75 7.66236 3.75C7.66763 3.75 7.6729 3.75 7.67817 3.75C7.68343 3.75 7.6887 3.75 7.69396 3.75C7.69922 3.75 7.70447 3.75 7.70972 3.75C7.71498 3.75 7.72023 3.75 7.72547 3.75C7.73072 3.75 7.73596 3.75 7.7412 3.75C7.74644 3.75 7.75168 3.75 7.75692 3.75C7.76215 3.75 7.76738 3.75 7.77261 3.75C7.77784 3.75 7.78306 3.75 7.78828 3.75C7.7935 3.75 7.79872 3.75 7.80394 3.75C7.80915 3.75 7.81437 3.75 7.81958 3.75C7.82479 3.75 7.82999 3.75 7.8352 3.75C7.8404 3.75 7.8456 3.75 7.8508 3.75C7.856 3.75 7.86119 3.75 7.86638 3.75C7.87157 3.75 7.87676 3.75 7.88195 3.75C7.88713 3.75 7.89232 3.75 7.8975 3.75C7.90267 3.75 7.90785 3.75 7.91303 3.75C7.9182 3.75 7.92337 3.75 7.92854 3.75C7.93371 3.75 7.93887 3.75 7.94403 3.75C7.9492 3.75 7.95436 3.75 7.95951 3.75C7.96467 3.75 7.96982 3.75 7.97497 3.75C7.98013 3.75 7.98527 3.75 7.99042 3.75C7.99556 3.75 8.00071 3.75 8.00585 3.75C8.01099 3.75 8.01612 3.75 8.02126 3.75C8.02639 3.75 8.03152 3.75 8.03665 3.75C8.04178 3.75 8.04691 3.75 8.05203 3.75C8.05715 3.75 8.06228 3.75 8.06739 3.75C8.07251 3.75 8.07763 3.75 8.08274 3.75C8.08785 3.75 8.09296 3.75 8.09807 3.75C8.10318 3.75 8.10828 3.75 8.11338 3.75C8.11848 3.75 8.12358 3.75 8.12868 3.75C8.13378 3.75 8.13887 3.75 8.14396 3.75C8.14905 3.75 8.15414 3.75 8.15923 3.75C8.16431 3.75 8.1694 3.75 8.17448 3.75C8.17956 3.75 8.18464 3.75 8.18971 3.75C8.19479 3.75 8.19986 3.75 8.20494 3.75C8.21001 3.75 8.21507 3.75 8.22014 3.75C8.22521 3.75 8.23027 3.75 8.23533 3.75C8.24039 3.75 8.24545 3.75 8.25051 3.75C8.25556 3.75 8.26062 3.75 8.26567 3.75C8.27072 3.75 8.27577 3.75 8.28081 3.75C8.28586 3.75 8.2909 3.75 8.29595 3.75C8.30099 3.75 8.30603 3.75 8.31106 3.75C8.3161 3.75 8.32113 3.75 8.32617 3.75C8.3312 3.75 8.33623 3.75 8.34126 3.75C8.34628 3.75 8.35131 3.75 8.35633 3.75C8.36135 3.75 8.36637 3.75 8.37139 3.75C8.37641 3.75 8.38142 3.75 8.38644 3.75C8.39145 3.75 8.39646 3.75 8.40147 3.75C8.40648 3.75 8.41149 3.75 8.41649 3.75C8.4215 3.75 8.4265 3.75 8.4315 3.75C8.4365 3.75 8.4415 3.75 8.44649 3.75C8.45149 3.75 8.45648 3.75 8.46147 3.75C8.46646 3.75 8.47145 3.75 8.47644 3.75C8.48143 3.75 8.48641 3.75 8.4914 3.75C8.49638 3.75 8.50136 3.75 8.50634 3.75C8.51132 3.75 8.51629 3.75 8.52127 3.75C8.52624 3.75 8.53121 3.75 8.53618 3.75C8.54115 3.75 8.54612 3.75 8.55109 3.75C8.55605 3.75 8.56102 3.75 8.56598 3.75C8.57094 3.75 8.5759 3.75 8.58086 3.75C8.58582 3.75 8.59077 3.75 8.59573 3.75C8.60068 3.75 8.60563 3.75 8.61058 3.75C8.61553 3.75 8.62048 3.75 8.62543 3.75C8.63037 3.75 8.63532 3.75 8.64026 3.75C8.6452 3.75 8.65014 3.75 8.65508 3.75C8.66002 3.75 8.66496 3.75 8.66989 3.75C8.67483 3.75 8.67976 3.75 8.68469 3.75C8.68962 3.75 8.69455 3.75 8.69948 3.75C8.7044 3.75 8.70933 3.75 8.71425 3.75C8.71918 3.75 8.7241 3.75 8.72902 3.75C8.73394 3.75 8.73886 3.75 8.74377 3.75C8.74869 3.75 8.7536 3.75 8.75852 3.75C8.76343 3.75 8.76834 3.75 8.77325 3.75C8.77816 3.75 8.78307 3.75 8.78797 3.75C8.79288 3.75 8.79778 3.75 8.80268 3.75C8.80759 3.75 8.81249 3.75 8.81739 3.75C8.82229 3.75 8.82718 3.75 8.83208 3.75C8.83697 3.75 8.84187 3.75 8.84676 3.75C8.85165 3.75 8.85654 3.75 8.86143 3.75C8.86632 3.75 8.87121 3.75 8.8761 3.75C8.88098 3.75 8.88587 3.75 8.89075 3.75C8.89563 3.75 8.90051 3.75 8.90539 3.75C8.91027 3.75 8.91515 3.75 8.92003 3.75C8.9249 3.75 8.92978 3.75 8.93465 3.75C8.93953 3.75 8.9444 3.75 8.94927 3.75C8.95414 3.75 8.95901 3.75 8.96388 3.75C8.96874 3.75 8.97361 3.75 8.97847 3.75C8.98334 3.75 8.9882 3.75 8.99306 3.75C8.99793 3.75 9.00279 3.75 9.00764 3.75C9.0125 3.75 9.01736 3.75 9.02222 3.75C9.02707 3.75 9.03193 3.75 9.03678 3.75C9.04163 3.75 9.04649 3.75 9.05134 3.75C9.05619 3.75 9.06104 3.75 9.06588 3.75C9.07073 3.75 9.07558 3.75 9.08043 3.75C9.08527 3.75 9.09011 3.75 9.09496 3.75C9.0998 3.75 9.10464 3.75 9.10948 3.75C9.11432 3.75 9.11916 3.75 9.124 3.75C9.12884 3.75 9.13367 3.75 9.13851 3.75C9.14334 3.75 9.14818 3.75 9.15301 3.75C9.15784 3.75 9.16267 3.75 9.1675 3.75C9.17233 3.75 9.17716 3.75 9.18199 3.75C9.18682 3.75 9.19165 3.75 9.19647 3.75C9.2013 3.75 9.20612 3.75 9.21095 3.75C9.21577 3.75 9.22059 3.75 9.22541 3.75C9.23023 3.75 9.23505 3.75 9.23987 3.75C9.24469 3.75 9.24951 3.75 9.25433 3.75C9.25914 3.75 9.26396 3.75 9.26877 3.75C9.27359 3.75 9.2784 3.75 9.28321 3.75C9.28803 3.75 9.29284 3.75 9.29765 3.75C9.30246 3.75 9.30727 3.75 9.31208 3.75C9.31689 3.75 9.32169 3.75 9.3265 3.75C9.33131 3.75 9.33611 3.75 9.34092 3.75C9.34572 3.75 9.35053 3.75 9.35533 3.75C9.36013 3.75 9.36493 3.75 9.36974 3.75C9.37454 3.75 9.37934 3.75 9.38414 3.75C9.38894 3.75 9.39373 3.75 9.39853 3.75C9.40333 3.75 9.40813 3.75 9.41292 3.75C9.41772 3.75 9.42251 3.75 9.42731 3.75C9.4321 3.75 9.4369 3.75 9.44169 3.75C9.44648 3.75 9.45127 3.75 9.45606 3.75C9.46085 3.75 9.46564 3.75 9.47043 3.75C9.47522 3.75 9.48001 3.75 9.4848 3.75C9.48959 3.75 9.49438 3.75 9.49916 3.75C9.50395 3.75 9.50873 3.75 9.51352 3.75C9.51831 3.75 9.52309 3.75 9.52787 3.75C9.53266 3.75 9.53744 3.75 9.54222 3.75C9.54701 3.75 9.55179 3.75 9.55657 3.75C9.56135 3.75 9.56613 3.75 9.57091 3.75C9.57569 3.75 9.58047 3.75 9.58525 3.75C9.59003 3.75 9.5948 3.75 9.59958 3.75C9.60436 3.75 9.60914 3.75 9.61391 3.75C9.61869 3.75 9.62347 3.75 9.62824 3.75C9.63302 3.75 9.63779 3.75 9.64257 3.75C9.64734 3.75 9.65211 3.75 9.65689 3.75C9.66166 3.75 9.66643 3.75 9.67121 3.75C9.67598 3.75 9.68075 3.75 9.68552 3.75C9.69029 3.75 9.69506 3.75 9.69983 3.75C9.70461 3.75 9.70938 3.75 9.71414 3.75C9.71891 3.75 9.72368 3.75 9.72845 3.75C9.73322 3.75 9.73799 3.75 9.74276 3.75C9.74753 3.75 9.75229 3.75 9.75706 3.75C9.76183 3.75 9.7666 3.75 9.77136 3.75C9.77613 3.75 9.7809 3.75 9.78566 3.75C9.79043 3.75 9.79519 3.75 9.79996 3.75C9.80473 3.75 9.80949 3.75 9.81426 3.75C9.81902 3.75 9.82378 3.75 9.82855 3.75C9.83331 3.75 9.83808 3.75 9.84284 3.75C9.84761 3.75 9.85237 3.75 9.85713 3.75C9.8619 3.75 9.86666 3.75 9.87142 3.75C9.87619 3.75 9.88095 3.75 9.88571 3.75C9.89048 3.75 9.89524 3.75 9.9 3.75C9.90476 3.75 9.90953 3.75 9.91429 3.75C9.91905 3.75 9.92381 3.75 9.92857 3.75C9.93334 3.75 9.9381 3.75 9.94286 3.75C9.94762 3.75 9.95238 3.75 9.95715 3.75C9.96191 3.75 9.96667 3.75 9.97143 3.75C9.97619 3.75 9.98095 3.75 9.98572 3.75C9.99048 3.75 9.99524 3.75 10 3.75C10.0048 3.75 10.0095 3.75 10.0143 3.75C10.019 3.75 10.0238 3.75 10.0286 3.75C10.0333 3.75 10.0381 3.75 10.0429 3.75C10.0476 3.75 10.0524 3.75 10.0571 3.75C10.0619 3.75 10.0667 3.75 10.0714 3.75C10.0762 3.75 10.0809 3.75 10.0857 3.75C10.0905 3.75 10.0952 3.75 10.1 3.75C10.1048 3.75 10.1095 3.75 10.1143 3.75C10.1191 3.75 10.1238 3.75 10.1286 3.75C10.1333 3.75 10.1381 3.75 10.1429 3.75C10.1476 3.75 10.1524 3.75 10.1572 3.75C10.1619 3.75 10.1667 3.75 10.1715 3.75C10.1762 3.75 10.181 3.75 10.1857 3.75C10.1905 3.75 10.1953 3.75 10.2 3.75C10.2048 3.75 10.2096 3.75 10.2143 3.75C10.2191 3.75 10.2239 3.75 10.2286 3.75C10.2334 3.75 10.2382 3.75 10.2429 3.75C10.2477 3.75 10.2525 3.75 10.2572 3.75C10.262 3.75 10.2668 3.75 10.2715 3.75C10.2763 3.75 10.2811 3.75 10.2859 3.75C10.2906 3.75 10.2954 3.75 10.3002 3.75C10.3049 3.75 10.3097 3.75 10.3145 3.75C10.3193 3.75 10.324 3.75 10.3288 3.75C10.3336 3.75 10.3383 3.75 10.3431 3.75C10.3479 3.75 10.3527 3.75 10.3574 3.75C10.3622 3.75 10.367 3.75 10.3718 3.75C10.3765 3.75 10.3813 3.75 10.3861 3.75C10.3909 3.75 10.3956 3.75 10.4004 3.75C10.4052 3.75 10.41 3.75 10.4148 3.75C10.4195 3.75 10.4243 3.75 10.4291 3.75C10.4339 3.75 10.4387 3.75 10.4434 3.75C10.4482 3.75 10.453 3.75 10.4578 3.75C10.4626 3.75 10.4673 3.75 10.4721 3.75C10.4769 3.75 10.4817 3.75 10.4865 3.75C10.4913 3.75 10.4961 3.75 10.5008 3.75C10.5056 3.75 10.5104 3.75 10.5152 3.75C10.52 3.75 10.5248 3.75 10.5296 3.75C10.5344 3.75 10.5391 3.75 10.5439 3.75C10.5487 3.75 10.5535 3.75 10.5583 3.75C10.5631 3.75 10.5679 3.75 10.5727 3.75C10.5775 3.75 10.5823 3.75 10.5871 3.75C10.5919 3.75 10.5967 3.75 10.6015 3.75C10.6063 3.75 10.6111 3.75 10.6159 3.75C10.6207 3.75 10.6255 3.75 10.6303 3.75C10.6351 3.75 10.6399 3.75 10.6447 3.75C10.6495 3.75 10.6543 3.75 10.6591 3.75C10.6639 3.75 10.6687 3.75 10.6735 3.75C10.6783 3.75 10.6831 3.75 10.6879 3.75C10.6927 3.75 10.6975 3.75 10.7024 3.75C10.7072 3.75 10.712 3.75 10.7168 3.75C10.7216 3.75 10.7264 3.75 10.7312 3.75C10.736 3.75 10.7409 3.75 10.7457 3.75C10.7505 3.75 10.7553 3.75 10.7601 3.75C10.7649 3.75 10.7698 3.75 10.7746 3.75C10.7794 3.75 10.7842 3.75 10.7891 3.75C10.7939 3.75 10.7987 3.75 10.8035 3.75C10.8084 3.75 10.8132 3.75 10.818 3.75C10.8228 3.75 10.8277 3.75 10.8325 3.75C10.8373 3.75 10.8422 3.75 10.847 3.75C10.8518 3.75 10.8567 3.75 10.8615 3.75C10.8663 3.75 10.8712 3.75 10.876 3.75C10.8808 3.75 10.8857 3.75 10.8905 3.75C10.8954 3.75 10.9002 3.75 10.905 3.75C10.9099 3.75 10.9147 3.75 10.9196 3.75C10.9244 3.75 10.9293 3.75 10.9341 3.75C10.939 3.75 10.9438 3.75 10.9487 3.75C10.9535 3.75 10.9584 3.75 10.9632 3.75C10.9681 3.75 10.9729 3.75 10.9778 3.75C10.9826 3.75 10.9875 3.75 10.9924 3.75C10.9972 3.75 11.0021 3.75 11.0069 3.75C11.0118 3.75 11.0167 3.75 11.0215 3.75C11.0264 3.75 11.0313 3.75 11.0361 3.75C11.041 3.75 11.0459 3.75 11.0507 3.75C11.0556 3.75 11.0605 3.75 11.0653 3.75C11.0702 3.75 11.0751 3.75 11.08 3.75C11.0848 3.75 11.0897 3.75 11.0946 3.75C11.0995 3.75 11.1044 3.75 11.1093 3.75C11.1141 3.75 11.119 3.75 11.1239 3.75C11.1288 3.75 11.1337 3.75 11.1386 3.75C11.1435 3.75 11.1483 3.75 11.1532 3.75C11.1581 3.75 11.163 3.75 11.1679 3.75C11.1728 3.75 11.1777 3.75 11.1826 3.75C11.1875 3.75 11.1924 3.75 11.1973 3.75C11.2022 3.75 11.2071 3.75 11.212 3.75C11.2169 3.75 11.2218 3.75 11.2268 3.75C11.2317 3.75 11.2366 3.75 11.2415 3.75C11.2464 3.75 11.2513 3.75 11.2562 3.75C11.2611 3.75 11.2661 3.75 11.271 3.75C11.2759 3.75 11.2808 3.75 11.2857 3.75C11.2907 3.75 11.2956 3.75 11.3005 3.75C11.3055 3.75 11.3104 3.75 11.3153 3.75C11.3202 3.75 11.3252 3.75 11.3301 3.75C11.335 3.75 11.34 3.75 11.3449 3.75C11.3499 3.75 11.3548 3.75 11.3597 3.75C11.3647 3.75 11.3696 3.75 11.3746 3.75C11.3795 3.75 11.3845 3.75 11.3894 3.75C11.3944 3.75 11.3993 3.75 11.4043 3.75C11.4092 3.75 11.4142 3.75 11.4191 3.75C11.4241 3.75 11.4291 3.75 11.434 3.75C11.439 3.75 11.4439 3.75 11.4489 3.75C11.4539 3.75 11.4588 3.75 11.4638 3.75C11.4688 3.75 11.4738 3.75 11.4787 3.75C11.4837 3.75 11.4887 3.75 11.4937 3.75C11.4986 3.75 11.5036 3.75 11.5086 3.75C11.5136 3.75 11.5186 3.75 11.5236 3.75C11.5285 3.75 11.5335 3.75 11.5385 3.75C11.5435 3.75 11.5485 3.75 11.5535 3.75C11.5585 3.75 11.5635 3.75 11.5685 3.75C11.5735 3.75 11.5785 3.75 11.5835 3.75C11.5885 3.75 11.5935 3.75 11.5985 3.75C11.6035 3.75 11.6085 3.75 11.6136 3.75C11.6186 3.75 11.6236 3.75 11.6286 3.75C11.6336 3.75 11.6386 3.75 11.6437 3.75C11.6487 3.75 11.6537 3.75 11.6587 3.75C11.6638 3.75 11.6688 3.75 11.6738 3.75C11.6789 3.75 11.6839 3.75 11.6889 3.75C11.694 3.75 11.699 3.75 11.7041 3.75C11.7091 3.75 11.7141 3.75 11.7192 3.75C11.7242 3.75 11.7293 3.75 11.7343 3.75C11.7394 3.75 11.7444 3.75 11.7495 3.75C11.7545 3.75 11.7596 3.75 11.7647 3.75C11.7697 3.75 11.7748 3.75 11.7799 3.75C11.7849 3.75 11.79 3.75 11.7951 3.75C11.8001 3.75 11.8052 3.75 11.8103 3.75C11.8154 3.75 11.8204 3.75 11.8255 3.75C11.8306 3.75 11.8357 3.75 11.8408 3.75C11.8459 3.75 11.8509 3.75 11.856 3.75C11.8611 3.75 11.8662 3.75 11.8713 3.75C11.8764 3.75 11.8815 3.75 11.8866 3.75C11.8917 3.75 11.8968 3.75 11.9019 3.75C11.907 3.75 11.9121 3.75 11.9173 3.75C11.9224 3.75 11.9275 3.75 11.9326 3.75C11.9377 3.75 11.9428 3.75 11.948 3.75C11.9531 3.75 11.9582 3.75 11.9633 3.75C11.9685 3.75 11.9736 3.75 11.9787 3.75C11.9839 3.75 11.989 3.75 11.9942 3.75C11.9993 3.75 12.0044 3.75 12.0096 3.75C12.0147 3.75 12.0199 3.75 12.025 3.75C12.0302 3.75 12.0353 3.75 12.0405 3.75C12.0456 3.75 12.0508 3.75 12.056 3.75C12.0611 3.75 12.0663 3.75 12.0715 3.75C12.0766 3.75 12.0818 3.75 12.087 3.75C12.0921 3.75 12.0973 3.75 12.1025 3.75C12.1077 3.75 12.1129 3.75 12.1181 3.75C12.1232 3.75 12.1284 3.75 12.1336 3.75C12.1388 3.75 12.144 3.75 12.1492 3.75C12.1544 3.75 12.1596 3.75 12.1648 3.75C12.17 3.75 12.1752 3.75 12.1804 3.75C12.1856 3.75 12.1908 3.75 12.1961 3.75C12.2013 3.75 12.2065 3.75 12.2117 3.75C12.2169 3.75 12.2222 3.75 12.2274 3.75C12.2326 3.75 12.2379 3.75 12.2431 3.75C12.2483 3.75 12.2536 3.75 12.2588 3.75C12.264 3.75 12.2693 3.75 12.2745 3.75C12.2798 3.75 12.285 3.75 12.2903 3.75C12.2955 3.75 12.3008 3.75 12.306 3.75C12.3113 3.75 12.3166 3.75 12.3218 3.75C12.3271 3.75 12.3324 3.75 12.3376 3.75C12.3429 3.75 12.3482 3.75 12.3535 3.75C12.3587 3.75 12.364 3.75 12.3693 3.75C12.3746 3.75 12.3799 3.75 12.3852 3.75C12.3905 3.75 12.3958 3.75 12.4011 3.75C12.4064 3.75 12.4117 3.75 12.417 3.75C12.4223 3.75 12.4276 3.75 12.4329 3.75C12.4382 3.75 12.4435 3.75 12.4488 3.75C12.4542 3.75 12.4595 3.75 12.4648 3.75C12.4701 3.75 12.4755 3.75 12.4808 3.75C12.4861 3.75 12.4915 3.75 12.4968 3.75C12.5021 3.75 12.5075 3.75 12.5128 3.75C12.5182 3.75 12.5235 3.75 12.5289 3.75C12.5342 3.75 12.5396 3.75 12.5449 3.75C12.5503 3.75 12.5557 3.75 12.561 3.75C12.5664 3.75 12.5718 3.75 12.5771 3.75C12.5825 3.75 12.5879 3.75 12.5933 3.75C12.5986 3.75 12.604 3.75 12.6094 3.75C12.6148 3.75 12.6202 3.75 12.6256 3.75C12.631 3.75 12.6364 3.75 12.6418 3.75C12.6472 3.75 12.6526 3.75 12.658 3.75C12.6634 3.75 12.6688 3.75 12.6742 3.75C12.6797 3.75 12.6851 3.75 12.6905 3.75C12.6959 3.75 12.7014 3.75 12.7068 3.75C12.7122 3.75 12.7177 3.75 12.7231 3.75C12.7285 3.75 12.734 3.75 12.7394 3.75C12.7449 3.75 12.7503 3.75 12.7558 3.75C12.7612 3.75 12.7667 3.75 12.7722 3.75C12.7776 3.75 12.7831 3.75 12.7885 3.75C12.794 3.75 12.7995 3.75 12.805 3.75C12.8104 3.75 12.8159 3.75 12.8214 3.75C12.8269 3.75 12.8324 3.75 12.8379 3.75C12.8434 3.75 12.8489 3.75 12.8544 3.75C12.8599 3.75 12.8654 3.75 12.8709 3.75C12.8764 3.75 12.8819 3.75 12.8874 3.75C12.8929 3.75 12.8984 3.75 12.904 3.75C12.9095 3.75 12.915 3.75 12.9205 3.75C12.9261 3.75 12.9316 3.75 12.9372 3.75C12.9427 3.75 12.9482 3.75 12.9538 3.75C12.9593 3.75 12.9649 3.75 12.9704 3.75C12.976 3.75 12.9815 3.75 12.9871 3.75C12.9927 3.75 12.9982 3.75 13.0038 3.75C13.0094 3.75 13.015 3.75 13.0205 3.75C13.0261 3.75 13.0317 3.75 13.0373 3.75C13.0429 3.75 13.0485 3.75 13.0541 3.75C13.0597 3.75 13.0653 3.75 13.0709 3.75C13.0765 3.75 13.0821 3.75 13.0877 3.75C13.0933 3.75 13.0989 3.75 13.1045 3.75C13.1102 3.75 13.1158 3.75 13.1214 3.75C13.1271 3.75 13.1327 3.75 13.1383 3.75C13.144 3.75 13.1496 3.75 13.1552 3.75C13.1609 3.75 13.1665 3.75 13.1722 3.75C13.1779 3.75 13.1835 3.75 13.1892 3.75C13.1948 3.75 13.2005 3.75 13.2062 3.75C13.2119 3.75 13.2175 3.75 13.2232 3.75C13.2289 3.75 13.2346 3.75 13.2403 3.75C13.246 3.75 13.2517 3.75 13.2573 3.75C13.263 3.75 13.2687 3.75 13.2745 3.75C13.2802 3.75 13.2859 3.75 13.2916 3.75C13.2973 3.75 13.303 3.75 13.3088 3.75C13.3145 3.75 13.3202 3.75 13.3259 3.75C13.3317 3.75 13.3374 3.75 13.3432 3.75C13.3489 3.75 13.3546 3.75 13.3604 3.75C13.3661 3.75 13.3719 3.75 13.3777 3.75C13.3834 3.75 13.3892 3.75 13.395 3.75C13.4007 3.75 13.4065 3.75 13.4123 3.75C13.4181 3.75 13.4238 3.75 13.4296 3.75C13.4354 3.75 13.4412 3.75 13.447 3.75C13.4528 3.75 13.4586 3.75 13.4644 3.75C13.4702 3.75 13.476 3.75 13.4818 3.75C13.4877 3.75 13.4935 3.75 13.4993 3.75C13.5051 3.75 13.511 3.75 13.5168 3.75C13.5226 3.75 13.5285 3.75 13.5343 3.75C13.5402 3.75 13.546 3.75 13.5519 3.75C13.5577 3.75 13.5636 3.75 13.5694 3.75C13.5753 3.75 13.5812 3.75 13.587 3.75C13.5929 3.75 13.5988 3.75 13.6047 3.75C13.6105 3.75 13.6164 3.75 13.6223 3.75C13.6282 3.75 13.6341 3.75 13.64 3.75C13.6459 3.75 13.6518 3.75 13.6577 3.75C13.6636 3.75 13.6695 3.75 13.6755 3.75C13.6814 3.75 13.6873 3.75 13.6932 3.75C13.6992 3.75 13.7051 3.75 13.711 3.75C13.717 3.75 13.7229 3.75 13.7289 3.75C13.7348 3.75 13.7408 3.75 13.7467 3.75C13.7527 3.75 13.7587 3.75 13.7646 3.75C13.7706 3.75 13.7766 3.75 13.7826 3.75C13.7885 3.75 13.7945 3.75 13.8005 3.75C13.8065 3.75 13.8125 3.75 13.8185 3.75C13.8245 3.75 13.8305 3.75 13.8365 3.75C13.8425 3.75 13.8485 3.75 13.8545 3.75C13.8606 3.75 13.8666 3.75 13.8726 3.75C13.8787 3.75 13.8847 3.75 13.8907 3.75C13.8968 3.75 13.9028 3.75 13.9089 3.75C13.9149 3.75 13.921 3.75 13.927 3.75C13.9331 3.75 13.9392 3.75 13.9452 3.75C13.9513 3.75 13.9574 3.75 13.9635 3.75C13.9695 3.75 13.9756 3.75 13.9817 3.75C13.9878 3.75 13.9939 3.75 14 3.75V2.25C13.9939 2.25 13.9878 2.25 13.9817 2.25C13.9756 2.25 13.9695 2.25 13.9635 2.25C13.9574 2.25 13.9513 2.25 13.9452 2.25C13.9392 2.25 13.9331 2.25 13.927 2.25C13.921 2.25 13.9149 2.25 13.9089 2.25C13.9028 2.25 13.8968 2.25 13.8907 2.25C13.8847 2.25 13.8787 2.25 13.8726 2.25C13.8666 2.25 13.8606 2.25 13.8545 2.25C13.8485 2.25 13.8425 2.25 13.8365 2.25C13.8305 2.25 13.8245 2.25 13.8185 2.25C13.8125 2.25 13.8065 2.25 13.8005 2.25C13.7945 2.25 13.7885 2.25 13.7826 2.25C13.7766 2.25 13.7706 2.25 13.7646 2.25C13.7587 2.25 13.7527 2.25 13.7467 2.25C13.7408 2.25 13.7348 2.25 13.7289 2.25C13.7229 2.25 13.717 2.25 13.711 2.25C13.7051 2.25 13.6992 2.25 13.6932 2.25C13.6873 2.25 13.6814 2.25 13.6755 2.25C13.6695 2.25 13.6636 2.25 13.6577 2.25C13.6518 2.25 13.6459 2.25 13.64 2.25C13.6341 2.25 13.6282 2.25 13.6223 2.25C13.6164 2.25 13.6105 2.25 13.6047 2.25C13.5988 2.25 13.5929 2.25 13.587 2.25C13.5812 2.25 13.5753 2.25 13.5694 2.25C13.5636 2.25 13.5577 2.25 13.5519 2.25C13.546 2.25 13.5402 2.25 13.5343 2.25C13.5285 2.25 13.5226 2.25 13.5168 2.25C13.511 2.25 13.5051 2.25 13.4993 2.25C13.4935 2.25 13.4877 2.25 13.4818 2.25C13.476 2.25 13.4702 2.25 13.4644 2.25C13.4586 2.25 13.4528 2.25 13.447 2.25C13.4412 2.25 13.4354 2.25 13.4296 2.25C13.4238 2.25 13.4181 2.25 13.4123 2.25C13.4065 2.25 13.4007 2.25 13.395 2.25C13.3892 2.25 13.3834 2.25 13.3777 2.25C13.3719 2.25 13.3661 2.25 13.3604 2.25C13.3546 2.25 13.3489 2.25 13.3432 2.25C13.3374 2.25 13.3317 2.25 13.3259 2.25C13.3202 2.25 13.3145 2.25 13.3088 2.25C13.303 2.25 13.2973 2.25 13.2916 2.25C13.2859 2.25 13.2802 2.25 13.2745 2.25C13.2687 2.25 13.263 2.25 13.2573 2.25C13.2517 2.25 13.246 2.25 13.2403 2.25C13.2346 2.25 13.2289 2.25 13.2232 2.25C13.2175 2.25 13.2119 2.25 13.2062 2.25C13.2005 2.25 13.1948 2.25 13.1892 2.25C13.1835 2.25 13.1779 2.25 13.1722 2.25C13.1665 2.25 13.1609 2.25 13.1552 2.25C13.1496 2.25 13.144 2.25 13.1383 2.25C13.1327 2.25 13.1271 2.25 13.1214 2.25C13.1158 2.25 13.1102 2.25 13.1045 2.25C13.0989 2.25 13.0933 2.25 13.0877 2.25C13.0821 2.25 13.0765 2.25 13.0709 2.25C13.0653 2.25 13.0597 2.25 13.0541 2.25C13.0485 2.25 13.0429 2.25 13.0373 2.25C13.0317 2.25 13.0261 2.25 13.0205 2.25C13.015 2.25 13.0094 2.25 13.0038 2.25C12.9982 2.25 12.9927 2.25 12.9871 2.25C12.9815 2.25 12.976 2.25 12.9704 2.25C12.9649 2.25 12.9593 2.25 12.9538 2.25C12.9482 2.25 12.9427 2.25 12.9372 2.25C12.9316 2.25 12.9261 2.25 12.9205 2.25C12.915 2.25 12.9095 2.25 12.904 2.25C12.8984 2.25 12.8929 2.25 12.8874 2.25C12.8819 2.25 12.8764 2.25 12.8709 2.25C12.8654 2.25 12.8599 2.25 12.8544 2.25C12.8489 2.25 12.8434 2.25 12.8379 2.25C12.8324 2.25 12.8269 2.25 12.8214 2.25C12.8159 2.25 12.8104 2.25 12.805 2.25C12.7995 2.25 12.794 2.25 12.7885 2.25C12.7831 2.25 12.7776 2.25 12.7722 2.25C12.7667 2.25 12.7612 2.25 12.7558 2.25C12.7503 2.25 12.7449 2.25 12.7394 2.25C12.734 2.25 12.7285 2.25 12.7231 2.25C12.7177 2.25 12.7122 2.25 12.7068 2.25C12.7014 2.25 12.6959 2.25 12.6905 2.25C12.6851 2.25 12.6797 2.25 12.6742 2.25C12.6688 2.25 12.6634 2.25 12.658 2.25C12.6526 2.25 12.6472 2.25 12.6418 2.25C12.6364 2.25 12.631 2.25 12.6256 2.25C12.6202 2.25 12.6148 2.25 12.6094 2.25C12.604 2.25 12.5986 2.25 12.5933 2.25C12.5879 2.25 12.5825 2.25 12.5771 2.25C12.5718 2.25 12.5664 2.25 12.561 2.25C12.5557 2.25 12.5503 2.25 12.5449 2.25C12.5396 2.25 12.5342 2.25 12.5289 2.25C12.5235 2.25 12.5182 2.25 12.5128 2.25C12.5075 2.25 12.5021 2.25 12.4968 2.25C12.4915 2.25 12.4861 2.25 12.4808 2.25C12.4755 2.25 12.4701 2.25 12.4648 2.25C12.4595 2.25 12.4542 2.25 12.4488 2.25C12.4435 2.25 12.4382 2.25 12.4329 2.25C12.4276 2.25 12.4223 2.25 12.417 2.25C12.4117 2.25 12.4064 2.25 12.4011 2.25C12.3958 2.25 12.3905 2.25 12.3852 2.25C12.3799 2.25 12.3746 2.25 12.3693 2.25C12.364 2.25 12.3587 2.25 12.3535 2.25C12.3482 2.25 12.3429 2.25 12.3376 2.25C12.3324 2.25 12.3271 2.25 12.3218 2.25C12.3166 2.25 12.3113 2.25 12.306 2.25C12.3008 2.25 12.2955 2.25 12.2903 2.25C12.285 2.25 12.2798 2.25 12.2745 2.25C12.2693 2.25 12.264 2.25 12.2588 2.25C12.2536 2.25 12.2483 2.25 12.2431 2.25C12.2379 2.25 12.2326 2.25 12.2274 2.25C12.2222 2.25 12.2169 2.25 12.2117 2.25C12.2065 2.25 12.2013 2.25 12.1961 2.25C12.1908 2.25 12.1856 2.25 12.1804 2.25C12.1752 2.25 12.17 2.25 12.1648 2.25C12.1596 2.25 12.1544 2.25 12.1492 2.25C12.144 2.25 12.1388 2.25 12.1336 2.25C12.1284 2.25 12.1232 2.25 12.1181 2.25C12.1129 2.25 12.1077 2.25 12.1025 2.25C12.0973 2.25 12.0921 2.25 12.087 2.25C12.0818 2.25 12.0766 2.25 12.0715 2.25C12.0663 2.25 12.0611 2.25 12.056 2.25C12.0508 2.25 12.0456 2.25 12.0405 2.25C12.0353 2.25 12.0302 2.25 12.025 2.25C12.0199 2.25 12.0147 2.25 12.0096 2.25C12.0044 2.25 11.9993 2.25 11.9942 2.25C11.989 2.25 11.9839 2.25 11.9787 2.25C11.9736 2.25 11.9685 2.25 11.9633 2.25C11.9582 2.25 11.9531 2.25 11.948 2.25C11.9428 2.25 11.9377 2.25 11.9326 2.25C11.9275 2.25 11.9224 2.25 11.9173 2.25C11.9121 2.25 11.907 2.25 11.9019 2.25C11.8968 2.25 11.8917 2.25 11.8866 2.25C11.8815 2.25 11.8764 2.25 11.8713 2.25C11.8662 2.25 11.8611 2.25 11.856 2.25C11.8509 2.25 11.8459 2.25 11.8408 2.25C11.8357 2.25 11.8306 2.25 11.8255 2.25C11.8204 2.25 11.8154 2.25 11.8103 2.25C11.8052 2.25 11.8001 2.25 11.7951 2.25C11.79 2.25 11.7849 2.25 11.7799 2.25C11.7748 2.25 11.7697 2.25 11.7647 2.25C11.7596 2.25 11.7545 2.25 11.7495 2.25C11.7444 2.25 11.7394 2.25 11.7343 2.25C11.7293 2.25 11.7242 2.25 11.7192 2.25C11.7141 2.25 11.7091 2.25 11.7041 2.25C11.699 2.25 11.694 2.25 11.6889 2.25C11.6839 2.25 11.6789 2.25 11.6738 2.25C11.6688 2.25 11.6638 2.25 11.6587 2.25C11.6537 2.25 11.6487 2.25 11.6437 2.25C11.6386 2.25 11.6336 2.25 11.6286 2.25C11.6236 2.25 11.6186 2.25 11.6136 2.25C11.6085 2.25 11.6035 2.25 11.5985 2.25C11.5935 2.25 11.5885 2.25 11.5835 2.25C11.5785 2.25 11.5735 2.25 11.5685 2.25C11.5635 2.25 11.5585 2.25 11.5535 2.25C11.5485 2.25 11.5435 2.25 11.5385 2.25C11.5335 2.25 11.5285 2.25 11.5236 2.25C11.5186 2.25 11.5136 2.25 11.5086 2.25C11.5036 2.25 11.4986 2.25 11.4937 2.25C11.4887 2.25 11.4837 2.25 11.4787 2.25C11.4738 2.25 11.4688 2.25 11.4638 2.25C11.4588 2.25 11.4539 2.25 11.4489 2.25C11.4439 2.25 11.439 2.25 11.434 2.25C11.4291 2.25 11.4241 2.25 11.4191 2.25C11.4142 2.25 11.4092 2.25 11.4043 2.25C11.3993 2.25 11.3944 2.25 11.3894 2.25C11.3845 2.25 11.3795 2.25 11.3746 2.25C11.3696 2.25 11.3647 2.25 11.3597 2.25C11.3548 2.25 11.3499 2.25 11.3449 2.25C11.34 2.25 11.335 2.25 11.3301 2.25C11.3252 2.25 11.3202 2.25 11.3153 2.25C11.3104 2.25 11.3055 2.25 11.3005 2.25C11.2956 2.25 11.2907 2.25 11.2857 2.25C11.2808 2.25 11.2759 2.25 11.271 2.25C11.2661 2.25 11.2611 2.25 11.2562 2.25C11.2513 2.25 11.2464 2.25 11.2415 2.25C11.2366 2.25 11.2317 2.25 11.2268 2.25C11.2218 2.25 11.2169 2.25 11.212 2.25C11.2071 2.25 11.2022 2.25 11.1973 2.25C11.1924 2.25 11.1875 2.25 11.1826 2.25C11.1777 2.25 11.1728 2.25 11.1679 2.25C11.163 2.25 11.1581 2.25 11.1532 2.25C11.1483 2.25 11.1435 2.25 11.1386 2.25C11.1337 2.25 11.1288 2.25 11.1239 2.25C11.119 2.25 11.1141 2.25 11.1093 2.25C11.1044 2.25 11.0995 2.25 11.0946 2.25C11.0897 2.25 11.0848 2.25 11.08 2.25C11.0751 2.25 11.0702 2.25 11.0653 2.25C11.0605 2.25 11.0556 2.25 11.0507 2.25C11.0459 2.25 11.041 2.25 11.0361 2.25C11.0313 2.25 11.0264 2.25 11.0215 2.25C11.0167 2.25 11.0118 2.25 11.0069 2.25C11.0021 2.25 10.9972 2.25 10.9924 2.25C10.9875 2.25 10.9826 2.25 10.9778 2.25C10.9729 2.25 10.9681 2.25 10.9632 2.25C10.9584 2.25 10.9535 2.25 10.9487 2.25C10.9438 2.25 10.939 2.25 10.9341 2.25C10.9293 2.25 10.9244 2.25 10.9196 2.25C10.9147 2.25 10.9099 2.25 10.905 2.25C10.9002 2.25 10.8954 2.25 10.8905 2.25C10.8857 2.25 10.8808 2.25 10.876 2.25C10.8712 2.25 10.8663 2.25 10.8615 2.25C10.8567 2.25 10.8518 2.25 10.847 2.25C10.8422 2.25 10.8373 2.25 10.8325 2.25C10.8277 2.25 10.8228 2.25 10.818 2.25C10.8132 2.25 10.8084 2.25 10.8035 2.25C10.7987 2.25 10.7939 2.25 10.7891 2.25C10.7842 2.25 10.7794 2.25 10.7746 2.25C10.7698 2.25 10.7649 2.25 10.7601 2.25C10.7553 2.25 10.7505 2.25 10.7457 2.25C10.7409 2.25 10.736 2.25 10.7312 2.25C10.7264 2.25 10.7216 2.25 10.7168 2.25C10.712 2.25 10.7072 2.25 10.7024 2.25C10.6975 2.25 10.6927 2.25 10.6879 2.25C10.6831 2.25 10.6783 2.25 10.6735 2.25C10.6687 2.25 10.6639 2.25 10.6591 2.25C10.6543 2.25 10.6495 2.25 10.6447 2.25C10.6399 2.25 10.6351 2.25 10.6303 2.25C10.6255 2.25 10.6207 2.25 10.6159 2.25C10.6111 2.25 10.6063 2.25 10.6015 2.25C10.5967 2.25 10.5919 2.25 10.5871 2.25C10.5823 2.25 10.5775 2.25 10.5727 2.25C10.5679 2.25 10.5631 2.25 10.5583 2.25C10.5535 2.25 10.5487 2.25 10.5439 2.25C10.5391 2.25 10.5344 2.25 10.5296 2.25C10.5248 2.25 10.52 2.25 10.5152 2.25C10.5104 2.25 10.5056 2.25 10.5008 2.25C10.4961 2.25 10.4913 2.25 10.4865 2.25C10.4817 2.25 10.4769 2.25 10.4721 2.25C10.4673 2.25 10.4626 2.25 10.4578 2.25C10.453 2.25 10.4482 2.25 10.4434 2.25C10.4387 2.25 10.4339 2.25 10.4291 2.25C10.4243 2.25 10.4195 2.25 10.4148 2.25C10.41 2.25 10.4052 2.25 10.4004 2.25C10.3956 2.25 10.3909 2.25 10.3861 2.25C10.3813 2.25 10.3765 2.25 10.3718 2.25C10.367 2.25 10.3622 2.25 10.3574 2.25C10.3527 2.25 10.3479 2.25 10.3431 2.25C10.3383 2.25 10.3336 2.25 10.3288 2.25C10.324 2.25 10.3193 2.25 10.3145 2.25C10.3097 2.25 10.3049 2.25 10.3002 2.25C10.2954 2.25 10.2906 2.25 10.2859 2.25C10.2811 2.25 10.2763 2.25 10.2715 2.25C10.2668 2.25 10.262 2.25 10.2572 2.25C10.2525 2.25 10.2477 2.25 10.2429 2.25C10.2382 2.25 10.2334 2.25 10.2286 2.25C10.2239 2.25 10.2191 2.25 10.2143 2.25C10.2096 2.25 10.2048 2.25 10.2 2.25C10.1953 2.25 10.1905 2.25 10.1857 2.25C10.181 2.25 10.1762 2.25 10.1715 2.25C10.1667 2.25 10.1619 2.25 10.1572 2.25C10.1524 2.25 10.1476 2.25 10.1429 2.25C10.1381 2.25 10.1333 2.25 10.1286 2.25C10.1238 2.25 10.1191 2.25 10.1143 2.25C10.1095 2.25 10.1048 2.25 10.1 2.25C10.0952 2.25 10.0905 2.25 10.0857 2.25C10.0809 2.25 10.0762 2.25 10.0714 2.25C10.0667 2.25 10.0619 2.25 10.0571 2.25C10.0524 2.25 10.0476 2.25 10.0429 2.25C10.0381 2.25 10.0333 2.25 10.0286 2.25C10.0238 2.25 10.019 2.25 10.0143 2.25C10.0095 2.25 10.0048 2.25 10 2.25C9.99524 2.25 9.99048 2.25 9.98572 2.25C9.98095 2.25 9.97619 2.25 9.97143 2.25C9.96667 2.25 9.96191 2.25 9.95715 2.25C9.95238 2.25 9.94762 2.25 9.94286 2.25C9.9381 2.25 9.93334 2.25 9.92857 2.25C9.92381 2.25 9.91905 2.25 9.91429 2.25C9.90953 2.25 9.90476 2.25 9.9 2.25C9.89524 2.25 9.89048 2.25 9.88571 2.25C9.88095 2.25 9.87619 2.25 9.87142 2.25C9.86666 2.25 9.8619 2.25 9.85713 2.25C9.85237 2.25 9.84761 2.25 9.84284 2.25C9.83808 2.25 9.83331 2.25 9.82855 2.25C9.82378 2.25 9.81902 2.25 9.81426 2.25C9.80949 2.25 9.80473 2.25 9.79996 2.25C9.79519 2.25 9.79043 2.25 9.78566 2.25C9.7809 2.25 9.77613 2.25 9.77136 2.25C9.7666 2.25 9.76183 2.25 9.75706 2.25C9.75229 2.25 9.74753 2.25 9.74276 2.25C9.73799 2.25 9.73322 2.25 9.72845 2.25C9.72368 2.25 9.71891 2.25 9.71414 2.25C9.70938 2.25 9.70461 2.25 9.69983 2.25C9.69506 2.25 9.69029 2.25 9.68552 2.25C9.68075 2.25 9.67598 2.25 9.67121 2.25C9.66643 2.25 9.66166 2.25 9.65689 2.25C9.65211 2.25 9.64734 2.25 9.64257 2.25C9.63779 2.25 9.63302 2.25 9.62824 2.25C9.62347 2.25 9.61869 2.25 9.61391 2.25C9.60914 2.25 9.60436 2.25 9.59958 2.25C9.5948 2.25 9.59003 2.25 9.58525 2.25C9.58047 2.25 9.57569 2.25 9.57091 2.25C9.56613 2.25 9.56135 2.25 9.55657 2.25C9.55179 2.25 9.54701 2.25 9.54222 2.25C9.53744 2.25 9.53266 2.25 9.52787 2.25C9.52309 2.25 9.51831 2.25 9.51352 2.25C9.50873 2.25 9.50395 2.25 9.49916 2.25C9.49438 2.25 9.48959 2.25 9.4848 2.25C9.48001 2.25 9.47522 2.25 9.47043 2.25C9.46564 2.25 9.46085 2.25 9.45606 2.25C9.45127 2.25 9.44648 2.25 9.44169 2.25C9.4369 2.25 9.4321 2.25 9.42731 2.25C9.42251 2.25 9.41772 2.25 9.41292 2.25C9.40813 2.25 9.40333 2.25 9.39853 2.25C9.39373 2.25 9.38894 2.25 9.38414 2.25C9.37934 2.25 9.37454 2.25 9.36974 2.25C9.36493 2.25 9.36013 2.25 9.35533 2.25C9.35053 2.25 9.34572 2.25 9.34092 2.25C9.33611 2.25 9.33131 2.25 9.3265 2.25C9.32169 2.25 9.31689 2.25 9.31208 2.25C9.30727 2.25 9.30246 2.25 9.29765 2.25C9.29284 2.25 9.28803 2.25 9.28321 2.25C9.2784 2.25 9.27359 2.25 9.26877 2.25C9.26396 2.25 9.25914 2.25 9.25433 2.25C9.24951 2.25 9.24469 2.25 9.23987 2.25C9.23505 2.25 9.23023 2.25 9.22541 2.25C9.22059 2.25 9.21577 2.25 9.21095 2.25C9.20612 2.25 9.2013 2.25 9.19647 2.25C9.19165 2.25 9.18682 2.25 9.18199 2.25C9.17716 2.25 9.17233 2.25 9.1675 2.25C9.16267 2.25 9.15784 2.25 9.15301 2.25C9.14818 2.25 9.14334 2.25 9.13851 2.25C9.13367 2.25 9.12884 2.25 9.124 2.25C9.11916 2.25 9.11432 2.25 9.10948 2.25C9.10464 2.25 9.0998 2.25 9.09496 2.25C9.09011 2.25 9.08527 2.25 9.08043 2.25C9.07558 2.25 9.07073 2.25 9.06588 2.25C9.06104 2.25 9.05619 2.25 9.05134 2.25C9.04649 2.25 9.04163 2.25 9.03678 2.25C9.03193 2.25 9.02707 2.25 9.02222 2.25C9.01736 2.25 9.0125 2.25 9.00764 2.25C9.00279 2.25 8.99793 2.25 8.99306 2.25C8.9882 2.25 8.98334 2.25 8.97847 2.25C8.97361 2.25 8.96874 2.25 8.96388 2.25C8.95901 2.25 8.95414 2.25 8.94927 2.25C8.9444 2.25 8.93953 2.25 8.93465 2.25C8.92978 2.25 8.9249 2.25 8.92003 2.25C8.91515 2.25 8.91027 2.25 8.90539 2.25C8.90051 2.25 8.89563 2.25 8.89075 2.25C8.88587 2.25 8.88098 2.25 8.8761 2.25C8.87121 2.25 8.86632 2.25 8.86143 2.25C8.85654 2.25 8.85165 2.25 8.84676 2.25C8.84187 2.25 8.83697 2.25 8.83208 2.25C8.82718 2.25 8.82229 2.25 8.81739 2.25C8.81249 2.25 8.80759 2.25 8.80268 2.25C8.79778 2.25 8.79288 2.25 8.78797 2.25C8.78307 2.25 8.77816 2.25 8.77325 2.25C8.76834 2.25 8.76343 2.25 8.75852 2.25C8.7536 2.25 8.74869 2.25 8.74377 2.25C8.73886 2.25 8.73394 2.25 8.72902 2.25C8.7241 2.25 8.71918 2.25 8.71425 2.25C8.70933 2.25 8.7044 2.25 8.69948 2.25C8.69455 2.25 8.68962 2.25 8.68469 2.25C8.67976 2.25 8.67483 2.25 8.66989 2.25C8.66496 2.25 8.66002 2.25 8.65508 2.25C8.65014 2.25 8.6452 2.25 8.64026 2.25C8.63532 2.25 8.63037 2.25 8.62543 2.25C8.62048 2.25 8.61553 2.25 8.61058 2.25C8.60563 2.25 8.60068 2.25 8.59573 2.25C8.59077 2.25 8.58582 2.25 8.58086 2.25C8.5759 2.25 8.57094 2.25 8.56598 2.25C8.56102 2.25 8.55605 2.25 8.55109 2.25C8.54612 2.25 8.54115 2.25 8.53618 2.25C8.53121 2.25 8.52624 2.25 8.52127 2.25C8.51629 2.25 8.51132 2.25 8.50634 2.25C8.50136 2.25 8.49638 2.25 8.4914 2.25C8.48641 2.25 8.48143 2.25 8.47644 2.25C8.47145 2.25 8.46646 2.25 8.46147 2.25C8.45648 2.25 8.45149 2.25 8.44649 2.25C8.4415 2.25 8.4365 2.25 8.4315 2.25C8.4265 2.25 8.4215 2.25 8.41649 2.25C8.41149 2.25 8.40648 2.25 8.40147 2.25C8.39646 2.25 8.39145 2.25 8.38644 2.25C8.38142 2.25 8.37641 2.25 8.37139 2.25C8.36637 2.25 8.36135 2.25 8.35633 2.25C8.35131 2.25 8.34628 2.25 8.34126 2.25C8.33623 2.25 8.3312 2.25 8.32617 2.25C8.32113 2.25 8.3161 2.25 8.31106 2.25C8.30603 2.25 8.30099 2.25 8.29595 2.25C8.2909 2.25 8.28586 2.25 8.28081 2.25C8.27577 2.25 8.27072 2.25 8.26567 2.25C8.26062 2.25 8.25556 2.25 8.25051 2.25C8.24545 2.25 8.24039 2.25 8.23533 2.25C8.23027 2.25 8.22521 2.25 8.22014 2.25C8.21507 2.25 8.21001 2.25 8.20494 2.25C8.19986 2.25 8.19479 2.25 8.18971 2.25C8.18464 2.25 8.17956 2.25 8.17448 2.25C8.1694 2.25 8.16431 2.25 8.15923 2.25C8.15414 2.25 8.14905 2.25 8.14396 2.25C8.13887 2.25 8.13378 2.25 8.12868 2.25C8.12358 2.25 8.11848 2.25 8.11338 2.25C8.10828 2.25 8.10318 2.25 8.09807 2.25C8.09296 2.25 8.08785 2.25 8.08274 2.25C8.07763 2.25 8.07251 2.25 8.06739 2.25C8.06228 2.25 8.05715 2.25 8.05203 2.25C8.04691 2.25 8.04178 2.25 8.03665 2.25C8.03152 2.25 8.02639 2.25 8.02126 2.25C8.01612 2.25 8.01099 2.25 8.00585 2.25C8.00071 2.25 7.99556 2.25 7.99042 2.25C7.98527 2.25 7.98013 2.25 7.97497 2.25C7.96982 2.25 7.96467 2.25 7.95951 2.25C7.95436 2.25 7.9492 2.25 7.94403 2.25C7.93887 2.25 7.93371 2.25 7.92854 2.25C7.92337 2.25 7.9182 2.25 7.91303 2.25C7.90785 2.25 7.90267 2.25 7.8975 2.25C7.89232 2.25 7.88713 2.25 7.88195 2.25C7.87676 2.25 7.87157 2.25 7.86638 2.25C7.86119 2.25 7.856 2.25 7.8508 2.25C7.8456 2.25 7.8404 2.25 7.8352 2.25C7.82999 2.25 7.82479 2.25 7.81958 2.25C7.81437 2.25 7.80915 2.25 7.80394 2.25C7.79872 2.25 7.7935 2.25 7.78828 2.25C7.78306 2.25 7.77784 2.25 7.77261 2.25C7.76738 2.25 7.76215 2.25 7.75692 2.25C7.75168 2.25 7.74644 2.25 7.7412 2.25C7.73596 2.25 7.73072 2.25 7.72547 2.25C7.72023 2.25 7.71498 2.25 7.70972 2.25C7.70447 2.25 7.69922 2.25 7.69396 2.25C7.6887 2.25 7.68343 2.25 7.67817 2.25C7.6729 2.25 7.66763 2.25 7.66236 2.25C7.65709 2.25 7.65181 2.25 7.64654 2.25C7.64126 2.25 7.63598 2.25 7.63069 2.25C7.62541 2.25 7.62012 2.25 7.61483 2.25C7.60953 2.25 7.60424 2.25 7.59894 2.25C7.59364 2.25 7.58834 2.25 7.58303 2.25C7.57773 2.25 7.57242 2.25 7.56711 2.25C7.5618 2.25 7.55648 2.25 7.55117 2.25C7.54585 2.25 7.54053 2.25 7.5352 2.25C7.52987 2.25 7.52455 2.25 7.51921 2.25C7.51388 2.25 7.50855 2.25 7.50321 2.25C7.49787 2.25 7.49253 2.25 7.48718 2.25C7.48184 2.25 7.47649 2.25 7.47113 2.25C7.46578 2.25 7.46043 2.25 7.45507 2.25C7.44971 2.25 7.44434 2.25 7.43898 2.25C7.43361 2.25 7.42824 2.25 7.42287 2.25C7.41749 2.25 7.41212 2.25 7.40673 2.25C7.40135 2.25 7.39597 2.25 7.39058 2.25C7.38519 2.25 7.3798 2.25 7.37441 2.25C7.36901 2.25 7.36361 2.25 7.35821 2.25C7.35281 2.25 7.3474 2.25 7.34199 2.25C7.33658 2.25 7.33117 2.25 7.32575 2.25C7.32034 2.25 7.31492 2.25 7.30949 2.25C7.30407 2.25 7.29864 2.25 7.29321 2.25C7.28778 2.25 7.28234 2.25 7.2769 2.25C7.27146 2.25 7.26602 2.25 7.26057 2.25C7.25513 2.25 7.24968 2.25 7.24422 2.25C7.23877 2.25 7.23331 2.25 7.22785 2.25C7.22239 2.25 7.21692 2.25 7.21145 2.25C7.20599 2.25 7.20051 2.25 7.19504 2.25C7.18956 2.25 7.18408 2.25 7.17859 2.25C7.17311 2.25 7.16762 2.25 7.16213 2.25C7.15664 2.25 7.15114 2.25 7.14564 2.25C7.14014 2.25 7.13464 2.25 7.12913 2.25C7.12362 2.25 7.11811 2.25 7.11259 2.25C7.10708 2.25 7.10156 2.25 7.09604 2.25C7.09051 2.25 7.08499 2.25 7.07945 2.25C7.07392 2.25 7.06839 2.25 7.06285 2.25C7.05731 2.25 7.05177 2.25 7.04622 2.25C7.04067 2.25 7.03512 2.25 7.02956 2.25C7.02401 2.25 7.01845 2.25 7.01289 2.25C7.00732 2.25 7.00176 2.25 6.99618 2.25C6.99061 2.25 6.98504 2.25 6.97946 2.25C6.97388 2.25 6.96829 2.25 6.96271 2.25C6.95712 2.25 6.95153 2.25 6.94593 2.25C6.94033 2.25 6.93473 2.25 6.92913 2.25C6.92353 2.25 6.91792 2.25 6.9123 2.25C6.90669 2.25 6.90107 2.25 6.89545 2.25C6.88983 2.25 6.88421 2.25 6.87858 2.25C6.87295 2.25 6.86731 2.25 6.86168 2.25C6.85604 2.25 6.8504 2.25 6.84475 2.25C6.8391 2.25 6.83345 2.25 6.8278 2.25C6.82214 2.25 6.81648 2.25 6.81082 2.25C6.80516 2.25 6.79949 2.25 6.79382 2.25C6.78815 2.25 6.78247 2.25 6.77679 2.25C6.77111 2.25 6.76542 2.25 6.75973 2.25C6.75404 2.25 6.74835 2.25 6.74265 2.25C6.73695 2.25 6.73125 2.25 6.72554 2.25C6.71984 2.25 6.71413 2.25 6.70841 2.25C6.70269 2.25 6.69697 2.25 6.69125 2.25C6.68552 2.25 6.67979 2.25 6.67406 2.25C6.66833 2.25 6.66259 2.25 6.65685 2.25C6.6511 2.25 6.64536 2.25 6.63961 2.25C6.63385 2.25 6.6281 2.25 6.62234 2.25C6.61658 2.25 6.61081 2.25 6.60504 2.25C6.59927 2.25 6.5935 2.25 6.58772 2.25C6.58194 2.25 6.57616 2.25 6.57037 2.25C6.56458 2.25 6.55879 2.25 6.55299 2.25C6.5472 2.25 6.5414 2.25 6.53559 2.25C6.52978 2.25 6.52397 2.25 6.51816 2.25C6.51234 2.25 6.50652 2.25 6.5007 2.25C6.49487 2.25 6.48904 2.25 6.48321 2.25C6.47737 2.25 6.47154 2.25 6.46569 2.25C6.45985 2.25 6.454 2.25 6.44815 2.25C6.44229 2.25 6.43644 2.25 6.43057 2.25C6.42471 2.25 6.41885 2.25 6.41297 2.25C6.4071 2.25 6.40122 2.25 6.39534 2.25C6.38946 2.25 6.38358 2.25 6.37768 2.25C6.37179 2.25 6.3659 2.25 6.36 2.25C6.3541 2.25 6.34819 2.25 6.34228 2.25C6.33637 2.25 6.33045 2.25 6.32453 2.25C6.31861 2.25 6.31269 2.25 6.30676 2.25C6.30083 2.25 6.2949 2.25 6.28896 2.25C6.28302 2.25 6.27707 2.25 6.27112 2.25C6.26517 2.25 6.25922 2.25 6.25326 2.25C6.2473 2.25 6.24134 2.25 6.23537 2.25C6.2294 2.25 6.22342 2.25 6.21744 2.25C6.21146 2.25 6.20548 2.25 6.19949 2.25C6.1935 2.25 6.18751 2.25 6.18151 2.25C6.17551 2.25 6.1695 2.25 6.1635 2.25C6.15749 2.25 6.15147 2.25 6.14545 2.25C6.13943 2.25 6.13341 2.25 6.12738 2.25C6.12135 2.25 6.11531 2.25 6.10927 2.25C6.10323 2.25 6.09719 2.25 6.09114 2.25C6.08509 2.25 6.07903 2.25 6.07297 2.25C6.06691 2.25 6.06085 2.25 6.05478 2.25C6.04871 2.25 6.04263 2.25 6.03655 2.25C6.03047 2.25 6.02438 2.25 6.01829 2.25C6.0122 2.25 6.0061 2.25 6 2.25V3.75ZM18.25 8V16H19.75V8H18.25ZM14 20.25H6V21.75H14V20.25ZM1.75 16V8H0.25V16H1.75ZM6 20.25C3.65279 20.25 1.75 18.3472 1.75 16H0.25C0.25 19.1756 2.82436 21.75 6 21.75V20.25ZM18.25 16C18.25 18.3472 16.3472 20.25 14 20.25V21.75C17.1756 21.75 19.75 19.1756 19.75 16H18.25ZM14 3.75C16.3472 3.75 18.25 5.65279 18.25 8H19.75C19.75 4.82436 17.1756 2.25 14 2.25V3.75ZM1.75029 4.12665C0.818911 5.14802 0.25 6.50844 0.25 8H1.75C1.75 6.89678 2.16936 5.89325 2.85865 5.13736L1.75029 4.12665Z" fill="white"/>
<path d="M4 8H19" stroke="white" stroke-width="1.5" stroke-linecap="round" stroke-linejoin="round"/>
<path d="M14.5 1.5L14.5 4.5" stroke="white" stroke-width="1.5" stroke-linecap="round" stroke-linejoin="round"/>
<path d="M5.5 1.5L5.5 4.5" stroke="white" stroke-width="1.5" stroke-linecap="round" stroke-linejoin="round"/>
<path d="M4.5 12H5.5" stroke="white" stroke-width="1.5" stroke-linecap="round" stroke-linejoin="round"/>
<path d="M9.5 12H10.5" stroke="white" stroke-width="1.5" stroke-linecap="round" stroke-linejoin="round"/>
<path d="M14.5 12H15.5" stroke="white" stroke-width="1.5" stroke-linecap="round" stroke-linejoin="round"/>
<path d="M4.5 16H5.5" stroke="white" stroke-width="1.5" stroke-linecap="round" stroke-linejoin="round"/>
<path d="M9.5 16H10.5" stroke="white" stroke-width="1.5" stroke-linecap="round" stroke-linejoin="round"/>
<path d="M14.5 16H15.5" stroke="white" stroke-width="1.5" stroke-linecap="round" stroke-linejoin="round"/>
</svg>
