<svg width="84" height="81" viewBox="0 0 84 81" fill="none" xmlns="http://www.w3.org/2000/svg">
<g id="Phychology" clip-path="url(#clip0_275_140678)">
<path id="Vector" d="M83.1885 40.4941C83.1858 38.2178 82.5401 35.9877 81.3245 34.0557C80.1089 32.1238 78.3718 30.567 76.3095 29.5612C76.7902 28.252 77.037 26.87 77.0389 25.477C77.0343 22.3037 75.7865 19.256 73.5582 16.9753C71.3299 14.6946 68.2949 13.3588 65.092 13.2492C65.1111 12.9091 65.1111 12.5682 65.092 12.2281C65.0751 9.93436 64.4116 7.69084 63.1762 5.75039C61.9408 3.80995 60.1827 2.2497 58.0998 1.24549C57.798 1.10183 57.4509 1.08279 57.1349 1.19254C56.8188 1.3023 56.5598 1.53186 56.4147 1.83073C56.2696 2.12961 56.2504 2.47331 56.3612 2.78622C56.4721 3.09914 56.7039 3.35564 57.0057 3.49929C58.878 4.36131 60.424 5.79193 61.4191 7.58333C62.4141 9.37473 62.8065 11.4336 62.5391 13.4609C61.3961 13.6458 60.2862 13.9939 59.2442 14.4944C58.9441 14.6397 58.7145 14.8971 58.606 15.21C58.4975 15.5229 58.519 15.8657 58.6657 16.1629C58.8125 16.4602 59.0725 16.6875 59.3885 16.7949C59.7045 16.9023 60.0507 16.881 60.3509 16.7357C62.0971 15.8884 64.058 15.5734 65.9852 15.8306C67.9123 16.0878 69.719 16.9057 71.1763 18.1806C72.6336 19.4555 73.6758 21.13 74.171 22.992C74.6662 24.854 74.592 26.8196 73.9579 28.6398C72.9401 28.3725 71.8921 28.2344 70.8391 28.2289C70.5056 28.2289 70.1857 28.3601 69.9498 28.5936C69.714 28.8271 69.5815 29.1438 69.5815 29.4741C69.5815 29.8043 69.714 30.121 69.9498 30.3546C70.1857 30.5881 70.5056 30.7193 70.8391 30.7193C73.0343 30.716 75.1672 31.4419 76.8964 32.7809C78.6257 34.1199 79.8513 35.9945 80.3773 38.1048C80.9032 40.2151 80.699 42.4391 79.7974 44.4209C78.8958 46.4027 77.3488 48.0278 75.4041 49.0361C74.0994 46.7586 72.0949 44.9527 69.6821 43.881C70.1566 42.7774 70.2794 41.5566 70.0342 40.382C69.9659 40.0518 69.7678 39.7619 69.4836 39.5763C69.1994 39.3906 68.8524 39.3244 68.5189 39.3921C68.1853 39.4598 67.8926 39.6559 67.7051 39.9373C67.5176 40.2187 67.4507 40.5623 67.5191 40.8925C67.6355 41.3468 67.6565 41.8199 67.5808 42.2826C67.5051 42.7452 67.3343 43.1875 67.0789 43.5822C66.5689 44.3393 65.7783 44.8672 64.8782 45.0515C64.713 45.0842 64.556 45.1488 64.4161 45.2416C64.2761 45.3344 64.156 45.4535 64.0626 45.5923C63.9692 45.731 63.9043 45.8867 63.8716 46.0502C63.8389 46.2138 63.8391 46.3822 63.8721 46.5457C63.9051 46.7092 63.9704 46.8647 64.0641 47.0033C64.1578 47.1418 64.2782 47.2608 64.4183 47.3533C64.5584 47.4458 64.7156 47.51 64.8808 47.5424C65.046 47.5748 65.2161 47.5746 65.3812 47.5419C66.425 47.3107 67.3857 46.8028 68.1604 46.0725C69.4152 46.5459 70.559 47.2685 71.5214 48.1957C72.4837 49.1229 73.2444 50.2352 73.7567 51.4642C74.269 52.644 74.5302 53.9157 74.5238 55.1998C74.5205 57.7846 73.482 60.2627 71.636 62.0904C69.7901 63.9181 67.2875 64.9464 64.677 64.9497H64.4506C64.2095 64.2302 63.9022 63.5341 63.5326 62.8702C63.45 62.728 63.3399 62.6032 63.2087 62.5031C63.0774 62.4029 62.9275 62.3293 62.7675 62.2866C62.6075 62.2438 62.4406 62.2326 62.2762 62.2537C62.1119 62.2748 61.9534 62.3277 61.8097 62.4095C61.666 62.4913 61.54 62.6003 61.4389 62.7302C61.3377 62.8602 61.2634 63.0086 61.2202 63.1671C61.177 63.3255 61.1657 63.4907 61.187 63.6535C61.2083 63.8162 61.2618 63.9732 61.3444 64.1154C62.4237 66.0446 62.8087 68.2797 62.4362 70.4541C62.0637 72.6284 60.9559 74.6129 59.2945 76.0818C59.0447 76.2999 58.8924 76.6073 58.8712 76.9364C58.85 77.2656 58.9615 77.5897 59.1814 77.8375C59.2992 77.9703 59.4443 78.0768 59.6069 78.1498C59.7695 78.2228 59.946 78.2606 60.1245 78.2609C60.4302 78.2604 60.7253 78.1498 60.9545 77.9496C62.4598 76.6403 63.6207 74.9881 64.3371 73.1355C65.0535 71.2828 65.304 69.2854 65.0668 67.3156C68.2774 67.2185 71.3238 65.8879 73.5608 63.6055C75.7978 61.3231 77.0497 58.2682 77.0515 55.0878C77.0567 53.8193 76.8572 52.5582 76.4604 51.3522C78.4777 50.3248 80.1717 48.7692 81.358 46.8547C82.5443 44.9402 83.1774 42.7402 83.1885 40.4941Z" fill="#FB3C22"/>
<path id="Vector_2" d="M54.6038 78.3353C53.1844 78.6005 51.7234 78.5528 50.3247 78.1957C48.9261 77.8386 47.624 77.1808 46.5111 76.2691C45.3982 75.3573 44.5018 74.214 43.8857 72.9205C43.2695 71.6269 42.9487 70.2148 42.9461 68.7846V42.0503C42.9537 40.0616 43.7336 38.152 45.1242 36.7172C46.5149 35.2823 48.4096 34.432 50.4161 34.3425C50.6577 35.543 51.2426 36.6495 52.1012 37.5302C52.333 37.768 52.6507 37.9048 52.9844 37.9107C53.3181 37.9165 53.6405 37.7909 53.8807 37.5613C54.1208 37.3318 54.259 37.0172 54.2649 36.6868C54.2708 36.3564 54.1439 36.0372 53.9121 35.7994C53.162 35.0298 52.7512 33.9967 52.77 32.9273C52.7889 31.8578 53.2359 30.8396 54.0127 30.0964C54.2469 29.8631 54.3784 29.5475 54.3784 29.2185C54.3784 28.8896 54.2469 28.574 54.0127 28.3407C53.7771 28.1087 53.4584 27.9786 53.1261 27.9786C52.7939 27.9786 52.4752 28.1087 52.2395 28.3407C51.2425 29.2875 50.5809 30.5278 50.3532 31.877C48.9415 31.9287 47.5555 32.2671 46.2814 32.8712C45.0072 33.4752 43.8719 34.332 42.9461 35.3885V12.2278C42.9494 9.64631 43.9866 7.17147 45.8301 5.34606C47.6737 3.52065 50.1731 2.49369 52.7803 2.49039C53.1138 2.49039 53.4337 2.3592 53.6695 2.12568C53.9054 1.89216 54.0379 1.57544 54.0379 1.2452C54.0379 0.914949 53.9054 0.598229 53.6695 0.364709C53.4337 0.13119 53.1138 0 52.7803 0C50.4658 0.00457652 48.1991 0.652414 46.2382 1.86978C44.2773 3.08714 42.7009 4.82513 41.6885 6.88593C40.676 4.82513 39.0997 3.08714 37.1387 1.86978C35.1778 0.652414 32.9111 0.00457652 30.5967 0C30.2631 0 29.9433 0.13119 29.7074 0.364709C29.4716 0.598229 29.3391 0.914949 29.3391 1.2452C29.3391 1.57544 29.4716 1.89216 29.7074 2.12568C29.9433 2.3592 30.2631 2.49039 30.5967 2.49039C33.2038 2.49369 35.7033 3.52065 37.5468 5.34606C39.3904 7.17147 40.4276 9.64631 40.4309 12.2278V35.3885C39.5044 34.3245 38.3661 33.4612 37.0873 32.8527C35.8084 32.2442 34.4165 31.9036 32.9986 31.8521C32.7658 30.5046 32.105 29.2658 31.1123 28.3158C30.8766 28.0838 30.5579 27.9537 30.2257 27.9537C29.8934 27.9537 29.5747 28.0838 29.3391 28.3158C29.1049 28.5491 28.9734 28.8647 28.9734 29.1936C28.9734 29.5226 29.1049 29.8382 29.3391 30.0715C30.1129 30.8164 30.5577 31.834 30.5766 32.9024C30.5954 33.9709 30.1867 35.0033 29.4397 35.7745C29.3099 35.888 29.2052 36.0269 29.1322 36.1824C29.0591 36.3378 29.0193 36.5066 29.0152 36.678C29.0111 36.8494 29.0427 37.0199 29.1082 37.1786C29.1738 37.3373 29.2717 37.481 29.3958 37.6005C29.52 37.72 29.6678 37.8128 29.8299 37.8732C29.992 37.9335 30.165 37.96 30.3379 37.9511C30.5109 37.9422 30.6801 37.898 30.835 37.8212C30.9899 37.7445 31.1271 37.637 31.238 37.5053C32.1047 36.6286 32.6947 35.5209 32.9357 34.3176C34.9509 34.4011 36.8557 35.2521 38.2523 36.693C39.6489 38.1338 40.4294 40.0532 40.4309 42.0503V68.7846C40.4282 70.2148 40.1074 71.6269 39.4913 72.9205C38.8751 74.214 37.9787 75.3573 36.8658 76.2691C35.7529 77.1808 34.4509 77.8386 33.0522 78.1957C31.6535 78.5528 30.1926 78.6005 28.7732 78.3353C28.4396 78.2742 28.0953 78.3468 27.8158 78.5371C27.6774 78.6313 27.5591 78.7516 27.4677 78.8911C27.3763 79.0306 27.3135 79.1866 27.2829 79.3501C27.2524 79.5136 27.2547 79.6815 27.2896 79.8442C27.3246 80.0068 27.3916 80.1611 27.4868 80.2981C27.679 80.5748 27.9743 80.7646 28.3079 80.8257C30.9731 81.3183 33.728 80.9278 36.1466 79.7146C38.5653 78.5015 40.5129 76.5332 41.6885 74.1141C42.8717 76.5249 44.8222 78.484 47.2398 79.6899C49.6574 80.8958 52.4083 81.2817 55.0691 80.7883C55.4026 80.7272 55.698 80.5374 55.8902 80.2607C56.0824 79.984 56.1557 79.643 56.094 79.3128C56.0323 78.9825 55.8406 78.6901 55.5612 78.4997C55.2817 78.3094 54.9373 78.2368 54.6038 78.2979V78.3353Z" fill="#FB3C22"/>
<path id="Vector_3" d="M64.6644 32.9226C65.5004 32.2594 66.4388 31.7338 67.4436 31.3661C67.6033 31.314 67.7508 31.2306 67.8774 31.121C68.0039 31.0114 68.107 30.8778 68.1805 30.7281C68.254 30.5783 68.2965 30.4155 68.3053 30.2493C68.3142 30.083 68.2893 29.9167 68.2321 29.7601C68.1749 29.6036 68.0866 29.46 67.9724 29.3378C67.8582 29.2156 67.7203 29.1174 67.5671 29.0488C67.4139 28.9803 67.2483 28.9429 67.0802 28.9388C66.9121 28.9348 66.7449 28.9641 66.5885 29.0252C65.313 29.4837 64.1231 30.1486 63.0673 30.9926C62.9299 31.0924 62.8144 31.2188 62.7278 31.3641C62.6412 31.5095 62.5854 31.6707 62.5637 31.8381C62.542 32.0054 62.5548 32.1754 62.6015 32.3377C62.6482 32.5 62.7277 32.6512 62.8352 32.7821C62.9427 32.9131 63.0759 33.021 63.2268 33.0994C63.3777 33.1778 63.5432 33.225 63.7131 33.2381C63.883 33.2512 64.0538 33.23 64.2152 33.1758C64.3765 33.1216 64.5251 33.0355 64.6518 32.9226H64.6644Z" fill="#FB3C22"/>
<path id="Vector_4" d="M61.2186 61.5381C61.3317 61.4174 61.4195 61.2758 61.477 61.1214C61.5344 60.967 61.5604 60.8028 61.5534 60.6384C61.5464 60.474 61.5065 60.3126 61.4361 60.1635C61.3657 60.0144 61.2661 59.8806 61.1432 59.7699C60.5735 59.2475 59.9544 58.7805 59.2945 58.3753C59.1541 58.2808 58.9959 58.2155 58.8293 58.1833C58.6627 58.151 58.4913 58.1525 58.3253 58.1876C58.1593 58.2227 58.0022 58.2908 57.8635 58.3876C57.7247 58.4844 57.6072 58.608 57.518 58.751C57.4289 58.894 57.3698 59.0534 57.3445 59.2196C57.3192 59.3857 57.3281 59.5553 57.3707 59.718C57.4133 59.8806 57.4887 60.0331 57.5924 60.1661C57.6961 60.2992 57.826 60.4101 57.9741 60.4921C58.5027 60.8193 58.9995 61.1945 59.458 61.6128C59.7029 61.8312 60.0245 61.9458 60.3538 61.9318C60.683 61.9179 60.9936 61.7765 61.2186 61.5381Z" fill="#FB3C22"/>
<path id="Vector_5" d="M57.3201 17.1459C57.0731 16.9252 56.7477 16.8104 56.4154 16.8267C56.083 16.8431 55.7707 16.9892 55.547 17.233C55.0094 17.8307 54.5294 18.4769 54.1133 19.1631C52.8676 18.6954 51.5069 18.6172 50.2148 18.939C49.9199 19.043 49.6747 19.2524 49.5273 19.526C49.38 19.7996 49.341 20.1178 49.4181 20.4183C49.4951 20.7189 49.6827 20.9801 49.944 21.151C50.2053 21.3219 50.5216 21.39 50.8311 21.3422C51.8716 21.086 52.9723 21.2488 53.8917 21.795C54.8112 22.3413 55.4743 23.2263 55.7356 24.2559C55.7699 24.4201 55.8372 24.5756 55.9336 24.7134C56.0301 24.8511 56.1536 24.9681 56.2968 25.0574C56.44 25.1468 56.5999 25.2066 56.767 25.2332C56.9341 25.2599 57.1049 25.2529 57.2692 25.2127C57.4335 25.1724 57.5879 25.0997 57.7231 24.999C57.8584 24.8982 57.9717 24.7715 58.0563 24.6264C58.1409 24.4812 58.1951 24.3207 58.2155 24.1543C58.236 23.988 58.2223 23.8192 58.1753 23.6582C57.8653 22.4347 57.1957 21.3296 56.2512 20.483C56.5822 19.9264 56.9699 19.4049 57.4082 18.9265C57.5224 18.8048 57.6109 18.6617 57.6684 18.5057C57.726 18.3496 57.7514 18.1837 57.7432 18.0178C57.735 17.8519 57.6933 17.6893 57.6207 17.5395C57.548 17.3898 57.4458 17.2559 57.3201 17.1459Z" fill="#FB3C22"/>
<path id="Vector_6" d="M47.3098 64.4513C47.129 64.7274 47.0659 65.063 47.1342 65.385C47.2025 65.707 47.3968 65.9891 47.6745 66.1697C48.969 67.0008 50.5436 67.2892 52.0526 66.9717C53.5616 66.6542 54.8817 65.7567 55.723 64.4762C55.9048 64.1988 55.9678 63.8613 55.8982 63.5379C55.8287 63.2144 55.6322 62.9316 55.352 62.7517C55.0719 62.5717 54.731 62.5093 54.4043 62.5781C54.0777 62.647 53.7921 62.8416 53.6103 63.119C53.3757 63.4805 53.0711 63.7924 52.714 64.0366C52.3569 64.2808 51.9544 64.4524 51.5299 64.5416C51.1053 64.6308 50.6671 64.6357 50.2407 64.5561C49.8142 64.4765 49.4079 64.3139 49.0453 64.0778C48.765 63.8999 48.4249 63.8394 48.0996 63.9094C47.7743 63.9794 47.4903 64.1743 47.3098 64.4513Z" fill="#FB3C22"/>
<path id="Vector_7" d="M51.5604 41.6896C51.4435 41.5729 51.3045 41.4803 51.1512 41.4171C50.998 41.3538 50.8336 41.3213 50.6676 41.3213C50.5016 41.3213 50.3372 41.3538 50.1839 41.4171C50.0307 41.4803 49.8916 41.5729 49.7747 41.6896C48.6904 42.7348 48.0684 44.1628 48.0448 45.661C48.0212 47.1592 48.598 48.6056 49.6489 49.6838C49.8824 49.9216 50.2017 50.0578 50.5366 50.0624C50.8715 50.0671 51.1946 49.9399 51.4347 49.7087C51.6748 49.4775 51.8124 49.1613 51.8171 48.8297C51.8218 48.4982 51.6933 48.1783 51.4598 47.9405C51.1674 47.6439 50.9372 47.2928 50.7826 46.9075C50.6279 46.5223 50.5519 46.1105 50.559 45.696C50.566 45.2815 50.6559 44.8725 50.8234 44.4926C50.991 44.1127 51.233 43.7695 51.5353 43.4827C51.6587 43.3682 51.7574 43.2303 51.8257 43.0772C51.894 42.924 51.9304 42.7588 51.9328 42.5915C51.9351 42.4241 51.9034 42.2579 51.8394 42.103C51.7754 41.948 51.6805 41.8074 51.5604 41.6896Z" fill="#FB3C22"/>
<path id="Vector_8" d="M64.1865 53.5431C64.2789 53.6802 64.3978 53.7978 64.5364 53.8891C64.675 53.9803 64.8305 54.0434 64.9939 54.0747C65.1573 54.106 65.3254 54.1049 65.4884 54.0714C65.6513 54.0379 65.806 53.9727 65.9433 53.8796C66.0806 53.7864 66.1979 53.6672 66.2884 53.5289C66.3788 53.3906 66.4406 53.2358 66.4702 53.0736C66.4998 52.9115 66.4966 52.7451 66.4608 52.5841C66.425 52.4232 66.3572 52.2709 66.2615 52.1361C65.7254 51.3586 65.0397 50.6935 64.2436 50.1788C63.4476 49.664 62.5569 49.3098 61.6224 49.1363C60.6879 48.9628 59.7281 48.9735 58.7978 49.1677C57.8675 49.362 56.985 49.736 56.2009 50.2683C56.0629 50.3607 55.9448 50.4794 55.8536 50.6174C55.7623 50.7554 55.6996 50.91 55.6692 51.0722C55.6388 51.2344 55.6412 51.401 55.6764 51.5622C55.7115 51.7235 55.7787 51.8762 55.8739 52.0116C56.0643 52.282 56.3553 52.4666 56.6829 52.525C57.0106 52.5833 57.3483 52.5106 57.622 52.3228C58.1336 51.9753 58.7095 51.7311 59.3166 51.6043C59.9237 51.4775 60.5502 51.4706 61.16 51.584C61.7698 51.6973 62.3511 51.9288 62.8704 52.2649C63.3898 52.6011 63.837 53.0355 64.1865 53.5431Z" fill="#FB3C22"/>
<path id="Vector_9" d="M22.0326 63.9781C22.1177 63.8355 22.1732 63.6775 22.1959 63.5133C22.2186 63.3491 22.2079 63.1822 22.1646 63.0221C22.1213 62.8621 22.0461 62.7122 21.9435 62.5813C21.841 62.4504 21.713 62.3411 21.5673 62.2597C21.277 62.0984 20.9339 62.0577 20.6133 62.1464C20.2928 62.235 20.0207 62.446 19.857 62.7329C19.4896 63.3979 19.1823 64.0938 18.9389 64.8124H18.7126C16.4541 64.7571 14.284 63.9326 12.5678 62.4779C10.8517 61.0232 9.69454 59.0271 9.29132 56.8261C8.88811 54.6252 9.26351 52.3538 10.3543 50.395C11.445 48.4361 13.1844 46.9094 15.2794 46.0722C16.0613 46.7823 17.0209 47.2725 18.0586 47.4917C18.2238 47.5244 18.3938 47.5246 18.559 47.4922C18.7242 47.4599 18.8814 47.3956 19.0215 47.3031C19.1617 47.2106 19.282 47.0917 19.3757 46.9531C19.4695 46.8146 19.5347 46.6591 19.5677 46.4956C19.6007 46.332 19.6009 46.1637 19.5682 46.0001C19.5356 45.8365 19.4706 45.6809 19.3772 45.5421C19.2838 45.4034 19.1637 45.2842 19.0238 45.1914C18.8838 45.0986 18.7268 45.034 18.5617 45.0013C18.1165 44.9108 17.6937 44.7343 17.3174 44.4819C16.9412 44.2294 16.6188 43.9061 16.3689 43.5302C16.119 43.1544 15.9463 42.7334 15.8608 42.2915C15.7752 41.8495 15.7785 41.3952 15.8704 40.9544C15.9371 40.6242 15.8686 40.2812 15.68 40.001C15.4913 39.7208 15.1979 39.5263 14.8644 39.4602C14.5309 39.3942 14.1845 39.462 13.9015 39.6488C13.6185 39.8356 13.422 40.1261 13.3553 40.4564C13.107 41.6267 13.23 42.8444 13.7074 43.9429C11.2946 45.0146 9.29013 46.8205 7.98544 49.098C6.03493 48.0936 4.48177 46.4694 3.5752 44.4862C2.66863 42.503 2.46122 40.2757 2.98625 38.1618C3.51128 36.0479 4.73831 34.1699 6.47043 32.8292C8.20255 31.4885 10.3393 30.7629 12.5379 30.7687C12.8714 30.7687 13.1913 30.6376 13.4271 30.404C13.6629 30.1705 13.7954 29.8538 13.7954 29.5235C13.7954 29.1933 13.6629 28.8766 13.4271 28.6431C13.1913 28.4095 12.8714 28.2784 12.5379 28.2784C11.487 28.2676 10.4391 28.389 9.41908 28.6395C8.76676 26.8157 8.67866 24.8408 9.16604 22.9672C9.65342 21.0936 10.6941 19.4065 12.1551 18.1217C13.616 16.8369 15.4308 16.0128 17.3673 15.7548C19.3038 15.4967 21.2741 15.8165 23.0261 16.6731C23.1747 16.7451 23.3362 16.7873 23.5013 16.7975C23.6664 16.8076 23.832 16.7855 23.9884 16.7323C24.1449 16.6791 24.2893 16.5959 24.4133 16.4875C24.5373 16.3791 24.6385 16.2475 24.7112 16.1003C24.7839 15.9532 24.8265 15.7933 24.8368 15.6298C24.8471 15.4663 24.8247 15.3024 24.771 15.1474C24.7172 14.9925 24.6332 14.8495 24.5237 14.7268C24.4142 14.604 24.2814 14.5037 24.1327 14.4318C23.0907 13.9313 21.9809 13.5832 20.8379 13.3983C20.782 12.9855 20.7526 12.5696 20.7498 12.1531C20.7573 10.3126 21.2886 8.51157 22.2829 6.9566C23.2773 5.40162 24.6942 4.15575 26.3712 3.36199C26.5553 3.17929 26.6775 2.94447 26.7209 2.68999C26.7644 2.43552 26.7269 2.17397 26.6136 1.94152C26.5004 1.70907 26.317 1.5172 26.0888 1.39245C25.8607 1.2677 25.599 1.21622 25.34 1.24515C23.2382 2.24701 21.4633 3.81392 20.2181 5.76694C18.9728 7.71996 18.3073 9.98037 18.2976 12.29C18.2785 12.6301 18.2785 12.971 18.2976 13.3111C15.0946 13.4207 12.0596 14.7565 9.83129 17.0372C7.60298 19.3179 6.3552 22.3656 6.35059 25.5389C6.35254 26.9319 6.59936 28.314 7.07999 29.6232C5.02662 30.624 3.29526 32.1711 2.0799 34.0913C0.864533 36.0115 0.213182 38.2289 0.198821 40.495C0.18446 42.7611 0.807657 44.9863 1.99859 46.9215C3.18952 48.8566 4.90113 50.4252 6.94166 51.4514C6.54531 52.6576 6.34579 53.9186 6.35059 55.187C6.35563 58.3654 7.60903 61.4171 9.84569 63.6968C12.0824 65.9765 15.1269 67.3054 18.3353 67.4024C18.0949 69.3725 18.3438 71.3708 19.0604 73.224C19.7771 75.0772 20.9398 76.7291 22.4476 78.0364C22.6768 78.2366 22.9719 78.3472 23.2776 78.3477C23.4561 78.3475 23.6326 78.3096 23.7952 78.2366C23.9578 78.1636 24.1029 78.0571 24.2207 77.9243C24.3422 77.7983 24.4355 77.6485 24.4948 77.4845C24.5541 77.3206 24.578 77.1461 24.565 76.9724C24.552 76.7988 24.5023 76.6297 24.4191 76.4763C24.336 76.3228 24.2213 76.1883 24.0824 76.0814C22.3881 74.6045 21.2592 72.5947 20.8859 70.3904C20.5125 68.186 20.9175 65.9215 22.0326 63.9781Z" fill="#FB3C22"/>
<path id="Vector_10" d="M15.1788 29.7727C15.0655 30.0832 15.0814 30.4254 15.2229 30.7243C15.3643 31.0232 15.6199 31.2542 15.9333 31.3666C16.9382 31.7342 17.8766 32.2598 18.7126 32.9231C18.971 33.1328 19.3031 33.2322 19.6356 33.1995C19.9682 33.1668 20.274 33.0047 20.4857 32.7487C20.6975 32.4928 20.798 32.164 20.765 31.8348C20.7319 31.5055 20.5682 31.2027 20.3097 30.993C19.2605 30.1529 18.0795 29.4883 16.8136 29.0256C16.6569 28.9662 16.4898 28.9385 16.3221 28.9441C16.1544 28.9496 15.9895 28.9883 15.8372 29.058C15.6848 29.1276 15.5481 29.2267 15.435 29.3494C15.3219 29.4722 15.2348 29.6161 15.1788 29.7727Z" fill="#FB3C22"/>
<path id="Vector_11" d="M24.0824 58.3748C23.4226 58.7801 22.8035 59.2471 22.2338 59.7694C22.0129 59.998 21.8881 60.3012 21.8848 60.6176C21.8815 60.9339 22 61.2396 22.2161 61.4726C22.4322 61.7057 22.7298 61.8485 23.0484 61.8721C23.367 61.8957 23.6827 61.7984 23.9315 61.5999C24.39 61.1816 24.8868 60.8064 25.4154 60.4792C25.6432 60.2899 25.7959 60.0268 25.8463 59.7366C25.8967 59.4464 25.8416 59.1479 25.6909 58.8941C25.5401 58.6403 25.3034 58.4477 25.0227 58.3503C24.7421 58.253 24.4356 58.2572 24.1579 58.3624L24.0824 58.3748Z" fill="#FB3C22"/>
<path id="Vector_12" d="M29.7667 63.119C29.5849 62.8416 29.2993 62.647 28.9726 62.5781C28.646 62.5093 28.3051 62.5717 28.0249 62.7517C27.7448 62.9316 27.5483 63.2144 27.4787 63.5379C27.4091 63.8613 27.4722 64.1988 27.6539 64.4762C28.0694 65.1115 28.6073 65.6594 29.237 66.0885C29.8666 66.5176 30.5756 66.8195 31.3232 66.9768C32.0709 67.1341 32.8426 67.1438 33.594 67.0053C34.3455 66.8668 35.062 66.5828 35.7024 66.1697C35.9826 65.9897 36.1791 65.7069 36.2486 65.3835C36.3182 65.0601 36.2552 64.7225 36.0734 64.4451C35.8916 64.1677 35.606 63.9732 35.2794 63.9043C34.9527 63.8354 34.6118 63.8978 34.3317 64.0778C33.9685 64.3123 33.5622 64.4735 33.1361 64.5522C32.7099 64.6309 32.2723 64.6256 31.8482 64.5365C31.4241 64.4474 31.022 64.2764 30.6648 64.0331C30.3076 63.7899 30.0024 63.4792 29.7667 63.119Z" fill="#FB3C22"/>
<path id="Vector_13" d="M31.9548 49.6713C32.1905 49.9032 32.5092 50.0334 32.8414 50.0334C33.1737 50.0334 33.4924 49.9032 33.728 49.6713C34.7789 48.5931 35.3557 47.1467 35.3322 45.6485C35.3086 44.1503 34.6866 42.7223 33.6023 41.6771C33.3621 41.4459 33.0391 41.3187 32.7042 41.3234C32.3693 41.328 32.05 41.4642 31.8165 41.702C31.583 41.9398 31.4545 42.2597 31.4592 42.5913C31.464 42.9229 31.6015 43.239 31.8417 43.4702C32.144 43.757 32.3859 44.1002 32.5535 44.4801C32.7211 44.86 32.811 45.269 32.818 45.6835C32.825 46.098 32.749 46.5098 32.5944 46.895C32.4398 47.2803 32.2096 47.6314 31.9171 47.928C31.6917 48.1656 31.5693 48.4813 31.5764 48.8073C31.5834 49.1332 31.7193 49.4434 31.9548 49.6713Z" fill="#FB3C22"/>
<path id="Vector_14" d="M27.1635 50.2811C25.5803 49.2081 23.6318 48.8008 21.7457 49.1486C19.8595 49.4965 18.1898 50.571 17.1029 52.1364C16.9144 52.4105 16.8437 52.7475 16.9062 53.0733C16.9687 53.3991 17.1593 53.6869 17.4361 53.8735C17.713 54.0601 18.0533 54.1301 18.3823 54.0683C18.7113 54.0064 19.002 53.8176 19.1904 53.5435C19.5379 53.0356 19.9831 52.6005 20.5005 52.263C21.0179 51.9255 21.5974 51.6923 22.2059 51.5767C22.8143 51.461 23.4398 51.4652 24.0467 51.5891C24.6535 51.7129 25.2297 51.9539 25.7424 52.2983C26.0161 52.4861 26.3537 52.5588 26.6814 52.5004C27.0091 52.4421 27.3 52.2574 27.4904 51.987C27.671 51.7165 27.7379 51.3869 27.6768 51.0683C27.6157 50.7497 27.4316 50.4673 27.1635 50.2811Z" fill="#FB3C22"/>
<path id="Vector_15" d="M32.5459 21.3422C32.8553 21.39 33.1716 21.3219 33.433 21.151C33.6943 20.9801 33.8818 20.7189 33.9589 20.4183C34.036 20.1178 33.997 19.7996 33.8496 19.526C33.7023 19.2524 33.4571 19.043 33.1621 18.939C31.8715 18.6021 30.5062 18.6806 29.2636 19.1631C28.8555 18.4779 28.384 17.8318 27.8551 17.233C27.6314 16.9892 27.3191 16.8431 26.9867 16.8267C26.6544 16.8104 26.329 16.9252 26.082 17.1459C25.9581 17.2558 25.8576 17.3889 25.7861 17.5375C25.7145 17.6861 25.6735 17.8473 25.6653 18.0118C25.6571 18.1762 25.682 18.3406 25.7384 18.4955C25.7948 18.6504 25.8816 18.7926 25.9939 18.914C26.4291 19.3875 26.8127 19.905 27.1383 20.4581C26.1873 21.3117 25.5134 22.4253 25.2017 23.6582C25.1612 23.8169 25.1527 23.9818 25.1766 24.1437C25.2005 24.3056 25.2564 24.4612 25.3411 24.6017C25.4257 24.7422 25.5375 24.8648 25.67 24.9625C25.8026 25.0602 25.9532 25.1311 26.1134 25.1712C26.2736 25.2112 26.4402 25.2196 26.6037 25.196C26.7671 25.1723 26.9243 25.1169 27.0662 25.0331C27.2081 24.9493 27.3319 24.8386 27.4306 24.7074C27.5293 24.5762 27.6009 24.427 27.6414 24.2684C27.8999 23.2364 28.5619 22.3484 29.4817 21.7997C30.4014 21.2509 31.5036 21.0864 32.5459 21.3422Z" fill="#FB3C22"/>
</g>
<defs>
<clipPath id="clip0_275_140678">
<rect width="83" height="81" fill="white" transform="translate(0.188477)"/>
</clipPath>
</defs>
</svg>
