<svg width="24" height="24" viewBox="0 0 24 24" fill="none" xmlns="http://www.w3.org/2000/svg">
<path d="M21 13V17C21 19.7614 18.7614 22 16 22H8C5.23858 22 3 19.7614 3 17V9C3 6.23858 5.23858 4 8 4H12" stroke="#616161" stroke-width="1.5" stroke-linecap="round"/>
<path d="M13.2963 6.87518L16.747 3.41919C17.5275 2.63755 18.7933 2.63707 19.5744 3.41812L21.2339 5.07761C22.0082 5.852 22.0163 7.10565 21.2519 7.88991L13.8229 15.5121C13.2585 16.0912 12.4844 16.4177 11.676 16.4177L9.40381 16.4176C8.76687 16.4176 8.25821 15.8866 8.285 15.2498V15.2498L8.33412 14.082L8.38324 12.9142V12.9142C8.41483 12.1632 8.72697 11.4514 9.25789 10.9197L10.8643 9.31081" stroke="#616161" stroke-width="1.5" stroke-linecap="round"/>
<path d="M17.6791 7.60687L19.3652 9.29297" stroke="#616161" stroke-width="1.5" stroke-linecap="round" stroke-linejoin="round"/>
</svg>
