<svg width="26" height="25" viewBox="0 0 26 25" fill="none" xmlns="http://www.w3.org/2000/svg">
<path d="M16.0037 4.60158C16.0037 5.98392 17.1243 7.10453 18.5067 7.10453C19.889 7.10453 21.0096 5.98392 21.0096 4.60158C21.0096 3.21924 19.889 2.09863 18.5067 2.09863" stroke="#616161" stroke-width="1.4417" stroke-linecap="round"/>
<path d="M6.49251 14.1123C7.87485 14.1123 8.99546 12.9917 8.99546 11.6094C8.99546 10.2271 7.87485 9.10645 6.49251 9.10645C5.11017 9.10645 3.98956 10.2271 3.98956 11.6094" stroke="#616161" stroke-width="1.4417" stroke-linecap="round"/>
<path d="M16.0037 6.10289L8.99545 10.1076" stroke="#616161" stroke-width="1.4417" stroke-linecap="round" stroke-linejoin="round"/>
<path d="M8.49487 13.6121L16.0037 18.1174" stroke="#616161" stroke-width="1.4417" stroke-linecap="round" stroke-linejoin="round"/>
<path d="M21.0096 19.6192C21.0096 21.0015 19.889 22.1221 18.5067 22.1221C17.1243 22.1221 16.0037 21.0015 16.0037 19.6192C16.0037 18.2368 17.1243 17.1162 18.5067 17.1162" stroke="#616161" stroke-width="1.4417" stroke-linecap="round"/>
</svg>
