<svg width="17" height="13" viewBox="0 0 17 13" fill="none" xmlns="http://www.w3.org/2000/svg">
<path d="M6.62468 9.9332L11.865 6.56785L6.62468 3.2025V9.9332ZM2.08942 12.8178C1.66848 12.8178 1.31217 12.672 1.02051 12.3803C0.728841 12.0887 0.583008 11.7324 0.583008 11.3114V1.82429C0.583008 1.40334 0.728841 1.04704 1.02051 0.755371C1.31217 0.463704 1.66848 0.317871 2.08942 0.317871H14.9099C15.3308 0.317871 15.6871 0.463704 15.9788 0.755371C16.2705 1.04704 16.4163 1.40334 16.4163 1.82429V11.3114C16.4163 11.7324 16.2705 12.0887 15.9788 12.3803C15.6871 12.672 15.3308 12.8178 14.9099 12.8178H2.08942ZM2.08942 11.5679H14.9099C14.974 11.5679 15.0328 11.5411 15.0862 11.4877C15.1396 11.4343 15.1663 11.3755 15.1663 11.3114V1.82429C15.1663 1.76018 15.1396 1.70141 15.0862 1.64798C15.0328 1.59456 14.974 1.56785 14.9099 1.56785H2.08942C2.02531 1.56785 1.96654 1.59456 1.91311 1.64798C1.8597 1.70141 1.83299 1.76018 1.83299 1.82429V11.3114C1.83299 11.3755 1.8597 11.4343 1.91311 11.4877C1.96654 11.5411 2.02531 11.5679 2.08942 11.5679Z" fill="#616161"/>
</svg>
