<svg width="19" height="22" viewBox="0 0 19 22" fill="none" xmlns="http://www.w3.org/2000/svg">
<path d="M3.14062 11.4316V10.0139C3.14062 8.98685 2.8075 7.98748 2.19126 7.16582V7.16582C1.34635 6.03927 2.15017 4.43164 3.55835 4.43164H14.7229C16.1311 4.43164 16.9349 6.03927 16.09 7.16582V7.16582C15.4737 7.98748 15.1406 8.98685 15.1406 10.0139V16.4316C15.1406 18.6408 13.3498 20.4316 11.1406 20.4316H7.14062C4.93149 20.4316 3.14062 18.6408 3.14062 16.4316V15.4316" stroke="black" stroke-width="1.5" stroke-linecap="round"/>
<path d="M11.1406 15.4316L11.1406 9.43164" stroke="black" stroke-width="1.5" stroke-linecap="round" stroke-linejoin="round"/>
<path d="M7.14062 15.4316L7.14062 9.43164" stroke="black" stroke-width="1.5" stroke-linecap="round" stroke-linejoin="round"/>
<path d="M11.7775 1.74721C11.4629 1.54579 11.091 1.43164 10.6992 1.43164H7.5822C7.19032 1.43164 6.81845 1.54579 6.50391 1.74721" stroke="black" stroke-width="1.5" stroke-linecap="round"/>
</svg>
