<svg width="18" height="19" viewBox="0 0 18 19" fill="none" xmlns="http://www.w3.org/2000/svg">
<path fill-rule="evenodd" clip-rule="evenodd" d="M8.82609 1.5C5.46436 1.5 2.73914 4.22522 2.73914 7.58696V9.67949C2.73914 10.7798 2.03006 11.7422 1.46647 12.6872C1.1702 13.184 1 13.7647 1 14.3851C1 15.988 2.1452 17.3633 3.73291 17.5834C5.3096 17.8021 7.27974 18.022 8.82609 18.022C10.3724 18.022 12.3426 17.8021 13.9193 17.5834C15.507 17.3633 16.6522 15.988 16.6522 14.3851C16.6522 13.7647 16.482 13.184 16.1857 12.6872C15.6221 11.7422 14.9131 10.7798 14.9131 9.67951V7.58696C14.9131 4.22522 12.1878 1.5 8.82609 1.5Z" fill="black"/>
<path d="M1 14.3851H0.25H1ZM3.73291 17.5834L3.83592 16.8405H3.83592L3.73291 17.5834ZM13.9193 17.5834L13.8163 16.8405H13.8162L13.9193 17.5834ZM1.46647 12.6872L0.822315 12.3031L1.46647 12.6872ZM3.48914 7.58696C3.48914 4.63944 5.87857 2.25 8.82609 2.25V0.75C5.05015 0.75 1.98914 3.81101 1.98914 7.58696H3.48914ZM3.48914 9.67949V7.58696H1.98914V9.67949H3.48914ZM1.75 14.3851C1.75 13.9037 1.88171 13.4552 2.11062 13.0714L0.822315 12.3031C0.458701 12.9128 0.25 13.6257 0.25 14.3851H1.75ZM3.83592 16.8405C2.63629 16.6742 1.75 15.6313 1.75 14.3851H0.25C0.25 16.3448 1.65411 18.0524 3.6299 18.3263L3.83592 16.8405ZM8.82609 17.272C7.33411 17.272 5.40652 17.0583 3.83592 16.8405L3.6299 18.3263C5.21268 18.5458 7.22537 18.772 8.82609 18.772V17.272ZM13.8162 16.8405C12.2457 17.0583 10.3181 17.272 8.82609 17.272V18.772C10.4268 18.772 12.4395 18.5458 14.0223 18.3263L13.8162 16.8405ZM15.9022 14.3851C15.9022 15.6313 15.0159 16.6742 13.8163 16.8405L14.0223 18.3263C15.9981 18.0524 17.4022 16.3448 17.4022 14.3851H15.9022ZM15.5416 13.0714C15.7705 13.4552 15.9022 13.9037 15.9022 14.3851H17.4022C17.4022 13.6257 17.1935 12.9128 16.8299 12.3031L15.5416 13.0714ZM14.1631 7.58696V9.67951H15.6631V7.58696H14.1631ZM8.82609 2.25C11.7736 2.25 14.1631 4.63944 14.1631 7.58696H15.6631C15.6631 3.81101 12.602 0.75 8.82609 0.75V2.25ZM16.8299 12.3031C16.521 11.7851 16.2404 11.3701 16.0091 10.9066C15.7876 10.4629 15.6631 10.067 15.6631 9.67951H14.1631C14.1631 10.3924 14.3931 11.0278 14.667 11.5766C14.9311 12.1056 15.2869 12.6443 15.5416 13.0714L16.8299 12.3031ZM1.98914 9.67949C1.98914 10.067 1.86462 10.4629 1.64311 10.9066C1.41176 11.3701 1.13121 11.7851 0.822315 12.3031L2.11062 13.0714C2.36531 12.6443 2.7211 12.1056 2.98519 11.5766C3.25912 11.0278 3.48914 10.3923 3.48914 9.67949H1.98914Z" fill="black"/>
</svg>
