<svg width="18" height="18" viewBox="0 0 18 18" fill="none" xmlns="http://www.w3.org/2000/svg">
<path d="M14.25 9V6.54307C14.25 6.19217 14.127 5.85237 13.9023 5.5828L10.9498 2.03972C10.6648 1.69773 10.2426 1.5 9.79744 1.5H8.25H5.25C3.59315 1.5 2.25 2.84315 2.25 4.5V7.5M11.625 16.5H5.25C3.59315 16.5 2.25 15.1569 2.25 13.5V11.25" stroke="#1E1E1E" stroke-width="1.5" stroke-linecap="round"/>
<path d="M12.75 13.5L14.25 12L15.75 13.5" stroke="#1E1E1E" stroke-width="1.5" stroke-linecap="round" stroke-linejoin="round"/>
<path d="M14.25 12L14.25 16.5" stroke="#1E1E1E" stroke-width="1.5" stroke-linecap="round" stroke-linejoin="round"/>
<path d="M10.5 1.875V4.5C10.5 4.91509 10.6686 5.29079 10.9411 5.56238C11.2124 5.83281 11.5867 6 12 6" stroke="#1E1E1E" stroke-width="1.5" stroke-linecap="round"/>
</svg>
