<svg width="14" height="17" viewBox="0 0 14 17" fill="none" xmlns="http://www.w3.org/2000/svg">
<path d="M5.9655 10.8565V13.37C5.9655 13.5943 6.04136 13.7824 6.1931 13.9341C6.34484 14.0858 6.53286 14.1617 6.75716 14.1617C6.98147 14.1617 7.16949 14.0858 7.32122 13.9341C7.47296 13.7824 7.54883 13.5943 7.54883 13.37V10.8565L8.26133 11.569C8.3405 11.6482 8.42956 11.7075 8.52852 11.7471C8.62747 11.7867 8.72643 11.8032 8.82539 11.7966C8.92435 11.79 9.02001 11.7669 9.11237 11.7273C9.20473 11.6877 9.29049 11.6284 9.36966 11.5492C9.5148 11.3909 9.59067 11.2061 9.59727 10.995C9.60386 10.7839 9.528 10.5992 9.36966 10.4409L7.31133 8.38254C7.23216 8.30337 7.1464 8.24729 7.05404 8.21431C6.96168 8.18132 6.86272 8.16483 6.75716 8.16483C6.65161 8.16483 6.55265 8.18132 6.46029 8.21431C6.36793 8.24729 6.28216 8.30337 6.203 8.38254L4.14466 10.4409C3.98633 10.5992 3.91046 10.7839 3.91706 10.995C3.92365 11.2061 4.00612 11.3909 4.16445 11.5492C4.32279 11.6943 4.50751 11.7702 4.71862 11.7768C4.92973 11.7834 5.11445 11.7075 5.27279 11.5492L5.9655 10.8565ZM2.00716 16.5367C1.57174 16.5367 1.199 16.3817 0.888932 16.0716C0.578863 15.7615 0.423828 15.3888 0.423828 14.9534V2.2867C0.423828 1.85129 0.578863 1.47854 0.888932 1.16847C1.199 0.858404 1.57174 0.703369 2.00716 0.703369H7.68737C7.89848 0.703369 8.0997 0.742952 8.29102 0.822119C8.48234 0.901286 8.65056 1.01344 8.7957 1.15858L12.6353 4.99816C12.7804 5.1433 12.8926 5.31153 12.9717 5.50285C13.0509 5.69417 13.0905 5.89538 13.0905 6.10649V14.9534C13.0905 15.3888 12.9355 15.7615 12.6254 16.0716C12.3153 16.3817 11.9426 16.5367 11.5072 16.5367H2.00716ZM7.54883 5.45337V2.2867H2.00716V14.9534H11.5072V6.24504H8.3405C8.11619 6.24504 7.92817 6.16917 7.77643 6.01743C7.6247 5.8657 7.54883 5.67767 7.54883 5.45337Z" fill="#1C1B1F"/>
</svg>
