<svg width="22" height="22" viewBox="0 0 22 22" fill="none" xmlns="http://www.w3.org/2000/svg">
<path fill-rule="evenodd" clip-rule="evenodd" d="M0.25 6C0.25 2.82436 2.82436 0.25 6 0.25H16C19.1756 0.25 21.75 2.82436 21.75 6V16C21.75 19.1756 19.1756 21.75 16 21.75H6C2.82436 21.75 0.25 19.1756 0.25 16V6ZM6 1.75C3.65279 1.75 1.75 3.65279 1.75 6V16C1.75 18.3472 3.65279 20.25 6 20.25H16C18.3472 20.25 20.25 18.3472 20.25 16V6C20.25 3.65279 18.3472 1.75 16 1.75H6Z" fill="#616161"/>
<path fill-rule="evenodd" clip-rule="evenodd" d="M1 6C1 3.23858 3.23858 1 6 1H16C18.7614 1 21 3.23858 21 6V16C21 16.7273 20.8447 17.4184 20.5655 18.0418L20.9211 15.5524C20.9701 15.2091 20.8378 14.8648 20.5713 14.6428L16.2628 11.0523C15.5476 10.4563 14.496 10.504 13.8377 11.1623L8.84853 16.1515C8.3799 16.6201 7.6201 16.6201 7.15147 16.1515L6.07822 15.0782C5.45603 14.456 4.47521 14.3749 3.7592 14.8863L1.91876 16.2009C1.65597 16.3886 1.5 16.6917 1.5 17.0146V18.0194C1.5 18.0894 1.50734 18.1586 1.52154 18.2259C1.18774 17.5555 1 16.7997 1 16V6ZM18.238 20.3096L20.1641 18.7688C19.2679 20.1138 17.7374 21 16 21H6C4.26076 21 2.72892 20.112 1.83318 18.7646C1.84685 18.7768 1.86089 18.7887 1.87531 18.8002L3.75317 20.3025C3.91381 20.431 4.11017 20.5069 4.31548 20.5197L11.9272 20.9955C11.9757 20.9985 12.0243 20.998 12.0727 20.9939L17.6963 20.5253C17.8943 20.5088 18.0828 20.4337 18.238 20.3096ZM7 9C5.89543 9 5 8.10457 5 7C5 5.89543 5.89543 5 7 5C8.10457 5 9 5.89543 9 7C9 8.10457 8.10457 9 7 9Z" fill="#616161"/>
</svg>
