<svg width="37" height="37" viewBox="0 0 37 37" fill="none" xmlns="http://www.w3.org/2000/svg">
<ellipse cx="18.4807" cy="18.3112" rx="18.0354" ry="17.9282" fill="#D9D9D9"/>
<path fill-rule="evenodd" clip-rule="evenodd" d="M16.7964 36.1622H20.1689C24.9123 35.7249 29.123 33.4618 32.0829 30.0865C31.9583 29.6029 31.7607 29.1422 31.4901 28.7042C30.9885 27.8921 30.3221 27.2724 29.4909 26.845C27.7137 25.9617 25.908 25.2993 24.0735 24.8576C22.2391 24.416 20.3759 24.1952 18.4842 24.1952C16.5924 24.1952 14.7293 24.416 12.8948 24.8576C11.0604 25.2993 9.2546 25.9617 7.47748 26.845C6.64625 27.2724 5.97982 27.8921 5.47822 28.7042C5.20717 29.143 5.00935 29.6047 4.88477 30.0892C7.84454 33.463 12.0542 35.7251 16.7964 36.1622ZM13.6257 20.4769C14.9729 21.816 16.5924 22.4856 18.4842 22.4856C20.3759 22.4856 21.9954 21.816 23.3426 20.4769C24.6898 19.1377 25.3634 17.5279 25.3634 15.6474C25.3634 13.7668 24.6898 12.157 23.3426 10.8178C21.9954 9.47866 20.3759 8.80908 18.4842 8.80908C16.5924 8.80908 14.9729 9.47866 13.6257 10.8178C12.2786 12.157 11.605 13.7668 11.605 15.6474C11.605 17.5279 12.2786 19.1377 13.6257 20.4769Z" fill="black"/>
<ellipse cx="18.4807" cy="18.3112" rx="18.0354" ry="17.9282" fill="#D9D9D9"/>
<path fill-rule="evenodd" clip-rule="evenodd" d="M16.7964 36.1622H20.1689C24.9123 35.7249 29.123 33.4618 32.0829 30.0865C31.9583 29.6029 31.7607 29.1422 31.4901 28.7042C30.9885 27.8921 30.3221 27.2724 29.4909 26.845C27.7137 25.9617 25.908 25.2993 24.0735 24.8576C22.2391 24.416 20.3759 24.1952 18.4842 24.1952C16.5924 24.1952 14.7293 24.416 12.8948 24.8576C11.0604 25.2993 9.2546 25.9617 7.47748 26.845C6.64625 27.2724 5.97982 27.8921 5.47822 28.7042C5.20717 29.143 5.00935 29.6047 4.88477 30.0892C7.84454 33.463 12.0542 35.7251 16.7964 36.1622ZM13.6257 20.4769C14.9729 21.816 16.5924 22.4856 18.4842 22.4856C20.3759 22.4856 21.9954 21.816 23.3426 20.4769C24.6898 19.1377 25.3634 17.5279 25.3634 15.6474C25.3634 13.7668 24.6898 12.157 23.3426 10.8178C21.9954 9.47866 20.3759 8.80908 18.4842 8.80908C16.5924 8.80908 14.9729 9.47866 13.6257 10.8178C12.2786 12.157 11.605 13.7668 11.605 15.6474C11.605 17.5279 12.2786 19.1377 13.6257 20.4769Z" fill="black"/>
</svg>
