<svg width="25" height="25" viewBox="0 0 25 25" fill="none" xmlns="http://www.w3.org/2000/svg">
<path d="M2.25391 11.1094V10.3594C2.25391 8.42638 3.82091 6.85938 5.75391 6.85938H12.7539C14.6869 6.85938 16.2539 8.42638 16.2539 10.3594V16.3594C16.2539 18.2924 14.6869 19.8594 12.7539 19.8594H5.75391C3.82091 19.8594 2.25391 18.2924 2.25391 16.3594V14.6094" stroke="#1C8827" stroke-width="1.5" stroke-linecap="round"/>
<path d="M16.2539 14.7557H15.5039V15.1514L15.8305 15.3748L16.2539 14.7557ZM18.8265 9.32337C18.4861 9.5594 18.4016 10.0267 18.6376 10.3671C18.8736 10.7074 19.3409 10.792 19.6813 10.556L18.8265 9.32337ZM20.3765 17.5753L19.9531 18.1944L20.3765 17.5753ZM20.7999 16.9563L16.6773 14.1367L15.8305 15.3748L19.9531 18.1944L20.7999 16.9563ZM17.0039 14.7557V12.02H15.5039V14.7557H17.0039ZM21.5039 10.1518V11.8594H23.0039V10.1518H21.5039ZM21.5039 14.8594V16.5848H23.0039V14.8594H21.5039ZM21.5039 11.8594V13.3594H23.0039V11.8594H21.5039ZM21.5039 13.3594V14.8594H23.0039V13.3594H21.5039ZM19.6813 10.556L20.7975 9.78199L19.9427 8.54936L18.8265 9.32337L19.6813 10.556ZM19.9531 18.1944C21.2473 19.0795 23.0039 18.1528 23.0039 16.5848H21.5039C21.5039 16.9467 21.0985 17.1605 20.7999 16.9563L19.9531 18.1944ZM23.0039 10.1518C23.0039 8.57812 21.2359 7.65262 19.9427 8.54936L20.7975 9.78199C21.0959 9.57505 21.5039 9.78863 21.5039 10.1518H23.0039Z" fill="#1C8827"/>
</svg>
