<svg width="16" height="15" viewBox="0 0 16 15" fill="none" xmlns="http://www.w3.org/2000/svg">
<mask id="mask0_1958_21513" style="mask-type:alpha" maskUnits="userSpaceOnUse" x="0" y="0" width="16" height="15">
<rect x="0.5" width="15" height="15" fill="#D9D9D9"/>
</mask>
<g mask="url(#mask0_1958_21513)">
<path d="M8 10C8.78125 10 9.44531 9.72656 9.99219 9.17969C10.5391 8.63281 10.8125 7.96875 10.8125 7.1875C10.8125 6.40625 10.5391 5.74219 9.99219 5.19531C9.44531 4.64844 8.78125 4.375 8 4.375C7.21875 4.375 6.55469 4.64844 6.00781 5.19531C5.46094 5.74219 5.1875 6.40625 5.1875 7.1875C5.1875 7.96875 5.46094 8.63281 6.00781 9.17969C6.55469 9.72656 7.21875 10 8 10ZM8 8.875C7.53125 8.875 7.13281 8.71094 6.80469 8.38281C6.47656 8.05469 6.3125 7.65625 6.3125 7.1875C6.3125 6.71875 6.47656 6.32031 6.80469 5.99219C7.13281 5.66406 7.53125 5.5 8 5.5C8.46875 5.5 8.86719 5.66406 9.19531 5.99219C9.52344 6.32031 9.6875 6.71875 9.6875 7.1875C9.6875 7.65625 9.52344 8.05469 9.19531 8.38281C8.86719 8.71094 8.46875 8.875 8 8.875ZM8 11.875C6.55208 11.875 5.22917 11.4922 4.03125 10.7266C2.83333 9.96094 1.92708 8.92708 1.3125 7.625C1.28125 7.57292 1.26042 7.50781 1.25 7.42969C1.23958 7.35156 1.23438 7.27083 1.23438 7.1875C1.23438 7.10417 1.23958 7.02344 1.25 6.94531C1.26042 6.86719 1.28125 6.80208 1.3125 6.75C1.92708 5.44792 2.83333 4.41406 4.03125 3.64844C5.22917 2.88281 6.55208 2.5 8 2.5C9.44792 2.5 10.7708 2.88281 11.9688 3.64844C13.1667 4.41406 14.0729 5.44792 14.6875 6.75C14.7188 6.80208 14.7396 6.86719 14.75 6.94531C14.7604 7.02344 14.7656 7.10417 14.7656 7.1875C14.7656 7.27083 14.7604 7.35156 14.75 7.42969C14.7396 7.50781 14.7188 7.57292 14.6875 7.625C14.0729 8.92708 13.1667 9.96094 11.9688 10.7266C10.7708 11.4922 9.44792 11.875 8 11.875ZM8 10.625C9.17708 10.625 10.2578 10.3151 11.2422 9.69531C12.2266 9.07552 12.9792 8.23958 13.5 7.1875C12.9792 6.13542 12.2266 5.29948 11.2422 4.67969C10.2578 4.0599 9.17708 3.75 8 3.75C6.82292 3.75 5.74219 4.0599 4.75781 4.67969C3.77344 5.29948 3.02083 6.13542 2.5 7.1875C3.02083 8.23958 3.77344 9.07552 4.75781 9.69531C5.74219 10.3151 6.82292 10.625 8 10.625Z" fill="#616161"/>
</g>
</svg>
